0
SECTION
2
HEADER
9
$INSUNITS
70
4
9
$ACADVER
1
AC1014
9
$HANDSEED
5
FFFF
0
ENDSEC
0
SECTION
2
TABLES
0
TABLE
2
VPORT
5
8
100
AcDbSymbolTable
0
ENDTAB
0
TABLE
2
LTYPE
5
5
100
AcDbSymbolTable
0
LTYPE
5
14
100
AcDbSymbolTableRecord
100
AcDbLinetypeTableRecord
2
BYBLOCK
70
0
0
LTYPE
5
15
100
AcDbSymbolTableRecord
100
AcDbLinetypeTableRecord
2
BYLAYER
70
0
0
ENDTAB
0
TABLE
2
LAYER
5
2
100
AcDbSymbolTable
70
2
0
LAYER
5
50
100
AcDbSymbolTableRecord
100
AcDbLayerTableRecord
2
0
70
0
6
CONTINUOUS
0
ENDTAB
0
TABLE
2
STYLE
5
3
100
AcDbSymbolTable
70
1
0
STYLE
5
11
100
AcDbSymbolTableRecord
100
AcDbTextStyleTableRecord
2
STANDARD
70
0
0
ENDTAB
0
TABLE
2
VIEW
5
6
100
AcDbSymbolTable
70
0
0
ENDTAB
0
TABLE
2
UCS
5
7
100
AcDbSymbolTable
70
0
0
ENDTAB
0
TABLE
2
APPID
5
9
100
AcDbSymbolTable
70
2
0
APPID
5
12
100
AcDbSymbolTableRecord
100
AcDbRegAppTableRecord
2
ACAD
70
0
0
ENDTAB
0
TABLE
2
DIMSTYLE
5
A
100
AcDbSymbolTable
70
1
0
ENDTAB
0
TABLE
2
BLOCK_RECORD
5
1
100
AcDbSymbolTable
70
1
0
BLOCK_RECORD
5
1F
100
AcDbSymbolTableRecord
100
AcDbBlockTableRecord
2
*MODEL_SPACE
0
BLOCK_RECORD
5
1B
100
AcDbSymbolTableRecord
100
AcDbBlockTableRecord
2
*PAPER_SPACE
0
ENDTAB
0
ENDSEC
0
SECTION
2
BLOCKS
0
BLOCK
5
20
100
AcDbEntity
100
AcDbBlockBegin
2
*MODEL_SPACE
0
ENDBLK
5
21
100
AcDbEntity
100
AcDbBlockEnd
0
BLOCK
5
1C
100
AcDbEntity
100
AcDbBlockBegin
2
*PAPER_SPACE
0
ENDBLK
5
1D
100
AcDbEntity
100
AcDbBlockEnd
0
ENDSEC
0
SECTION
2
ENTITIES
0
LINE
5
100
100
AcDbEntity
8
0
100
AcDbLine
10
380.06529339999997
20
2.0139136000000155
30
0
11
380.12529340000003
21
2.3997636000000186
31
0
0
LINE
5
101
100
AcDbEntity
8
0
100
AcDbLine
10
0.67170339999999995
20
157.44307359999999
30
0
11
0.76402839999999528
21
157.47707360000001
31
0
0
LINE
5
102
100
AcDbEntity
8
0
100
AcDbLine
10
379.61029340000005
20
1.3896636000000051
30
0
11
379.88929340000004
21
1.665263599999981
31
0
0
LINE
5
103
100
AcDbEntity
8
0
100
AcDbLine
10
0.95557340000000379
20
157.5230736
30
0
11
1.0520434000000012
21
157.53507360000003
31
0
0
LWPOLYLINE
5
104
100
AcDbEntity
8
0
100
AcDbPolyline
90
80
70
1
43
0.0
10
294.54129340000003
20
51.969073600000002
10
294.53829340000004
20
52.038273600000011
10
294.54129340000003
20
52.1070736
10
294.54929340000001
20
52.175873600000003
10
294.56329340000002
20
52.242173600000001
10
294.58129340000005
20
52.308073600000043
10
294.60429340000002
20
52.373073600000012
10
294.63329340000001
20
52.43507360000001
10
294.66629340000003
20
52.495473600000004
10
294.70629339999999
20
52.552273599999999
10
294.74829340000002
20
52.60587360000001
10
294.79529340000005
20
52.656673600000005
10
294.8452934
20
52.703573599999999
10
294.89929340000003
20
52.746273600000002
10
294.95629339999999
20
52.7836736
10
295.0162934
20
52.817873599999999
10
295.07829340000001
20
52.845773600000001
10
295.1432934
20
52.870473600000011
10
295.20929340000004
20
52.889873600000001
10
295.27729340000002
20
52.902173599999998
10
295.34429340000003
20
52.910273600000004
10
295.41329340000004
20
52.9131736
10
295.4822934
20
52.910273600000004
10
295.54929340000001
20
52.902173599999998
10
295.61729339999999
20
52.889873600000001
10
295.68329340000003
20
52.870473600000011
10
295.74829340000002
20
52.845773600000001
10
295.81129340000001
20
52.817873599999999
10
295.87129340000001
20
52.7836736
10
295.9272934
20
52.746273600000002
10
295.9822934
20
52.703573599999999
10
296.03229340000001
20
52.656673600000005
10
296.07929339999998
20
52.60587360000001
10
296.12129340000001
20
52.552273599999999
10
296.16029340000006
20
52.495473600000004
10
296.19329340000002
20
52.43507360000001
10
296.22229340000001
20
52.373073600000012
10
296.24629340000001
20
52.3080736
10
296.26429339999999
20
52.242173600000001
10
296.27729340000002
20
52.175873600000003
10
296.28529340000006
20
52.1070736
10
296.28829340000004
20
52.038273600000011
10
296.28529340000006
20
51.969073600000002
10
296.27729340000002
20
51.901673600000002
10
296.26429339999999
20
51.8339736
10
296.24629340000001
20
51.767973600000005
10
296.22229340000001
20
51.70307360000001
10
296.19329340000002
20
51.641373600000009
10
296.16029340000006
20
51.582073600000001
10
296.12129340000001
20
51.524273600000001
10
296.07929339999998
20
51.470273599999999
10
296.03229340000001
20
51.419473600000003
10
295.9822934
20
51.373973600000006
10
295.9272934
20
51.329873600000006
10
295.87129340000001
20
51.292473600000001
10
295.81129340000001
20
51.25827360000001
10
295.74829340000002
20
51.230373600000007
10
295.68329340000003
20
51.205673599999997
10
295.61729339999999
20
51.187673600000004
10
295.54929340000001
20
51.173973600000011
10
295.4822934
20
51.165773600000001
10
295.41329340000004
20
51.162973600000001
10
295.34429340000003
20
51.165773600000001
10
295.27729340000002
20
51.173973600000011
10
295.20929340000004
20
51.187673600000004
10
295.1432934
20
51.205673599999997
10
295.07829340000001
20
51.230373600000007
10
295.0162934
20
51.25827360000001
10
294.95629339999999
20
51.292473600000001
10
294.89929340000003
20
51.329873600000006
10
294.8452934
20
51.373973600000006
10
294.79529340000005
20
51.419473600000003
10
294.74829340000002
20
51.470273599999999
10
294.70629339999999
20
51.524273600000001
10
294.66629340000003
20
51.582073600000001
10
294.63329340000001
20
51.641373600000009
10
294.60429340000002
20
51.70307360000001
10
294.58129339999999
20
51.767973600000005
10
294.56329340000002
20
51.8339736
10
294.54929340000001
20
51.901673600000002
0
LINE
5
105
100
AcDbEntity
8
0
100
AcDbLine
10
1.0520434000000012
20
157.53507360000003
30
0
11
1.1512634000000044
21
157.53907360000002
31
0
0
LINE
5
106
100
AcDbEntity
8
0
100
AcDbLine
10
378.87629340000012
20
1.1498836000000179
30
0
11
379.26429340000016
21
1.2118936000000169
31
0
0
LINE
5
107
100
AcDbEntity
8
0
100
AcDbLine
10
0.20041340000001789
20
157.10007360000003
30
0
11
0.26655940000001593
21
157.17307360000001
31
0
0
LINE
5
108
100
AcDbEntity
8
0
100
AcDbLine
10
254.1192934
20
1.3896636000000406
30
0
11
254.39629340000005
21
1.6652635999999987
31
0
0
LINE
5
109
100
AcDbEntity
8
0
100
AcDbLine
10
254.39629340000005
20
1.6652635999999987
30
0
11
254.57229340000004
21
2.0139136000000155
31
0
0
LINE
5
110
100
AcDbEntity
8
0
100
AcDbLine
10
-0.0035375999999909952
20
156.76807360000001
30
0
11
0.036425400000007421
21
156.85607360000003
31
0
0
LINE
5
111
100
AcDbEntity
8
0
100
AcDbLine
10
0.41538540000000673
20
157.30107360000002
30
0
11
0.49669040000000714
21
157.3550736
31
0
0
LINE
5
112
100
AcDbEntity
8
0
100
AcDbLine
10
378.48829339999998
20
3.5890136000000004
30
0
11
378.14329339999995
21
3.4112435999999766
31
0
0
LINE
5
113
100
AcDbEntity
8
0
100
AcDbLine
10
0.58350840000003112
20
157.4030736
30
0
11
0.67170339999999995
21
157.44307359999999
31
0
0
LINE
5
114
100
AcDbEntity
8
0
100
AcDbLine
10
252.19529340000003
20
2.01391359999998
30
0
11
252.37229339999999
21
1.6652635999999987
31
0
0
LINE
5
115
100
AcDbEntity
8
0
100
AcDbLine
10
-0.037988599999995501
20
0.76402959999999998
30
0
11
-0.065549599999995517
21
0.8577336000000001
31
0
0
LINE
5
116
100
AcDbEntity
8
0
100
AcDbLine
10
252.37229339999999
20
1.6652635999999987
30
0
11
252.65029340000007
21
1.3896635999999873
31
0
0
LINE
5
117
100
AcDbEntity
8
0
100
AcDbLine
10
0.26655940000001593
20
157.17307360000001
30
0
11
0.33959440000002389
21
157.23907360000001
31
0
0
LINE
5
118
100
AcDbEntity
8
0
100
AcDbLine
10
0.85911340000000336
20
157.5050736
30
0
11
0.95557340000000379
21
157.5230736
31
0
0
LINE
5
119
100
AcDbEntity
8
0
100
AcDbLine
10
379.88929340000004
20
3.1356335999999549
30
0
11
379.61029340000005
21
3.4112435999999766
31
0
0
LINE
5
120
100
AcDbEntity
8
0
100
AcDbLine
10
-0.098621999999996074
20
156.28807359999999
30
0
11
-0.095865799999995741
21
156.38707360000001
31
0
0
LINE
5
121
100
AcDbEntity
8
0
100
AcDbLine
10
-0.095865799999995741
20
156.38707360000001
30
0
11
-0.08346359999999671
21
156.48407360000002
31
0
0
LINE
5
122
100
AcDbEntity
8
0
100
AcDbLine
10
0.084657400000031011
20
156.94307360000005
30
0
11
0.13840040000002823
21
157.02407360000007
31
0
0
LINE
5
123
100
AcDbEntity
8
0
100
AcDbLine
10
127.50629340000003
20
1.2118935999999969
30
0
11
127.89329340000002
21
1.1498836000000001
31
0
0
LINE
5
124
100
AcDbEntity
8
0
100
AcDbLine
10
0.49669040000000714
20
157.3550736
30
0
11
0.58350840000003112
21
157.4030736
31
0
0
LINE
5
125
100
AcDbEntity
8
0
100
AcDbLine
10
-0.065549599999995614
20
156.58007359999999
30
0
11
-0.037988599999995223
21
156.67507359999999
31
0
0
LINE
5
126
100
AcDbEntity
8
0
100
AcDbLine
10
0.33959440000002389
20
157.23907360000001
30
0
11
0.41538540000000673
21
157.30107360000002
31
0
0
LINE
5
127
100
AcDbEntity
8
0
100
AcDbLine
10
380.06529339999997
20
2.7856135999999863
30
0
11
379.88929340000004
21
3.1356335999999549
31
0
0
LINE
5
128
100
AcDbEntity
8
0
100
AcDbLine
10
379.26429340000004
20
3.5890136000000004
30
0
11
378.87629340000001
21
3.6496536000000033
31
0
0
LINE
5
129
100
AcDbEntity
8
0
100
AcDbLine
10
380.12529340000003
20
2.3997636000000186
30
0
11
380.06529339999997
21
2.7856135999999863
31
0
0
LINE
5
130
100
AcDbEntity
8
0
100
AcDbLine
10
254.57229340000004
20
2.0139136000000155
30
0
11
254.63429340000005
21
2.3997636000000009
31
0
0
LINE
5
131
100
AcDbEntity
8
0
100
AcDbLine
10
252.65029340000007
20
1.3896635999999873
30
0
11
252.99729340000002
21
1.2118935999999814
31
0
0
LINE
5
132
100
AcDbEntity
8
0
100
AcDbLine
10
0.13840040000002823
20
157.02407360000007
30
0
11
0.20041340000001789
21
157.10007360000003
31
0
0
LINE
5
133
100
AcDbEntity
8
0
100
AcDbLine
10
1.1512634000000044
20
157.53907360000002
30
0
11
380.12529340000003
21
157.53807359999999
31
0
0
LINE
5
134
100
AcDbEntity
8
0
100
AcDbLine
10
-0.095865799999995463
20
1.0520436000000002
30
0
11
-0.099999999999995454
21
1.1498836000000001
31
0
0
LINE
5
135
100
AcDbEntity
8
0
100
AcDbLine
10
252.13329340000001
20
2.3997636000000004
30
0
11
252.19529340000003
21
2.01391359999998
31
0
0
LINE
5
136
100
AcDbEntity
8
0
100
AcDbLine
10
253.38429340000002
20
1.1498835999999999
30
0
11
253.77029340000004
21
1.2118936
31
0
0
LINE
5
137
100
AcDbEntity
8
0
100
AcDbLine
10
379.88929340000004
20
1.665263599999981
30
0
11
380.06529339999997
21
2.0139136000000155
31
0
0
LINE
5
138
100
AcDbEntity
8
0
100
AcDbLine
10
379.26429340000016
20
1.2118936000000169
30
0
11
379.61029340000005
21
1.3896636000000051
31
0
0
LINE
5
139
100
AcDbEntity
8
0
100
AcDbLine
10
378.14329339999995
20
3.4112435999999766
30
0
11
377.86429340000007
21
3.1356336000000002
31
0
0
LINE
5
140
100
AcDbEntity
8
0
100
AcDbLine
10
252.37229339999999
20
3.1356336000000002
30
0
11
252.19529340000003
21
2.7856136000000005
31
0
0
LINE
5
141
100
AcDbEntity
8
0
100
AcDbLine
10
-0.065549599999995517
20
0.8577336000000001
30
0
11
-0.083463599999995461
21
0.95419360000000009
31
0
0
LINE
5
142
100
AcDbEntity
8
0
100
AcDbLine
10
-0.08346359999999671
20
156.48407360000002
30
0
11
-0.065549599999995614
21
156.58007359999999
31
0
0
LINE
5
143
100
AcDbEntity
8
0
100
AcDbLine
10
252.65029340000007
20
3.4112435999999997
30
0
11
252.37229339999999
21
3.1356336000000002
31
0
0
LINE
5
144
100
AcDbEntity
8
0
100
AcDbLine
10
-0.083463599999995461
20
0.95419360000000009
30
0
11
-0.095865799999995463
21
1.0520436000000002
31
0
0
LINE
5
145
100
AcDbEntity
8
0
100
AcDbLine
10
-0.099999999999995454
20
1.1498836000000001
30
0
11
-0.098621999999996074
21
156.28807359999999
31
0
0
LINE
5
146
100
AcDbEntity
8
0
100
AcDbLine
10
253.77029340000004
20
1.2118936
30
0
11
254.1192934
21
1.3896636000000406
31
0
0
LINE
5
147
100
AcDbEntity
8
0
100
AcDbLine
10
377.62729339999999
20
2.3997636000000004
30
0
11
377.68729339999999
21
2.0139136000000004
31
0
0
LINE
5
148
100
AcDbEntity
8
0
100
AcDbLine
10
-0.037988599999995223
20
156.67507359999999
30
0
11
-0.0035375999999909952
21
156.76807360000001
31
0
0
LINE
5
149
100
AcDbEntity
8
0
100
AcDbLine
10
127.15729340000001
20
3.4112435999999997
30
0
11
126.8802934
21
3.1356336000000002
31
0
0
LINE
5
150
100
AcDbEntity
8
0
100
AcDbLine
10
126.8802934
20
3.1356336000000002
30
0
11
126.7042934
21
2.7856136000000005
31
0
0
LINE
5
151
100
AcDbEntity
8
0
100
AcDbLine
10
253.77029340000004
20
3.5890136000000004
30
0
11
253.38429340000002
21
3.6496536000000006
31
0
0
LINE
5
152
100
AcDbEntity
8
0
100
AcDbLine
10
254.1192934
20
3.4112435999999997
30
0
11
253.77029340000004
21
3.5890136000000004
31
0
0
LINE
5
153
100
AcDbEntity
8
0
100
AcDbLine
10
377.86429340000007
20
3.1356336000000002
30
0
11
377.68729339999999
21
2.7856136000000005
31
0
0
LINE
5
154
100
AcDbEntity
8
0
100
AcDbLine
10
254.63429340000005
20
2.3997636000000009
30
0
11
254.57229340000001
21
2.7856136000000005
31
0
0
LINE
5
155
100
AcDbEntity
8
0
100
AcDbLine
10
0.036425400000007421
20
156.85607360000003
30
0
11
0.084657400000031011
21
156.94307360000005
31
0
0
LINE
5
156
100
AcDbEntity
8
0
100
AcDbLine
10
377.68729339999999
20
2.0139136000000004
30
0
11
377.86429340000007
21
1.6652636000000001
31
0
0
LINE
5
157
100
AcDbEntity
8
0
100
AcDbLine
10
252.99729340000002
20
1.2118935999999814
30
0
11
253.38429340000002
21
1.1498835999999999
31
0
0
LINE
5
158
100
AcDbEntity
8
0
100
AcDbLine
10
127.50629340000002
20
3.5890136000000004
30
0
11
127.15729340000001
21
3.4112435999999997
31
0
0
LINE
5
159
100
AcDbEntity
8
0
100
AcDbLine
10
378.87629340000001
20
3.6496536000000033
30
0
11
378.48829339999998
21
3.5890136000000004
31
0
0
LINE
5
160
100
AcDbEntity
8
0
100
AcDbLine
10
379.61029340000005
20
3.4112435999999766
30
0
11
379.26429340000004
21
3.5890136000000004
31
0
0
LINE
5
161
100
AcDbEntity
8
0
100
AcDbLine
10
254.57229340000001
20
2.7856136000000005
30
0
11
254.39629340000005
21
3.1356336000000002
31
0
0
LINE
5
162
100
AcDbEntity
8
0
100
AcDbLine
10
378.1432934
20
1.3896636
30
0
11
378.48829339999998
21
1.2118936
31
0
0
LINE
5
163
100
AcDbEntity
8
0
100
AcDbLine
10
253.38429340000002
20
3.6496536000000006
30
0
11
252.99729339999999
21
3.5890136000000004
31
0
0
LINE
5
164
100
AcDbEntity
8
0
100
AcDbLine
10
377.68729339999999
20
2.7856136000000005
30
0
11
377.62729339999999
21
2.3997636000000004
31
0
0
LINE
5
165
100
AcDbEntity
8
0
100
AcDbLine
10
252.19529340000003
20
2.7856136000000005
30
0
11
252.13329340000001
21
2.3997636000000004
31
0
0
LINE
5
166
100
AcDbEntity
8
0
100
AcDbLine
10
252.99729339999999
20
3.5890136000000004
30
0
11
252.65029340000007
21
3.4112435999999997
31
0
0
LINE
5
167
100
AcDbEntity
8
0
100
AcDbLine
10
126.64329340000002
20
2.3997636000000004
30
0
11
126.7042934
21
2.0139136000000004
31
0
0
LINE
5
168
100
AcDbEntity
8
0
100
AcDbLine
10
378.48829339999998
20
1.2118936
30
0
11
378.87629340000012
21
1.1498836000000179
31
0
0
LINE
5
169
100
AcDbEntity
8
0
100
AcDbLine
10
0.76402839999999528
20
157.47707360000001
30
0
11
0.85911340000000336
21
157.5050736
31
0
0
LINE
5
170
100
AcDbEntity
8
0
100
AcDbLine
10
126.8802934
20
1.6652636000000001
30
0
11
127.15729340000001
21
1.3896636
31
0
0
LINE
5
171
100
AcDbEntity
8
0
100
AcDbLine
10
126.7042934
20
2.0139136000000004
30
0
11
126.8802934
21
1.6652636000000001
31
0
0
LINE
5
172
100
AcDbEntity
8
0
100
AcDbLine
10
377.86429340000007
20
1.6652636000000001
30
0
11
378.1432934
21
1.3896636
31
0
0
LINE
5
173
100
AcDbEntity
8
0
100
AcDbLine
10
126.7042934
20
2.7856136000000005
30
0
11
126.64329340000002
21
2.3997636000000004
31
0
0
LINE
5
174
100
AcDbEntity
8
0
100
AcDbLine
10
254.39629340000005
20
3.1356336000000002
30
0
11
254.1192934
21
3.4112435999999997
31
0
0
LWPOLYLINE
5
175
100
AcDbEntity
8
0
100
AcDbPolyline
90
4
70
1
43
0.0
10
259.8382934
20
7.4254635999999996
10
273.83729340000002
20
7.4254635999999996
10
273.83729340000002
20
21.426373600000002
10
259.8382934
20
21.426373600000002
0
LINE
5
176
100
AcDbEntity
8
0
100
AcDbLine
10
3.135633400000005
20
1.3896636
30
0
11
3.4126334000000051
21
1.6652636000000001
31
0
0
LWPOLYLINE
5
177
100
AcDbEntity
8
0
100
AcDbPolyline
90
44
70
1
43
0.0
10
89.243593400000009
20
24.7198736
10
89.243593400000009
20
21.489773599999999
10
128.8692934
20
21.489773599999999
10
128.8692934
20
26.188873600000001
10
142.86829340000003
20
26.188873600000001
10
142.86829340000003
20
21.489773599999999
10
182.4942934
20
21.489773599999999
10
182.4942934
20
24.7198736
10
184.21929339999997
20
24.7198736
10
184.21929339999997
20
25.6389736
10
187.51829340000003
20
25.6389736
10
187.51829340000003
20
24.7198736
10
189.24329340000003
20
24.7198736
10
189.24329340000003
20
21.489773599999999
10
190.06929340000002
20
21.489773599999999
10
190.06929340000002
20
18.689573599999999
10
189.24329340000003
20
18.689573599999999
10
189.24329340000003
20
12.419473600000002
10
187.51829340000003
20
12.419473600000002
10
187.51829340000003
20
11.439673599999999
10
184.21929339999997
20
11.439673599999999
10
184.21929339999997
20
12.419473600000002
10
182.4942934
20
12.419473600000002
10
182.4942934
20
16.889873600000001
10
142.86829340000003
20
16.889873600000001
10
142.86829340000003
20
12.1893736
10
128.8692934
20
12.1893736
10
128.8692934
20
16.889873600000001
10
89.243593400000009
20
16.889873600000001
10
89.243593400000009
20
12.419473600000002
10
87.518493399999997
20
12.419473600000002
10
87.518493399999997
20
11.439673599999999
10
84.219293399999998
20
11.439673599999999
10
84.219293399999998
20
12.419473600000002
10
82.494193400000015
20
12.419473600000002
10
82.494193400000015
20
18.689573599999999
10
81.668693399999995
20
18.689573599999999
10
81.668693399999995
20
21.489773599999999
10
82.494193400000015
20
21.489773599999999
10
82.494193400000015
20
24.7198736
10
84.219293399999998
20
24.7198736
10
84.219293399999998
20
25.6389736
10
87.518493399999997
20
25.6389736
10
87.518493399999997
20
24.7198736
0
LINE
5
178
100
AcDbEntity
8
0
100
AcDbLine
10
129.1432934
20
2.3997636000000004
30
0
11
129.08129340000002
21
2.7856136000000005
31
0
0
LINE
5
179
100
AcDbEntity
8
0
100
AcDbLine
10
127.15729340000001
20
1.3896636
30
0
11
127.50629340000003
21
1.2118935999999969
31
0
0
LWPOLYLINE
5
180
100
AcDbEntity
8
0
100
AcDbPolyline
90
4
70
1
43
0.0
10
292.88729339999998
20
7.4254635999999996
10
292.88729339999998
20
21.426373600000002
10
278.88829340000001
20
21.426373600000002
10
278.88829340000001
20
7.4254635999999996
0
LINE
5
181
100
AcDbEntity
8
0
100
AcDbLine
10
128.2792934
20
3.5890136000000004
30
0
11
127.89329340000002
21
3.6496536000000006
31
0
0
LINE
5
182
100
AcDbEntity
8
0
100
AcDbLine
10
2.7869934000000045
20
3.5890136000000004
30
0
11
2.3997634000000048
21
3.6496536000000006
31
0
0
LINE
5
183
100
AcDbEntity
8
0
100
AcDbLine
10
128.2792934
20
1.2118936
30
0
11
128.62629340000001
21
1.3896636
31
0
0
LINE
5
184
100
AcDbEntity
8
0
100
AcDbLine
10
1.1498834000000047
20
2.3997636000000004
30
0
11
1.2118934000000046
21
2.0139136000000004
31
0
0
LINE
5
185
100
AcDbEntity
8
0
100
AcDbLine
10
128.62629340000001
20
3.4112435999999997
30
0
11
128.2792934
21
3.5890136000000004
31
0
0
LINE
5
186
100
AcDbEntity
8
0
100
AcDbLine
10
1.2118934000000046
20
2.7856136000000005
30
0
11
1.1498834000000047
21
2.3997636000000004
31
0
0
LINE
5
187
100
AcDbEntity
8
0
100
AcDbLine
10
129.08129340000002
20
2.7856136000000005
30
0
11
128.9032934
21
3.1356336000000002
31
0
0
LINE
5
188
100
AcDbEntity
8
0
100
AcDbLine
10
2.0139134000000047
20
1.2118936
30
0
11
2.3997634000000048
21
1.1498835999999999
31
0
0
LINE
5
189
100
AcDbEntity
8
0
100
AcDbLine
10
3.135633400000005
20
3.4112435999999997
30
0
11
2.7869934000000045
21
3.5890136000000004
31
0
0
LINE
5
190
100
AcDbEntity
8
0
100
AcDbLine
10
1.389663400000005
20
3.1356336000000002
30
0
11
1.2118934000000046
21
2.7856136000000005
31
0
0
LINE
5
191
100
AcDbEntity
8
0
100
AcDbLine
10
1.2118934000000046
20
2.0139136000000004
30
0
11
1.389663400000005
21
1.6652636000000001
31
0
0
LINE
5
192
100
AcDbEntity
8
0
100
AcDbLine
10
1.6666434000000048
20
3.4112435999999997
30
0
11
1.389663400000005
21
3.1356336000000002
31
0
0
LINE
5
193
100
AcDbEntity
8
0
100
AcDbLine
10
127.89329340000002
20
1.1498836000000001
30
0
11
128.2792934
21
1.2118936
31
0
0
LINE
5
194
100
AcDbEntity
8
0
100
AcDbLine
10
2.3997634000000048
20
3.6496536000000006
30
0
11
2.0139134000000047
21
3.5890136000000004
31
0
0
LINE
5
195
100
AcDbEntity
8
0
100
AcDbLine
10
3.4126334000000051
20
3.1356336000000002
30
0
11
3.135633400000005
21
3.4112435999999997
31
0
0
LINE
5
196
100
AcDbEntity
8
0
100
AcDbLine
10
3.5890234000000056
20
2.0139136000000004
30
0
11
3.6496334000000048
21
2.3997636000000004
31
0
0
LWPOLYLINE
5
197
100
AcDbEntity
8
0
100
AcDbPolyline
90
4
70
1
43
0.0
10
311.93729339999999
20
7.4254635999999996
10
311.93729339999999
20
21.426373600000002
10
297.93829340000002
20
21.426373600000002
10
297.93829340000002
20
7.4254635999999996
0
LINE
5
198
100
AcDbEntity
8
0
100
AcDbLine
10
128.62629340000001
20
1.3896636
30
0
11
128.9032934
21
1.6652636000000001
31
0
0
LINE
5
199
100
AcDbEntity
8
0
100
AcDbLine
10
3.5890234000000056
20
2.7856136000000005
30
0
11
3.4126334000000051
21
3.1356336000000002
31
0
0
LINE
5
200
100
AcDbEntity
8
0
100
AcDbLine
10
1.389663400000005
20
1.6652636000000001
30
0
11
1.6666434000000048
21
1.3896636
31
0
0
LINE
5
201
100
AcDbEntity
8
0
100
AcDbLine
10
3.4126334000000051
20
1.6652636000000001
30
0
11
3.5890234000000056
21
2.0139136000000004
31
0
0
LINE
5
202
100
AcDbEntity
8
0
100
AcDbLine
10
2.7869934000000045
20
1.2118936
30
0
11
3.135633400000005
21
1.3896636
31
0
0
LINE
5
203
100
AcDbEntity
8
0
100
AcDbLine
10
2.0139134000000047
20
3.5890136000000004
30
0
11
1.6666434000000048
21
3.4112435999999997
31
0
0
LINE
5
204
100
AcDbEntity
8
0
100
AcDbLine
10
128.9032934
20
3.1356336000000002
30
0
11
128.62629340000001
21
3.4112435999999997
31
0
0
LINE
5
205
100
AcDbEntity
8
0
100
AcDbLine
10
128.9032934
20
1.6652636000000001
30
0
11
129.08129340000002
21
2.0139136000000004
31
0
0
LINE
5
206
100
AcDbEntity
8
0
100
AcDbLine
10
2.3997634000000048
20
1.1498835999999999
30
0
11
2.7869934000000045
21
1.2118936
31
0
0
LINE
5
207
100
AcDbEntity
8
0
100
AcDbLine
10
3.6496334000000048
20
2.3997636000000004
30
0
11
3.5890234000000056
21
2.7856136000000005
31
0
0
LINE
5
208
100
AcDbEntity
8
0
100
AcDbLine
10
129.08129340000002
20
2.0139136000000004
30
0
11
129.1432934
21
2.3997636000000004
31
0
0
LINE
5
209
100
AcDbEntity
8
0
100
AcDbLine
10
1.6666434000000048
20
1.3896636
30
0
11
2.0139134000000047
21
1.2118936
31
0
0
LINE
5
210
100
AcDbEntity
8
0
100
AcDbLine
10
127.89329340000002
20
3.6496536000000006
30
0
11
127.50629340000002
21
3.5890136000000004
31
0
0
LWPOLYLINE
5
211
100
AcDbEntity
8
0
100
AcDbPolyline
90
4
70
1
43
0.0
10
57.431793400000011
20
26.188873600000001
10
57.431793400000011
20
12.187973599999999
10
71.432493399999998
20
12.187973599999999
10
71.432493399999998
20
26.188873600000001
0
LWPOLYLINE
5
212
100
AcDbEntity
8
0
100
AcDbPolyline
90
4
70
1
43
0.0
10
321.75029340000003
20
12.187973599999999
10
335.75129340000001
20
12.187973599999999
10
335.75129340000001
20
26.188873600000001
10
321.75029340000003
20
26.188873600000001
0
LWPOLYLINE
5
213
100
AcDbEntity
8
0
100
AcDbPolyline
90
4
70
1
43
0.0
10
231.26329340000001
20
26.188873600000001
10
231.26329340000001
20
12.187973599999999
10
245.2622934
20
12.187973599999999
10
245.2622934
20
26.188873600000001
0
LWPOLYLINE
5
214
100
AcDbEntity
8
0
100
AcDbPolyline
90
44
70
1
43
0.0
10
360.08029340000002
20
43.988873599999998
10
366.34929339999997
20
43.988873599999998
10
366.34929339999997
20
44.812973599999999
10
369.15029340000001
20
44.812973599999999
10
369.15029340000001
20
43.988873599999998
10
372.38229339999998
20
43.988873599999998
10
372.38229339999998
20
42.263873600000004
10
373.30229340000005
20
42.263873600000004
10
373.30229340000005
20
38.964673599999998
10
372.38229339999998
20
38.964673599999998
10
372.38229339999998
20
37.239173600000001
10
369.15029340000001
20
37.239173600000001
10
369.15029340000001
20
35.713773600000003
10
373.85329339999998
20
35.713773600000003
10
373.85329339999998
20
21.712973600000002
10
369.15029340000001
20
21.712973600000002
10
369.15029340000001
20
20.188873600000001
10
372.38229339999998
20
20.188873600000001
10
372.38229339999998
20
18.463573599999997
10
373.30229340000005
20
18.463573599999997
10
373.30229340000005
20
15.1631736
10
372.38229339999998
20
15.1631736
10
372.38229339999998
20
13.437873600000003
10
369.15029340000001
20
13.437873600000003
10
369.15029340000001
20
12.6137736
10
366.34929339999997
20
12.6137736
10
366.34929339999997
20
13.437873600000003
10
360.08029340000002
20
13.437873600000003
10
360.08029340000002
20
15.1631736
10
359.10029340000006
20
15.1631736
10
359.10029340000006
20
18.463573599999997
10
360.08029340000002
20
18.463573599999997
10
360.08029340000002
20
20.188873600000001
10
364.55029340000004
20
20.188873600000001
10
364.55029340000004
20
21.712973600000002
10
359.85129340000003
20
21.712973600000002
10
359.85129340000003
20
35.713773600000003
10
364.55029340000004
20
35.713773600000003
10
364.55029340000004
20
37.239173600000001
10
360.08029340000002
20
37.239173600000001
10
360.08029340000002
20
38.964673599999998
10
359.10029340000006
20
38.964673599999998
10
359.10029340000006
20
42.263873600000004
10
360.08029340000002
20
42.263873600000004
0
LWPOLYLINE
5
215
100
AcDbEntity
8
0
100
AcDbPolyline
90
4
70
1
43
0.0
10
23.807593400000009
20
26.188873600000001
10
9.8066934000000057
20
26.188873600000001
10
9.8066934000000039
20
12.187973599999999
10
23.807593400000009
20
12.187973599999999
0
LWPOLYLINE
5
216
100
AcDbEntity
8
0
100
AcDbPolyline
90
4
70
1
43
0.0
10
202.68829340000002
20
12.187973599999999
10
216.68729339999999
20
12.187973599999999
10
216.68729339999999
20
26.188873600000001
10
202.68829340000002
20
26.188873600000001
0
LWPOLYLINE
5
217
100
AcDbEntity
8
0
100
AcDbPolyline
90
4
70
1
43
0.0
10
47.618593400000002
20
26.188873600000001
10
33.619193400000007
20
26.188873600000001
10
33.619193400000007
20
12.187973599999999
10
47.618593400000002
20
12.187973599999999
0
LWPOLYLINE
5
218
100
AcDbEntity
8
0
100
AcDbPolyline
90
4
70
1
43
0.0
10
354.80329339999997
20
12.187973599999999
10
354.80329339999997
20
26.188873600000001
10
340.80029340000004
20
26.188873600000001
10
340.80029340000004
20
12.187973599999999
0
LWPOLYLINE
5
219
100
AcDbEntity
8
0
100
AcDbPolyline
90
44
70
1
43
0.0
10
12.781893400000005
20
31.468073600000004
10
11.056593400000004
20
31.468073600000004
10
11.056593400000004
20
37.7380736
10
10.232493400000005
20
37.7380736
10
10.232493400000005
20
40.5383736
10
11.056593400000004
20
40.5383736
10
11.056593400000004
20
43.7684736
10
12.781893400000005
20
43.7684736
10
12.781893400000005
20
44.6877736
10
16.082293400000005
20
44.6877736
10
16.082293400000005
20
43.7684736
10
17.807593400000005
20
43.7684736
10
17.807593400000005
20
40.5383736
10
19.331693400000006
20
40.5383736
10
19.331693400000006
20
45.238773600000002
10
33.332593400000007
20
45.238773600000002
10
33.332593400000007
20
40.5383736
10
34.856693400000012
20
40.5383736
10
34.856693400000012
20
43.7684736
10
36.581993400000009
20
43.7684736
10
36.581993400000009
20
44.6877736
10
39.882593400000012
20
44.6877736
10
39.882593400000012
20
43.7684736
10
41.607593399999999
20
43.7684736
10
41.607593399999999
20
40.5383736
10
42.431693400000007
20
40.5383736
10
42.431693400000007
20
37.7380736
10
41.607593399999999
20
37.7380736
10
41.607593399999999
20
31.468073600000004
10
39.882593400000012
20
31.468073600000004
10
39.882593400000012
20
30.488273599999999
10
36.581993400000009
20
30.488273599999999
10
36.581993400000009
20
31.468073600000004
10
34.856693400000012
20
31.468073600000004
10
34.856693400000012
20
35.938473600000002
10
33.332593400000007
20
35.938473600000002
10
33.332593400000007
20
31.237973600000004
10
19.331693400000006
20
31.237973600000004
10
19.331693400000006
20
35.938473600000002
10
17.807593400000005
20
35.938473600000002
10
17.807593400000005
20
31.468073600000004
10
16.082293400000005
20
31.468073600000004
10
16.082293400000005
20
30.488273599999999
10
12.781893400000005
20
30.488273599999999
0
LWPOLYLINE
5
220
100
AcDbEntity
8
0
100
AcDbPolyline
90
4
70
1
43
0.0
10
292.88729339999998
20
40.476273599999999
10
278.88829340000001
20
40.476273599999999
10
278.88829340000001
20
26.475473600000001
10
292.88729339999998
20
26.475473600000001
0
LWPOLYLINE
5
221
100
AcDbEntity
8
0
100
AcDbPolyline
90
4
70
1
43
0.0
10
78.576293399999997
20
102.38907360000002
10
64.575593400000002
20
102.38907360000002
10
64.575593400000002
20
88.386673600000009
10
78.576293399999997
20
88.386673600000009
0
LWPOLYLINE
5
222
100
AcDbEntity
8
0
100
AcDbPolyline
90
4
70
1
43
0.0
10
311.93729339999999
20
93.150573600000001
10
311.93729339999999
20
107.15107360000002
10
297.93829340000002
20
107.15107360000002
10
297.93829340000002
20
93.150573600000001
0
LWPOLYLINE
5
223
100
AcDbEntity
8
0
100
AcDbPolyline
90
4
70
1
43
0.0
10
373.85329339999998
20
102.38907360000002
10
359.85129340000003
20
102.38907360000002
10
359.85129340000003
20
88.386673600000009
10
373.85329339999998
20
88.386673600000009
0
LWPOLYLINE
5
224
100
AcDbEntity
8
0
100
AcDbPolyline
90
4
70
1
43
0.0
10
354.80329339999997
20
102.38907360000002
10
340.80029340000004
20
102.38907360000002
10
340.80029340000004
20
88.386673600000009
10
354.80329339999997
20
88.386673600000009
0
LWPOLYLINE
5
225
100
AcDbEntity
8
0
100
AcDbPolyline
90
4
70
1
43
0.0
10
21.426393400000006
20
126.20107360000003
10
7.4254834000000045
20
126.20107360000003
10
7.4254834000000036
20
112.20107360000002
10
21.426393400000006
20
112.20107360000002
0
LWPOLYLINE
5
226
100
AcDbEntity
8
0
100
AcDbPolyline
90
44
70
1
43
0.0
10
278.60129340000003
20
102.38907360000002
10
278.60129340000003
20
97.689773600000009
10
280.12529340000003
20
97.689773600000009
10
280.12529340000003
20
100.91807360000001
10
281.85029340000006
20
100.91807360000001
10
281.85029340000006
20
101.8380736
10
285.15129340000004
20
101.8380736
10
285.15129340000004
20
100.91807360000001
10
286.87629340000001
20
100.91807360000001
10
286.87629340000001
20
97.689773600000009
10
287.70029340000002
20
97.689773600000009
10
287.70029340000002
20
94.888073600000013
10
286.87629340000001
20
94.888073600000013
10
286.87629340000001
20
88.618073600000002
10
285.15129340000004
20
88.618073600000002
10
285.15129340000004
20
87.638473600000012
10
281.85029340000006
20
87.638473600000012
10
281.85029340000006
20
88.618073600000002
10
280.12529340000003
20
88.618073600000002
10
280.12529340000003
20
93.088473600000015
10
278.60129340000003
20
93.088473600000015
10
278.60129340000003
20
88.388073600000013
10
264.60029340000006
20
88.388073600000013
10
264.60029340000006
20
93.088473600000015
10
263.0762934
20
93.088473600000015
10
263.0762934
20
88.618073600000002
10
261.35129340000003
20
88.618073600000002
10
261.35129340000003
20
87.638473600000012
10
258.05029340000004
20
87.638473600000012
10
258.05029340000004
20
88.618073600000002
10
256.32529340000002
20
88.618073600000002
10
256.32529340000002
20
94.888073600000013
10
255.50129340000001
20
94.888073600000013
10
255.50129340000001
20
97.689773600000009
10
256.32529340000002
20
97.689773600000009
10
256.32529340000002
20
100.91807360000001
10
258.05029340000004
20
100.91807360000001
10
258.05029340000004
20
101.8380736
10
261.35129340000003
20
101.8380736
10
261.35129340000003
20
100.91807360000001
10
263.0762934
20
100.91807360000001
10
263.0762934
20
97.689773600000009
10
264.60029340000006
20
97.689773600000009
10
264.60029340000006
20
102.38907360000002
0
LWPOLYLINE
5
227
100
AcDbEntity
8
0
100
AcDbPolyline
90
80
70
1
43
0.0
10
295.74829340000002
20
81.420773600000018
10
295.81129340000001
20
81.392873600000001
10
295.87129340000001
20
81.358673600000003
10
295.9272934
20
81.321273599999998
10
295.9822934
20
81.278573600000016
10
296.03229340000001
20
81.231673600000022
10
296.07929339999998
20
81.180873600000012
10
296.12129340000001
20
81.127273600000009
10
296.16029340000006
20
81.070473600000014
10
296.19329340000002
20
81.010073599999998
10
296.22229340000001
20
80.948073600000015
10
296.24629340000001
20
80.883073600000017
10
296.26429339999999
20
80.817173600000004
10
296.27729340000002
20
80.750873600000006
10
296.28529340000006
20
80.68207360000001
10
296.28829340000004
20
80.613273600000014
10
296.28529340000006
20
80.544073600000004
10
296.27729340000002
20
80.476673599999998
10
296.26429339999999
20
80.40897360000001
10
296.24629340000001
20
80.342973600000022
10
296.22229340000001
20
80.278073599999999
10
296.19329340000002
20
80.216373600000011
10
296.16029340000006
20
80.157073600000018
10
296.12129340000001
20
80.099273600000004
10
296.07929339999998
20
80.045273600000002
10
296.03229340000001
20
79.994473600000006
10
295.9822934
20
79.948973600000002
10
295.9272934
20
79.904873600000002
10
295.87129340000001
20
79.867473599999997
10
295.81129340000001
20
79.833273599999998
10
295.74829340000002
20
79.805373599999996
10
295.68329340000003
20
79.7806736
10
295.61729339999999
20
79.762673599999999
10
295.54929340000001
20
79.748973599999999
10
295.4822934
20
79.740773599999997
10
295.41329340000004
20
79.737973600000004
10
295.34429340000003
20
79.740773599999997
10
295.27729340000002
20
79.748973599999999
10
295.20929340000004
20
79.762673599999999
10
295.1432934
20
79.7806736
10
295.07829340000001
20
79.805373599999996
10
295.0162934
20
79.833273599999998
10
294.95629339999999
20
79.867473599999997
10
294.89929340000003
20
79.904873600000002
10
294.8452934
20
79.948973600000002
10
294.79529340000005
20
79.994473600000006
10
294.74829340000002
20
80.045273600000002
10
294.70629339999999
20
80.099273600000004
10
294.66629340000003
20
80.157073600000018
10
294.63329340000001
20
80.216373600000011
10
294.60429340000002
20
80.278073599999999
10
294.58129339999999
20
80.342973600000022
10
294.56329340000002
20
80.40897360000001
10
294.54929340000001
20
80.476673599999998
10
294.54129340000003
20
80.544073600000004
10
294.53829340000004
20
80.613273600000014
10
294.54129340000003
20
80.68207360000001
10
294.54929340000001
20
80.750873600000006
10
294.56329340000002
20
80.817173600000004
10
294.58129339999999
20
80.883073600000017
10
294.60429340000002
20
80.948073600000015
10
294.63329340000001
20
81.010073599999998
10
294.66629340000003
20
81.070473600000014
10
294.70629339999999
20
81.127273600000009
10
294.74829340000002
20
81.180873600000012
10
294.79529340000005
20
81.231673600000022
10
294.8452934
20
81.278573600000016
10
294.89929340000003
20
81.321273599999998
10
294.95629339999999
20
81.358673600000003
10
295.0162934
20
81.392873600000001
10
295.07829340000001
20
81.420773600000018
10
295.1432934
20
81.445473600000014
10
295.20929340000004
20
81.464873600000018
10
295.27729340000002
20
81.477173600000015
10
295.34429340000003
20
81.485273600000014
10
295.41329340000004
20
81.48817360000001
10
295.4822934
20
81.485273600000014
10
295.54929340000001
20
81.477173600000015
10
295.61729339999999
20
81.464873600000018
10
295.68329340000003
20
81.445473600000014
0
LWPOLYLINE
5
228
100
AcDbEntity
8
0
100
AcDbPolyline
90
4
70
1
43
0.0
10
192.87629340000001
20
102.38907360000002
10
178.87529340000003
20
102.38907360000002
10
178.87529340000003
20
88.386673600000009
10
192.87629340000001
20
88.386673600000009
0
LWPOLYLINE
5
229
100
AcDbEntity
8
0
100
AcDbPolyline
90
4
70
1
43
0.0
10
250.02629340000001
20
88.386673600000009
10
250.02629340000001
20
102.38907360000002
10
236.02529340000004
20
102.38907360000002
10
236.02529340000004
20
88.386673600000009
0
LWPOLYLINE
5
230
100
AcDbEntity
8
0
100
AcDbPolyline
90
4
70
1
43
0.0
10
83.625593400000014
20
88.386673600000009
10
97.626293400000009
20
88.386673600000009
10
97.626293400000009
20
102.38907360000002
10
83.625593400000014
20
102.38907360000002
0
LWPOLYLINE
5
231
100
AcDbEntity
8
0
100
AcDbPolyline
90
4
70
1
43
0.0
10
135.72629339999997
20
102.38907360000002
10
121.7252934
20
102.38907360000002
10
121.7252934
20
88.386673600000009
10
135.72629339999997
20
88.386673600000009
0
LWPOLYLINE
5
232
100
AcDbEntity
8
0
100
AcDbPolyline
90
4
70
1
43
0.0
10
197.92529340000004
20
102.38907360000002
10
197.92529340000004
20
88.386673600000009
10
211.92629340000002
20
88.386673600000009
10
211.92629340000002
20
102.38907360000002
0
LWPOLYLINE
5
233
100
AcDbEntity
8
0
100
AcDbPolyline
90
4
70
1
43
0.0
10
140.77529340000001
20
102.38907360000002
10
140.77529340000001
20
88.386673600000009
10
154.77629339999999
20
88.386673600000009
10
154.77629339999999
20
102.38907360000002
0
LWPOLYLINE
5
234
100
AcDbEntity
8
0
100
AcDbPolyline
90
4
70
1
43
0.0
10
230.9762934
20
102.38907360000002
10
216.97529340000003
20
102.38907360000002
10
216.97529340000003
20
88.386673600000009
10
230.9762934
20
88.386673600000009
0
LWPOLYLINE
5
235
100
AcDbEntity
8
0
100
AcDbPolyline
90
4
70
1
43
0.0
10
116.67529340000002
20
102.38907360000002
10
102.67529340000002
20
102.38907360000002
10
102.67529340000002
20
88.386673600000009
10
116.67529340000002
20
88.386673600000009
0
LWPOLYLINE
5
236
100
AcDbEntity
8
0
100
AcDbPolyline
90
80
70
1
43
0.0
10
294.58129339999999
20
66.595573599999994
10
294.60429340000002
20
66.660573600000006
10
294.63329340000001
20
66.723673599999998
10
294.66629340000003
20
66.782973600000005
10
294.70629339999999
20
66.839773600000001
10
294.74829340000002
20
66.894773600000008
10
294.79529340000005
20
66.944173599999999
10
294.8452934
20
66.991073600000007
10
294.89929340000003
20
67.033773600000004
10
294.95629339999999
20
67.072573599999998
10
295.0162934
20
67.105373600000007
10
295.07829340000001
20
67.134673599999999
10
295.1432934
20
67.157973600000005
10
295.20929340000004
20
67.175973600000006
10
295.27729340000002
20
67.189673600000006
10
295.34429340000003
20
67.197773600000005
10
295.41329340000004
20
67.200673600000002
10
295.4822934
20
67.197773600000005
10
295.54929340000001
20
67.189673600000006
10
295.61729339999999
20
67.175973600000006
10
295.68329340000003
20
67.157973600000005
10
295.74829340000002
20
67.134673599999999
10
295.81129340000001
20
67.105373600000007
10
295.87129340000001
20
67.072573599999998
10
295.9272934
20
67.033773600000004
10
295.9822934
20
66.991073600000007
10
296.03229340000001
20
66.944173599999999
10
296.07929339999998
20
66.894773600000008
10
296.12129340000001
20
66.839773600000001
10
296.16029340000006
20
66.782973600000005
10
296.19329340000002
20
66.723673599999998
10
296.22229340000001
20
66.660573600000006
10
296.24629340000001
20
66.595573599999994
10
296.26429339999999
20
66.531073599999999
10
296.27729340000002
20
66.461873600000004
10
296.28529340000006
20
66.394573600000001
10
296.28829340000004
20
66.325773600000005
10
296.28529340000006
20
66.256573599999996
10
296.27729340000002
20
66.189173600000004
10
296.26429339999999
20
66.121473600000002
10
296.24629340000001
20
66.055473599999999
10
296.22229340000001
20
65.990573600000005
10
296.19329340000002
20
65.928873600000003
10
296.16029340000006
20
65.868173600000006
10
296.12129340000001
20
65.811773599999995
10
296.07929339999998
20
65.757773600000007
10
296.03229340000001
20
65.706973599999998
10
295.9822934
20
65.660073600000004
10
295.9272934
20
65.618773599999997
10
295.87129340000001
20
65.578573599999999
10
295.81129340000001
20
65.545773600000004
10
295.74829340000002
20
65.516773600000008
10
295.68329340000003
20
65.493173600000006
10
295.61729339999999
20
65.475173600000005
10
295.54929340000001
20
65.461473600000005
10
295.4822934
20
65.453273600000003
10
295.41329340000004
20
65.450473599999995
10
295.34429340000003
20
65.453273600000003
10
295.27729340000002
20
65.461473600000005
10
295.20929340000004
20
65.475173600000005
10
295.1432934
20
65.493173600000006
10
295.07829340000001
20
65.516773600000008
10
295.0162934
20
65.545773600000004
10
294.95629339999999
20
65.578573599999999
10
294.89929340000003
20
65.618773599999997
10
294.8452934
20
65.660073600000004
10
294.79529340000005
20
65.706973599999998
10
294.74829340000002
20
65.757773600000007
10
294.70629339999999
20
65.811773599999995
10
294.66629340000003
20
65.868173600000006
10
294.63329340000001
20
65.928873600000003
10
294.60429340000002
20
65.990573600000005
10
294.58129339999999
20
66.055473599999999
10
294.56329340000002
20
66.121473600000002
10
294.54929340000001
20
66.189173600000004
10
294.54129340000003
20
66.256573599999996
10
294.53829340000004
20
66.325773600000005
10
294.54129340000003
20
66.394573600000001
10
294.54929340000001
20
66.461873600000004
10
294.56329340000002
20
66.531073599999999
0
LWPOLYLINE
5
237
100
AcDbEntity
8
0
100
AcDbPolyline
90
4
70
1
43
0.0
10
7.4254834000000036
20
136.01207360000001
10
21.426393400000006
20
136.01207360000001
10
21.426393400000006
20
150.01407359999999
10
7.4254834000000045
20
150.01407359999999
0
LWPOLYLINE
5
238
100
AcDbEntity
8
0
100
AcDbPolyline
90
4
70
1
43
0.0
10
193.16329340000004
20
136.01207360000001
10
207.16229340000001
20
136.01207360000001
10
207.16229340000001
20
150.01407359999999
10
193.16329340000004
20
150.01407359999999
0
LWPOLYLINE
5
239
100
AcDbEntity
8
0
100
AcDbPolyline
90
4
70
1
43
0.0
10
216.97529340000003
20
150.01407359999999
10
216.97529340000003
20
136.01207360000001
10
230.9762934
20
136.01207360000001
10
230.9762934
20
150.01407359999999
0
LWPOLYLINE
5
240
100
AcDbEntity
8
0
100
AcDbPolyline
90
4
70
1
43
0.0
10
255.07529340000002
20
150.01407359999999
10
255.07529340000002
20
136.01207360000001
10
269.0762934
20
136.01207360000001
10
269.0762934
20
150.01407359999999
0
LWPOLYLINE
5
241
100
AcDbEntity
8
0
100
AcDbPolyline
90
4
70
1
43
0.0
10
311.93729339999999
20
150.01407359999999
10
297.93829340000002
20
150.01407359999999
10
297.93829340000002
20
136.01207360000001
10
311.93729339999999
20
136.01207360000001
0
LWPOLYLINE
5
242
100
AcDbEntity
8
0
100
AcDbPolyline
90
4
70
1
43
0.0
10
278.88829340000001
20
136.01207360000001
10
292.88729339999998
20
136.01207360000001
10
292.88729339999998
20
150.01407359999999
10
278.88829340000001
20
150.01407359999999
0
LWPOLYLINE
5
243
100
AcDbEntity
8
0
100
AcDbPolyline
90
4
70
1
43
0.0
10
330.9872934
20
150.01407359999999
10
316.98829340000003
20
150.01407359999999
10
316.98829340000003
20
136.01207360000001
10
330.9872934
20
136.01207360000001
0
LWPOLYLINE
5
244
100
AcDbEntity
8
0
100
AcDbPolyline
90
4
70
1
43
0.0
10
45.237393400000002
20
150.01407359999999
10
31.237993400000008
20
150.01407359999999
10
31.237993400000008
20
136.01207360000001
10
45.237393400000002
20
136.01207360000001
0
LWPOLYLINE
5
245
100
AcDbEntity
8
0
100
AcDbPolyline
90
4
70
1
43
0.0
10
69.338093400000005
20
150.01407359999999
10
69.338093400000005
20
136.01207360000001
10
83.337393399999996
20
136.01207360000001
10
83.337393399999996
20
150.01407359999999
0
LWPOLYLINE
5
246
100
AcDbEntity
8
0
100
AcDbPolyline
90
4
70
1
43
0.0
10
107.15129340000001
20
150.01407359999999
10
93.15059340000002
20
150.01407359999999
10
93.15059340000002
20
136.01207360000001
10
107.15129340000001
20
136.01207360000001
0
LWPOLYLINE
5
247
100
AcDbEntity
8
0
100
AcDbPolyline
90
4
70
1
43
0.0
10
236.02529340000004
20
150.01407359999999
10
236.02529340000004
20
136.01207360000001
10
250.02629340000001
20
136.01207360000001
10
250.02629340000001
20
150.01407359999999
0
LWPOLYLINE
5
248
100
AcDbEntity
8
0
100
AcDbPolyline
90
4
70
1
43
0.0
10
112.20029339999999
20
136.01207360000001
10
126.2012934
20
136.01207360000001
10
126.2012934
20
150.01407359999999
10
112.20029339999999
20
150.01407359999999
0
LWPOLYLINE
5
249
100
AcDbEntity
8
0
100
AcDbPolyline
90
4
70
1
43
0.0
10
64.287393399999999
20
136.01207360000001
10
64.287393399999999
20
150.01407359999999
10
50.288093400000008
20
150.01407359999999
10
50.288093400000008
20
136.01207360000001
0
LINE
5
250
100
AcDbEntity
8
0
100
AcDbLine
10
127.89329340000002
20
156.28807359999999
30
0
11
127.50629340000002
21
156.22707360000004
31
0
0
LWPOLYLINE
5
251
100
AcDbEntity
8
0
100
AcDbPolyline
90
4
70
1
43
0.0
10
350.03729340000001
20
150.01407359999999
10
336.03829339999999
20
150.01407359999999
10
336.03829339999999
20
136.01207360000001
10
350.03729340000001
20
136.01207360000001
0
LWPOLYLINE
5
252
100
AcDbEntity
8
0
100
AcDbPolyline
90
4
70
1
43
0.0
10
373.85329339999998
20
136.01207360000001
10
373.85329339999998
20
150.01407359999999
10
359.85129340000003
20
150.01407359999999
10
359.85129340000003
20
136.01207360000001
0
LWPOLYLINE
5
253
100
AcDbEntity
8
0
100
AcDbPolyline
90
4
70
1
43
0.0
10
155.06329340000002
20
150.01407359999999
10
155.06329340000002
20
136.01207360000001
10
169.06229339999999
20
136.01207360000001
10
169.06229339999999
20
150.01407359999999
0
LWPOLYLINE
5
254
100
AcDbEntity
8
0
100
AcDbPolyline
90
4
70
1
43
0.0
10
188.1122934
20
150.01407359999999
10
174.11329340000003
20
150.01407359999999
10
174.11329340000003
20
136.01207360000001
10
188.1122934
20
136.01207360000001
0
LWPOLYLINE
5
255
100
AcDbEntity
8
0
100
AcDbPolyline
90
4
70
1
43
0.0
10
359.85129340000003
20
126.20107360000003
10
359.85129340000003
20
112.20107360000002
10
373.85329339999998
20
112.20107360000002
10
373.85329339999998
20
126.20107360000003
0
LWPOLYLINE
5
256
100
AcDbEntity
8
0
100
AcDbPolyline
90
4
70
1
43
0.0
10
131.2502934
20
150.01407359999999
10
131.2502934
20
136.01207360000001
10
145.25129340000001
20
136.01207360000001
10
145.25129340000001
20
150.01407359999999
0
LINE
5
257
100
AcDbEntity
8
0
100
AcDbLine
10
128.2792934
20
156.22707360000004
30
0
11
127.89329340000002
21
156.28807359999999
31
0
0
LINE
5
258
100
AcDbEntity
8
0
100
AcDbLine
10
126.7042934
20
154.65207359999999
30
0
11
126.8802934
21
154.30407360000001
31
0
0
LINE
5
259
100
AcDbEntity
8
0
100
AcDbLine
10
127.89329340000002
20
153.78807359999999
30
0
11
128.2792934
21
153.8500736
31
0
0
LINE
5
260
100
AcDbEntity
8
0
100
AcDbLine
10
252.65029340000007
20
154.02707359999999
30
0
11
252.99729339999999
21
153.8500736
31
0
0
LINE
5
261
100
AcDbEntity
8
0
100
AcDbLine
10
252.19529340000003
20
155.42507359999999
30
0
11
252.13329340000001
21
155.03807359999999
31
0
0
LINE
5
262
100
AcDbEntity
8
0
100
AcDbLine
10
378.1432934
20
156.04907360000001
30
0
11
377.86429340000007
21
155.7720736
31
0
0
LINE
5
263
100
AcDbEntity
8
0
100
AcDbLine
10
377.86429340000007
20
155.7720736
30
0
11
377.68729339999999
21
155.42507359999999
31
0
0
LINE
5
264
100
AcDbEntity
8
0
100
AcDbLine
10
253.77029340000004
20
153.8500736
30
0
11
254.1192934
21
154.02707359999999
31
0
0
LINE
5
265
100
AcDbEntity
8
0
100
AcDbLine
10
129.08129340000002
20
154.65207359999999
30
0
11
129.1432934
21
155.03807359999999
31
0
0
LINE
5
266
100
AcDbEntity
8
0
100
AcDbLine
10
128.2792934
20
153.8500736
30
0
11
128.62629340000001
21
154.02707359999999
31
0
0
LINE
5
267
100
AcDbEntity
8
0
100
AcDbLine
10
127.15729340000001
20
154.02707359999999
30
0
11
127.50629340000002
21
153.8500736
31
0
0
LINE
5
268
100
AcDbEntity
8
0
100
AcDbLine
10
126.8802934
20
155.7720736
30
0
11
126.7042934
21
155.42507359999999
31
0
0
LINE
5
269
100
AcDbEntity
8
0
100
AcDbLine
10
129.08129340000002
20
155.42507359999999
30
0
11
128.9032934
21
155.7720736
31
0
0
LINE
5
270
100
AcDbEntity
8
0
100
AcDbLine
10
252.19529340000003
20
154.65207359999999
30
0
11
252.37229339999999
21
154.30407360000001
31
0
0
LINE
5
271
100
AcDbEntity
8
0
100
AcDbLine
10
252.99729339999999
20
153.8500736
30
0
11
253.38429340000002
21
153.78807359999999
31
0
0
LINE
5
272
100
AcDbEntity
8
0
100
AcDbLine
10
254.39629340000005
20
155.7720736
30
0
11
254.1192934
21
156.04907360000001
31
0
0
LINE
5
273
100
AcDbEntity
8
0
100
AcDbLine
10
253.77029340000004
20
156.22707360000004
30
0
11
253.38429340000002
21
156.28807359999999
31
0
0
LINE
5
274
100
AcDbEntity
8
0
100
AcDbLine
10
254.1192934
20
156.04907360000001
30
0
11
253.77029340000004
21
156.22707360000004
31
0
0
LINE
5
275
100
AcDbEntity
8
0
100
AcDbLine
10
128.9032934
20
155.7720736
30
0
11
128.62629340000001
21
156.04907360000001
31
0
0
LINE
5
276
100
AcDbEntity
8
0
100
AcDbLine
10
127.50629340000002
20
153.8500736
30
0
11
127.89329340000002
21
153.78807359999999
31
0
0
LINE
5
277
100
AcDbEntity
8
0
100
AcDbLine
10
253.38429340000002
20
156.28807359999999
30
0
11
252.99729339999999
21
156.22707360000004
31
0
0
LINE
5
278
100
AcDbEntity
8
0
100
AcDbLine
10
252.65029340000007
20
156.04907360000001
30
0
11
252.37229339999999
21
155.7720736
31
0
0
LINE
5
279
100
AcDbEntity
8
0
100
AcDbLine
10
129.1432934
20
155.03807359999999
30
0
11
129.08129340000002
21
155.42507359999999
31
0
0
LINE
5
280
100
AcDbEntity
8
0
100
AcDbLine
10
252.37229339999999
20
155.7720736
30
0
11
252.19529340000003
21
155.42507359999999
31
0
0
LINE
5
281
100
AcDbEntity
8
0
100
AcDbLine
10
126.64329340000002
20
155.03807359999999
30
0
11
126.7042934
21
154.65207359999999
31
0
0
LINE
5
282
100
AcDbEntity
8
0
100
AcDbLine
10
377.68729339999999
20
155.42507359999999
30
0
11
377.62729339999999
21
155.03807359999999
31
0
0
LINE
5
283
100
AcDbEntity
8
0
100
AcDbLine
10
128.62629340000001
20
154.02707359999999
30
0
11
128.9032934
21
154.30407360000001
31
0
0
LINE
5
284
100
AcDbEntity
8
0
100
AcDbLine
10
128.9032934
20
154.30407360000001
30
0
11
129.08129340000002
21
154.65207359999999
31
0
0
LINE
5
285
100
AcDbEntity
8
0
100
AcDbLine
10
377.68729339999999
20
154.65207359999999
30
0
11
377.86429340000007
21
154.30407360000001
31
0
0
LINE
5
286
100
AcDbEntity
8
0
100
AcDbLine
10
254.1192934
20
154.02707359999999
30
0
11
254.39629340000005
21
154.30407360000001
31
0
0
LINE
5
287
100
AcDbEntity
8
0
100
AcDbLine
10
379.88929340000004
20
154.30407360000001
30
0
11
380.06529339999997
21
154.65207359999999
31
0
0
LINE
5
288
100
AcDbEntity
8
0
100
AcDbLine
10
127.50629340000002
20
156.22707360000004
30
0
11
127.15729340000001
21
156.04907360000001
31
0
0
LINE
5
289
100
AcDbEntity
8
0
100
AcDbLine
10
128.62629340000001
20
156.04907360000001
30
0
11
128.2792934
21
156.22707360000004
31
0
0
LINE
5
290
100
AcDbEntity
8
0
100
AcDbLine
10
252.37229339999999
20
154.30407360000001
30
0
11
252.65029340000007
21
154.02707359999999
31
0
0
LINE
5
291
100
AcDbEntity
8
0
100
AcDbLine
10
126.7042934
20
155.42507359999999
30
0
11
126.64329340000002
21
155.03807359999999
31
0
0
LINE
5
292
100
AcDbEntity
8
0
100
AcDbLine
10
254.57229340000001
20
155.42507359999999
30
0
11
254.39629340000005
21
155.7720736
31
0
0
LINE
5
293
100
AcDbEntity
8
0
100
AcDbLine
10
254.57229340000001
20
154.65207359999999
30
0
11
254.63429340000002
21
155.03807359999999
31
0
0
LINE
5
294
100
AcDbEntity
8
0
100
AcDbLine
10
378.1432934
20
154.02707359999999
30
0
11
378.48829339999998
21
153.8500736
31
0
0
LINE
5
295
100
AcDbEntity
8
0
100
AcDbLine
10
377.86429340000007
20
154.30407360000001
30
0
11
378.1432934
21
154.02707359999999
31
0
0
LINE
5
296
100
AcDbEntity
8
0
100
AcDbLine
10
254.63429340000002
20
155.03807359999999
30
0
11
254.57229340000001
21
155.42507359999999
31
0
0
LINE
5
297
100
AcDbEntity
8
0
100
AcDbLine
10
254.39629340000005
20
154.30407360000001
30
0
11
254.57229340000001
21
154.65207359999999
31
0
0
LINE
5
298
100
AcDbEntity
8
0
100
AcDbLine
10
126.8802934
20
154.30407360000001
30
0
11
127.15729340000001
21
154.02707359999999
31
0
0
LINE
5
299
100
AcDbEntity
8
0
100
AcDbLine
10
377.62729339999999
20
155.03807359999999
30
0
11
377.68729339999999
21
154.65207359999999
31
0
0
LINE
5
300
100
AcDbEntity
8
0
100
AcDbLine
10
252.13329340000001
20
155.03807359999999
30
0
11
252.19529340000003
21
154.65207359999999
31
0
0
LINE
5
301
100
AcDbEntity
8
0
100
AcDbLine
10
378.48829339999998
20
153.8500736
30
0
11
378.87629340000001
21
153.78807359999999
31
0
0
LINE
5
302
100
AcDbEntity
8
0
100
AcDbLine
10
379.61029340000005
20
154.02707359999999
30
0
11
379.88929340000004
21
154.30407360000001
31
0
0
LINE
5
303
100
AcDbEntity
8
0
100
AcDbLine
10
378.48829339999998
20
156.22707360000004
30
0
11
378.1432934
21
156.04907360000001
31
0
0
LINE
5
304
100
AcDbEntity
8
0
100
AcDbLine
10
252.99729339999999
20
156.22707360000004
30
0
11
252.65029340000007
21
156.04907360000001
31
0
0
LINE
5
305
100
AcDbEntity
8
0
100
AcDbLine
10
378.87629340000001
20
153.78807359999999
30
0
11
379.26429340000004
21
153.8500736
31
0
0
LINE
5
306
100
AcDbEntity
8
0
100
AcDbLine
10
127.15729340000001
20
156.04907360000001
30
0
11
126.8802934
21
155.7720736
31
0
0
LINE
5
307
100
AcDbEntity
8
0
100
AcDbLine
10
1.1498834000000047
20
155.03807359999999
30
0
11
1.2118934000000046
21
154.65207359999999
31
0
0
LINE
5
308
100
AcDbEntity
8
0
100
AcDbLine
10
2.0139134000000047
20
153.8500736
30
0
11
2.3997634000000048
21
153.78807359999999
31
0
0
LINE
5
309
100
AcDbEntity
8
0
100
AcDbLine
10
379.26429340000004
20
153.8500736
30
0
11
379.61029340000005
21
154.02707359999999
31
0
0
LINE
5
310
100
AcDbEntity
8
0
100
AcDbLine
10
1.2118934000000046
20
155.42507359999999
30
0
11
1.1498834000000047
21
155.03807359999999
31
0
0
LINE
5
311
100
AcDbEntity
8
0
100
AcDbLine
10
378.87629340000001
20
156.28807359999999
30
0
11
378.48829339999998
21
156.22707360000004
31
0
0
LINE
5
312
100
AcDbEntity
8
0
100
AcDbLine
10
3.6496334000000048
20
155.03807359999999
30
0
11
3.5890234000000056
21
155.42507359999999
31
0
0
LINE
5
313
100
AcDbEntity
8
0
100
AcDbLine
10
380.06529339999997
20
154.65207359999999
30
0
11
380.12529340000003
21
155.03807359999999
31
0
0
LINE
5
314
100
AcDbEntity
8
0
100
AcDbLine
10
3.4126334000000051
20
154.30407360000001
30
0
11
3.5890234000000056
21
154.65207359999999
31
0
0
LINE
5
315
100
AcDbEntity
8
0
100
AcDbLine
10
1.6666434000000048
20
156.04907360000001
30
0
11
1.389663400000005
21
155.7720736
31
0
0
LINE
5
316
100
AcDbEntity
8
0
100
AcDbLine
10
1.6666434000000048
20
154.02707359999999
30
0
11
2.0139134000000047
21
153.8500736
31
0
0
LINE
5
317
100
AcDbEntity
8
0
100
AcDbLine
10
1.389663400000005
20
155.7720736
30
0
11
1.2118934000000046
21
155.42507359999999
31
0
0
LINE
5
318
100
AcDbEntity
8
0
100
AcDbLine
10
380.12529340000003
20
155.03807359999999
30
0
11
380.06529339999997
21
155.42507359999999
31
0
0
LINE
5
319
100
AcDbEntity
8
0
100
AcDbLine
10
253.38429340000002
20
153.78807359999999
30
0
11
253.77029340000004
21
153.8500736
31
0
0
LINE
5
320
100
AcDbEntity
8
0
100
AcDbLine
10
3.135633400000005
20
156.04907360000001
30
0
11
2.7869934000000045
21
156.22707360000004
31
0
0
LINE
5
321
100
AcDbEntity
8
0
100
AcDbLine
10
380.06529339999997
20
155.42507359999999
30
0
11
379.88929340000004
21
155.7720736
31
0
0
LINE
5
322
100
AcDbEntity
8
0
100
AcDbLine
10
2.7869934000000045
20
156.22707360000004
30
0
11
2.3997634000000048
21
156.28807359999999
31
0
0
LINE
5
323
100
AcDbEntity
8
0
100
AcDbLine
10
2.7869934000000045
20
153.8500736
30
0
11
3.135633400000005
21
154.02707359999999
31
0
0
LINE
5
324
100
AcDbEntity
8
0
100
AcDbLine
10
2.3997634000000048
20
153.78807359999999
30
0
11
2.7869934000000045
21
153.8500736
31
0
0
LINE
5
325
100
AcDbEntity
8
0
100
AcDbLine
10
379.61029340000005
20
156.04907360000001
30
0
11
379.26429340000004
21
156.22707360000004
31
0
0
LINE
5
326
100
AcDbEntity
8
0
100
AcDbLine
10
1.2118934000000046
20
154.65207359999999
30
0
11
1.389663400000005
21
154.30407360000001
31
0
0
LINE
5
327
100
AcDbEntity
8
0
100
AcDbLine
10
3.5890234000000056
20
155.42507359999999
30
0
11
3.4126334000000051
21
155.7720736
31
0
0
LINE
5
328
100
AcDbEntity
8
0
100
AcDbLine
10
3.4126334000000051
20
155.7720736
30
0
11
3.135633400000005
21
156.04907360000001
31
0
0
LINE
5
329
100
AcDbEntity
8
0
100
AcDbLine
10
1.389663400000005
20
154.30407360000001
30
0
11
1.6666434000000048
21
154.02707359999999
31
0
0
LINE
5
330
100
AcDbEntity
8
0
100
AcDbLine
10
3.135633400000005
20
154.02707359999999
30
0
11
3.4126334000000051
21
154.30407360000001
31
0
0
LINE
5
331
100
AcDbEntity
8
0
100
AcDbLine
10
3.5890234000000056
20
154.65207359999999
30
0
11
3.6496334000000048
21
155.03807359999999
31
0
0
LINE
5
332
100
AcDbEntity
8
0
100
AcDbLine
10
379.26429340000004
20
156.22707360000004
30
0
11
378.87629340000001
21
156.28807359999999
31
0
0
LINE
5
333
100
AcDbEntity
8
0
100
AcDbLine
10
2.3997634000000048
20
156.28807359999999
30
0
11
2.0139134000000047
21
156.22707360000004
31
0
0
LINE
5
334
100
AcDbEntity
8
0
100
AcDbLine
10
379.88929340000004
20
155.7720736
30
0
11
379.61029340000005
21
156.04907360000001
31
0
0
LINE
5
335
100
AcDbEntity
8
0
100
AcDbLine
10
2.0139134000000047
20
156.22707360000004
30
0
11
1.6666434000000048
21
156.04907360000001
31
0
0
LWPOLYLINE
5
336
100
AcDbEntity
8
0
100
AcDbPolyline
90
4
70
1
43
0.0
10
21.426393400000006
20
102.38907360000002
10
7.4254834000000045
20
102.38907360000002
10
7.4254834000000036
20
88.386673600000009
10
21.426393400000006
20
88.386673600000009
0
LWPOLYLINE
5
337
100
AcDbEntity
8
0
100
AcDbPolyline
90
4
70
1
43
0.0
10
40.476293400000003
20
102.38907360000002
10
26.475493400000008
20
102.38907360000002
10
26.475493400000008
20
88.386673600000009
10
40.476293400000003
20
88.386673600000009
0
LWPOLYLINE
5
338
100
AcDbEntity
8
0
100
AcDbPolyline
90
4
70
1
43
0.0
10
45.525593400000005
20
88.386673600000009
10
59.526293400000007
20
88.386673600000009
10
59.526293400000007
20
102.38907360000002
10
45.525593400000005
20
102.38907360000002
0
LWPOLYLINE
5
339
100
AcDbEntity
8
0
100
AcDbPolyline
90
4
70
1
43
0.0
10
169.35029340000003
20
69.336673599999997
10
183.35129339999997
20
69.336673599999997
10
183.35129339999997
20
83.33877360000001
10
169.35029340000003
20
83.33877360000001
0
LWPOLYLINE
5
340
100
AcDbEntity
8
0
100
AcDbPolyline
90
4
70
1
43
0.0
10
354.80329339999997
20
83.33877360000001
10
340.80029340000004
20
83.33877360000001
10
340.80029340000004
20
69.336673599999997
10
354.80329339999997
20
69.336673599999997
0
LWPOLYLINE
5
341
100
AcDbEntity
8
0
100
AcDbPolyline
90
4
70
1
43
0.0
10
188.40029340000004
20
83.33877360000001
10
188.40029340000004
20
69.336673599999997
10
202.40129340000004
20
69.336673599999997
10
202.40129340000004
20
83.33877360000001
0
LWPOLYLINE
5
342
100
AcDbEntity
8
0
100
AcDbPolyline
90
4
70
1
43
0.0
10
259.55129340000002
20
83.33877360000001
10
245.55029340000004
20
83.33877360000001
10
245.55029340000004
20
69.336673599999997
10
259.55129340000002
20
69.336673599999997
0
LWPOLYLINE
5
343
100
AcDbEntity
8
0
100
AcDbPolyline
90
4
70
1
43
0.0
10
93.15059340000002
20
69.336673599999997
10
107.15129340000001
20
69.336673599999997
10
107.15129340000001
20
83.33877360000001
10
93.15059340000002
20
83.33877360000001
0
LWPOLYLINE
5
344
100
AcDbEntity
8
0
100
AcDbPolyline
90
4
70
1
43
0.0
10
150.30029340000002
20
83.33877360000001
10
150.30029340000002
20
69.336673599999997
10
164.30129340000002
20
69.336673599999997
10
164.30129340000002
20
83.33877360000001
0
LWPOLYLINE
5
345
100
AcDbEntity
8
0
100
AcDbPolyline
90
4
70
1
43
0.0
10
207.45029340000002
20
69.336673599999997
10
221.45129340000005
20
69.336673599999997
10
221.45129340000005
20
83.33877360000001
10
207.45029340000002
20
83.33877360000001
0
LWPOLYLINE
5
346
100
AcDbEntity
8
0
100
AcDbPolyline
90
4
70
1
43
0.0
10
145.25129340000001
20
69.336673599999997
10
145.25129340000001
20
83.33877360000001
10
131.2502934
20
83.33877360000001
10
131.2502934
20
69.336673599999997
0
LWPOLYLINE
5
347
100
AcDbEntity
8
0
100
AcDbPolyline
90
4
70
1
43
0.0
10
74.100593400000008
20
83.33877360000001
10
74.100593400000008
20
69.336673599999997
10
88.101293400000017
20
69.336673599999997
10
88.101293400000017
20
83.33877360000001
0
LWPOLYLINE
5
348
100
AcDbEntity
8
0
100
AcDbPolyline
90
4
70
1
43
0.0
10
240.50129340000001
20
69.336673599999997
10
240.50129340000001
20
83.33877360000001
10
226.50029340000003
20
83.33877360000001
10
226.50029340000003
20
69.336673599999997
0
LWPOLYLINE
5
349
100
AcDbEntity
8
0
100
AcDbPolyline
90
4
70
1
43
0.0
10
126.2012934
20
69.336673599999997
10
126.2012934
20
83.33877360000001
10
112.20029339999999
20
83.33877360000001
10
112.20029339999999
20
69.336673599999997
0
LWPOLYLINE
5
350
100
AcDbEntity
8
0
100
AcDbPolyline
90
4
70
1
43
0.0
10
269.36329340000003
20
69.336673599999997
10
283.3622934
20
69.336673599999997
10
283.3622934
20
83.33877360000001
10
269.36329340000003
20
83.33877360000001
0
LWPOLYLINE
5
351
100
AcDbEntity
8
0
100
AcDbPolyline
90
4
70
1
43
0.0
10
335.75129340000001
20
83.33877360000001
10
321.75029340000003
20
83.33877360000001
10
321.75029340000003
20
69.336673599999997
10
335.75129340000001
20
69.336673599999997
0
LWPOLYLINE
5
352
100
AcDbEntity
8
0
100
AcDbPolyline
90
4
70
1
43
0.0
10
316.7012934
20
83.33877360000001
10
302.70029340000002
20
83.33877360000001
10
302.70029340000002
20
69.336673599999997
10
316.7012934
20
69.336673599999997
0
LWPOLYLINE
5
353
100
AcDbEntity
8
0
100
AcDbPolyline
90
4
70
1
43
0.0
10
373.85329339999998
20
83.33877360000001
10
359.85129340000003
20
83.33877360000001
10
359.85129340000003
20
69.336673599999997
10
373.85329339999998
20
69.336673599999997
0
LWPOLYLINE
5
354
100
AcDbEntity
8
0
100
AcDbPolyline
90
4
70
1
43
0.0
10
130.96229340000002
20
64.288773599999999
10
116.96329340000003
20
64.288773599999999
10
116.96329340000003
20
50.2866736
10
130.96229340000002
20
50.2866736
0
LWPOLYLINE
5
355
100
AcDbEntity
8
0
100
AcDbPolyline
90
4
70
1
43
0.0
10
226.21229339999999
20
50.2866736
10
226.21229339999999
20
64.288773599999999
10
212.21329340000005
20
64.288773599999999
10
212.21329340000005
20
50.2866736
0
LWPOLYLINE
5
356
100
AcDbEntity
8
0
100
AcDbPolyline
90
4
70
1
43
0.0
10
335.75129340000001
20
50.2866736
10
335.75129340000001
20
64.288773599999999
10
321.75029340000003
20
64.288773599999999
10
321.75029340000003
20
50.2866736
0
LWPOLYLINE
5
357
100
AcDbEntity
8
0
100
AcDbPolyline
90
4
70
1
43
0.0
10
155.06329340000002
20
50.2866736
10
169.06229339999999
20
50.2866736
10
169.06229339999999
20
64.288773599999999
10
155.06329340000002
20
64.288773599999999
0
LINE
5
358
100
AcDbEntity
8
0
100
AcDbLine
10
381.24029340000004
20
156.85607360000003
30
0
11
381.27929340000003
21
156.76807360000001
31
0
0
LINE
5
359
100
AcDbEntity
8
0
100
AcDbLine
10
381.36029340000005
20
156.48407359999999
30
0
11
381.37429340000006
21
156.38707360000001
31
0
0
LWPOLYLINE
5
360
100
AcDbEntity
8
0
100
AcDbPolyline
90
4
70
1
43
0.0
10
78.863093399999997
20
50.2866736
10
92.862393400000002
20
50.2866736
10
92.862393400000002
20
64.288773599999999
10
78.863093399999997
20
64.288773599999999
0
LINE
5
361
100
AcDbEntity
8
0
100
AcDbLine
10
380.32329340000001
20
-0.084841800000000023
30
0
11
380.22429340000002
21
-0.09586620000000004
31
0
0
LINE
5
362
100
AcDbEntity
8
0
100
AcDbLine
10
381.31429340000005
20
156.67507359999999
30
0
11
381.34229340000002
21
156.58007360000002
31
0
0
LINE
5
363
100
AcDbEntity
8
0
100
AcDbLine
10
381.36029340000005
20
0.95419360000000009
30
0
11
381.34229340000002
21
0.8577336000000001
31
0
0
LINE
5
364
100
AcDbEntity
8
0
100
AcDbLine
10
381.37429340000006
20
1.0520436
30
0
11
381.36029340000005
21
0.95419360000000009
31
0
0
LINE
5
365
100
AcDbEntity
8
0
100
AcDbLine
10
381.37429340000006
20
156.38707360000001
30
0
11
381.37729339999999
21
156.28807359999999
31
0
0
LINE
5
366
100
AcDbEntity
8
0
100
AcDbLine
10
380.32329340000001
20
157.5230736
30
0
11
380.41829339999998
21
157.50507360000003
31
0
0
LINE
5
367
100
AcDbEntity
8
0
100
AcDbLine
10
380.22429340000002
20
157.53507360000003
30
0
11
380.32329340000001
21
157.5230736
31
0
0
LINE
5
368
100
AcDbEntity
8
0
100
AcDbLine
10
381.34229340000002
20
0.8577336000000001
30
0
11
381.31429340000005
21
0.76402959999999998
31
0
0
LINE
5
369
100
AcDbEntity
8
0
100
AcDbLine
10
381.34229340000002
20
156.58007360000002
30
0
11
381.36029340000005
21
156.48407359999999
31
0
0
LINE
5
370
100
AcDbEntity
8
0
100
AcDbLine
10
380.69329339999996
20
157.4030736
30
0
11
380.78129340000004
21
157.35507360000003
31
0
0
LINE
5
371
100
AcDbEntity
8
0
100
AcDbLine
10
381.27929340000003
20
0.67170060000000009
30
0
11
381.24029340000004
21
0.58350559999999996
31
0
0
LINE
5
372
100
AcDbEntity
8
0
100
AcDbLine
10
381.31429340000005
20
0.76402959999999998
30
0
11
381.27929340000003
21
0.67170060000000009
31
0
0
LINE
5
373
100
AcDbEntity
8
0
100
AcDbLine
10
381.0112934
20
157.17307360000001
30
0
11
381.07829340000001
21
157.10007360000003
31
0
0
LINE
5
374
100
AcDbEntity
8
0
100
AcDbLine
10
381.19129340000001
20
156.94307359999999
30
0
11
381.24029340000004
21
156.85607360000003
31
0
0
LINE
5
375
100
AcDbEntity
8
0
100
AcDbLine
10
381.07829340000001
20
0.33821560000000001
30
0
11
381.0112934
21
0.26655960000000001
31
0
0
LINE
5
376
100
AcDbEntity
8
0
100
AcDbLine
10
380.94029340000009
20
157.23907360000001
30
0
11
381.0112934
21
157.17307360000001
31
0
0
LINE
5
377
100
AcDbEntity
8
0
100
AcDbLine
10
381.07829340000001
20
157.10007360000003
30
0
11
381.13829340000001
21
157.02407360000001
31
0
0
LINE
5
378
100
AcDbEntity
8
0
100
AcDbLine
10
381.19129340000001
20
0.49669059999999998
30
0
11
381.13829340000001
21
0.41538659999999999
31
0
0
LINE
5
379
100
AcDbEntity
8
0
100
AcDbLine
10
381.27929340000003
20
156.76807360000001
30
0
11
381.31429340000005
21
156.67507359999999
31
0
0
LINE
5
380
100
AcDbEntity
8
0
100
AcDbLine
10
380.51329340000001
20
157.47707360000004
30
0
11
380.60529340000005
21
157.44307359999999
31
0
0
LINE
5
381
100
AcDbEntity
8
0
100
AcDbLine
10
381.37729339999999
20
156.28807359999999
30
0
11
381.37729339999999
21
1.1498835999999912
31
0
0
LINE
5
382
100
AcDbEntity
8
0
100
AcDbLine
10
380.78129340000004
20
157.35507360000003
30
0
11
380.8622934
21
157.30107360000002
31
0
0
LINE
5
383
100
AcDbEntity
8
0
100
AcDbLine
10
381.13829340000001
20
157.02407360000001
30
0
11
381.19129340000001
21
156.94307359999999
31
0
0
LINE
5
384
100
AcDbEntity
8
0
100
AcDbLine
10
381.24029340000004
20
0.58350559999999996
30
0
11
381.19129340000001
21
0.49669059999999998
31
0
0
LINE
5
385
100
AcDbEntity
8
0
100
AcDbLine
10
381.0112934
20
0.26655960000000001
30
0
11
380.94029340000009
21
0.19903459999999998
31
0
0
LINE
5
386
100
AcDbEntity
8
0
100
AcDbLine
10
380.78129340000004
20
0.084656599999999999
30
0
11
380.69329339999996
21
0.036425599999999961
31
0
0
LINE
5
387
100
AcDbEntity
8
0
100
AcDbLine
10
381.13829340000001
20
0.41538659999999999
30
0
11
381.07829340000001
21
0.33821560000000001
31
0
0
LINE
5
388
100
AcDbEntity
8
0
100
AcDbLine
10
380.69329339999996
20
0.036425599999999961
30
0
11
380.60529340000005
21
-0.0049154000000000211
31
0
0
LINE
5
389
100
AcDbEntity
8
0
100
AcDbLine
10
380.51329340000001
20
-0.039366400000000051
30
0
11
380.41829339999998
21
-0.064171400000000031
31
0
0
LINE
5
390
100
AcDbEntity
8
0
100
AcDbLine
10
0.58350840000000448
20
0.036425599999999961
30
0
11
0.49669040000000464
21
0.084656599999999999
31
0
0
LINE
5
391
100
AcDbEntity
8
0
100
AcDbLine
10
380.12529340000003
20
157.53807359999999
30
0
11
380.22429340000002
21
157.53507360000003
31
0
0
LINE
5
392
100
AcDbEntity
8
0
100
AcDbLine
10
380.60529340000005
20
157.44307359999999
30
0
11
380.69329339999996
21
157.4030736
31
0
0
LINE
5
393
100
AcDbEntity
8
0
100
AcDbLine
10
0.76402840000000471
20
-0.039366400000000051
30
0
11
0.67170340000000461
21
-0.0049154000000000211
31
0
0
LINE
5
394
100
AcDbEntity
8
0
100
AcDbLine
10
0.49669040000000464
20
0.084656599999999999
30
0
11
0.41538540000000451
21
0.13977860000000003
31
0
0
LINE
5
395
100
AcDbEntity
8
0
100
AcDbLine
10
380.41829339999998
20
-0.064171400000000031
30
0
11
380.32329340000001
21
-0.084841800000000023
31
0
0
LINE
5
396
100
AcDbEntity
8
0
100
AcDbLine
10
380.94029340000009
20
0.19903459999999998
30
0
11
380.8622934
21
0.13977860000000003
31
0
0
LINE
5
397
100
AcDbEntity
8
0
100
AcDbLine
10
380.12529340000003
20
-0.10000000000000003
30
0
11
1.1512634000000366
21
-0.10000000000000003
31
0
0
LINE
5
398
100
AcDbEntity
8
0
100
AcDbLine
10
380.41829339999998
20
157.50507360000003
30
0
11
380.51329340000001
21
157.47707360000004
31
0
0
LINE
5
399
100
AcDbEntity
8
0
100
AcDbLine
10
381.37729339999999
20
1.1498835999999912
30
0
11
381.37429340000006
21
1.0520436
31
0
0
LINE
5
400
100
AcDbEntity
8
0
100
AcDbLine
10
380.8622934
20
0.13977860000000003
30
0
11
380.78129340000004
21
0.084656599999999999
31
0
0
LINE
5
401
100
AcDbEntity
8
0
100
AcDbLine
10
380.22429340000002
20
-0.09586620000000004
30
0
11
380.12529340000003
21
-0.10000000000000003
31
0
0
LINE
5
402
100
AcDbEntity
8
0
100
AcDbLine
10
1.1512634000000366
20
-0.10000000000000003
30
0
11
1.0520434000000045
21
-0.09586620000000004
31
0
0
LINE
5
403
100
AcDbEntity
8
0
100
AcDbLine
10
380.8622934
20
157.30107360000002
30
0
11
380.94029340000009
21
157.23907360000001
31
0
0
LINE
5
404
100
AcDbEntity
8
0
100
AcDbLine
10
1.0520434000000045
20
-0.09586620000000004
30
0
11
0.95557340000000435
21
-0.084841800000000023
31
0
0
LINE
5
405
100
AcDbEntity
8
0
100
AcDbLine
10
0.95557340000000435
20
-0.084841800000000023
30
0
11
0.85911340000000469
21
-0.064171400000000031
31
0
0
LINE
5
406
100
AcDbEntity
8
0
100
AcDbLine
10
0.85911340000000469
20
-0.064171400000000031
30
0
11
0.76402840000000471
21
-0.039366400000000051
31
0
0
LINE
5
407
100
AcDbEntity
8
0
100
AcDbLine
10
380.60529340000005
20
-0.0049154000000000211
30
0
11
380.51329340000001
21
-0.039366400000000051
31
0
0
LINE
5
408
100
AcDbEntity
8
0
100
AcDbLine
10
0.67170340000000461
20
-0.0049154000000000211
30
0
11
0.58350840000000448
21
0.036425599999999961
31
0
0
LWPOLYLINE
5
409
100
AcDbEntity
8
0
100
AcDbPolyline
90
4
70
1
43
0.0
10
12.187993400000005
20
83.33877360000001
10
12.187993400000005
20
69.336673599999997
10
26.187493400000008
20
69.336673599999997
10
26.187493400000008
20
83.33877360000001
0
LINE
5
410
100
AcDbEntity
8
0
100
AcDbLine
10
0.036425400000004542
20
0.58350559999999996
30
0
11
-0.0035375999999954361
21
0.67170060000000009
31
0
0
LINE
5
411
100
AcDbEntity
8
0
100
AcDbLine
10
0.33959440000000457
20
0.19903459999999998
30
0
11
0.26655940000000455
21
0.26655960000000001
31
0
0
LINE
5
412
100
AcDbEntity
8
0
100
AcDbLine
10
-0.0035375999999954361
20
0.67170060000000009
30
0
11
-0.037988599999995501
21
0.76402959999999998
31
0
0
LINE
5
413
100
AcDbEntity
8
0
100
AcDbLine
10
0.13840040000000456
20
0.41538659999999999
30
0
11
0.084657400000004546
21
0.49669059999999998
31
0
0
LINE
5
414
100
AcDbEntity
8
0
100
AcDbLine
10
0.41538540000000451
20
0.13977860000000003
30
0
11
0.33959440000000457
21
0.19903459999999998
31
0
0
LINE
5
415
100
AcDbEntity
8
0
100
AcDbLine
10
0.26655940000000455
20
0.26655960000000001
30
0
11
0.20041340000000457
21
0.33821560000000001
31
0
0
LINE
5
416
100
AcDbEntity
8
0
100
AcDbLine
10
0.084657400000004546
20
0.49669059999999998
30
0
11
0.036425400000004542
21
0.58350559999999996
31
0
0
LINE
5
417
100
AcDbEntity
8
0
100
AcDbLine
10
0.20041340000000457
20
0.33821560000000001
30
0
11
0.13840040000000456
21
0.41538659999999999
31
0
0
LWPOLYLINE
5
418
100
AcDbEntity
8
0
100
AcDbPolyline
90
4
70
1
43
0.0
10
145.53829339999999
20
45.238773600000002
10
145.53829339999999
20
31.2365736
10
159.53729340000001
20
31.2365736
10
159.53729340000001
20
45.238773600000002
0
LWPOLYLINE
5
419
100
AcDbEntity
8
0
100
AcDbPolyline
90
4
70
1
43
0.0
10
83.337393399999996
20
31.2365736
10
83.337393399999996
20
45.238773600000002
10
69.338093400000005
20
45.238773600000002
10
69.338093400000005
20
31.2365736
0
LWPOLYLINE
5
420
100
AcDbEntity
8
0
100
AcDbPolyline
90
4
70
1
43
0.0
10
102.3872934
20
31.2365736
10
102.3872934
20
45.238773600000002
10
88.388093400000002
20
45.238773600000002
10
88.388093400000002
20
31.2365736
0
LWPOLYLINE
5
421
100
AcDbEntity
8
0
100
AcDbPolyline
90
4
70
1
43
0.0
10
178.58729339999999
20
45.238773600000002
10
164.5882934
20
45.238773600000002
10
164.5882934
20
31.2365736
10
178.58729339999999
20
31.2365736
0
LWPOLYLINE
5
422
100
AcDbEntity
8
0
100
AcDbPolyline
90
4
70
1
43
0.0
10
140.4872934
20
45.238773600000002
10
126.4882934
20
45.238773600000002
10
126.4882934
20
31.2365736
10
140.4872934
20
31.2365736
0
LWPOLYLINE
5
423
100
AcDbEntity
8
0
100
AcDbPolyline
90
4
70
1
43
0.0
10
183.63829339999998
20
45.238773600000002
10
183.63829339999998
20
31.2365736
10
197.6372934
20
31.2365736
10
197.6372934
20
45.238773600000002
0
LWPOLYLINE
5
424
100
AcDbEntity
8
0
100
AcDbPolyline
90
4
70
1
43
0.0
10
235.7372934
20
45.238773600000002
10
221.73829340000003
20
45.238773600000002
10
221.73829340000003
20
31.2365736
10
235.7372934
20
31.2365736
0
LWPOLYLINE
5
425
100
AcDbEntity
8
0
100
AcDbPolyline
90
4
70
1
43
0.0
10
202.68829340000002
20
31.2365736
10
216.68729339999999
20
31.2365736
10
216.68729339999999
20
45.238773600000002
10
202.68829340000002
20
45.238773600000002
0
LWPOLYLINE
5
426
100
AcDbEntity
8
0
100
AcDbPolyline
90
4
70
1
43
0.0
10
64.287393399999999
20
45.238773600000002
10
50.288093400000008
20
45.238773600000002
10
50.288093400000008
20
31.2365736
10
64.287393399999999
20
31.2365736
0
LWPOLYLINE
5
427
100
AcDbEntity
8
0
100
AcDbPolyline
90
4
70
1
43
0.0
10
316.7012934
20
31.2365736
10
316.7012934
20
45.238773600000002
10
302.70029340000002
20
45.238773600000002
10
302.70029340000002
20
31.2365736
0
LWPOLYLINE
5
428
100
AcDbEntity
8
0
100
AcDbPolyline
90
4
70
1
43
0.0
10
121.4372934
20
31.2365736
10
121.4372934
20
45.238773600000002
10
107.43829340000002
20
45.238773600000002
10
107.43829340000002
20
31.2365736
0
LWPOLYLINE
5
429
100
AcDbEntity
8
0
100
AcDbPolyline
90
4
70
1
43
0.0
10
261.93229339999999
20
45.238773600000002
10
247.93229339999999
20
45.238773600000002
10
247.93229339999999
20
31.2365736
10
261.93229339999999
20
31.2365736
0
LWPOLYLINE
5
430
100
AcDbEntity
8
0
100
AcDbPolyline
90
4
70
1
43
0.0
10
335.75129340000001
20
45.238773600000002
10
321.75029340000003
20
45.238773600000002
10
321.75029340000003
20
31.2365736
10
335.75129340000001
20
31.2365736
0
LWPOLYLINE
5
431
100
AcDbEntity
8
0
100
AcDbPolyline
90
44
70
1
43
0.0
10
284.49329340000003
20
59.588373600000004
10
285.31929339999999
20
59.588373600000004
10
285.31929339999999
20
56.788073600000004
10
284.49329340000003
20
56.788073600000004
10
284.49329340000003
20
50.518073600000008
10
282.7682934
20
50.518073600000008
10
282.7682934
20
49.538473600000003
10
279.46929340000003
20
49.538473600000003
10
279.46929340000003
20
50.518073600000008
10
277.7442934
20
50.518073600000008
10
277.7442934
20
54.988473599999999
10
276.21829340000005
20
54.988473599999999
10
276.21829340000005
20
50.288073600000011
10
262.21929340000003
20
50.288073600000011
10
262.21929340000003
20
54.988473599999999
10
260.69329340000002
20
54.988473599999999
10
260.69329340000002
20
50.518073600000008
10
258.96829340000005
20
50.518073600000008
10
258.96829340000005
20
49.538473600000003
10
255.66829340000001
20
49.538473600000003
10
255.66829340000001
20
50.518073600000008
10
253.94429340000002
20
50.518073600000008
10
253.94429340000002
20
56.788073600000004
10
253.11829340000003
20
56.788073600000004
10
253.11829340000003
20
59.588373600000004
10
253.94429340000002
20
59.588373600000004
10
253.94429340000002
20
62.818473599999997
10
255.66829340000001
20
62.818473599999997
10
255.66829340000001
20
63.737773600000011
10
258.96829340000005
20
63.737773600000011
10
258.96829340000005
20
62.818473599999997
10
260.69329340000002
20
62.818473599999997
10
260.69329340000002
20
59.588373600000004
10
262.21929340000003
20
59.588373600000004
10
262.21929340000003
20
64.288773599999999
10
276.21829340000005
20
64.288773599999999
10
276.21829340000005
20
59.588373600000004
10
277.7442934
20
59.588373600000004
10
277.7442934
20
62.818473599999997
10
279.46929340000003
20
62.818473599999997
10
279.46929340000003
20
63.737773600000011
10
282.7682934
20
63.737773600000011
10
282.7682934
20
62.818473599999997
10
284.49329340000003
20
62.818473599999997
0
LWPOLYLINE
5
432
100
AcDbEntity
8
0
100
AcDbPolyline
90
4
70
1
43
0.0
10
14.569193400000005
20
64.288773599999999
10
14.569193400000005
20
50.2866736
10
28.568693400000008
20
50.2866736
10
28.568693400000008
20
64.288773599999999
0
LWPOLYLINE
5
433
100
AcDbEntity
8
0
100
AcDbPolyline
90
4
70
1
43
0.0
10
354.80329339999997
20
31.2365736
10
354.80329339999997
20
45.238773600000002
10
340.80029340000004
20
45.238773600000002
10
340.80029340000004
20
31.2365736
0
LWPOLYLINE
5
434
100
AcDbEntity
8
0
100
AcDbPolyline
90
4
70
1
43
0.0
10
40.76309340000001
20
64.288773599999999
10
40.76309340000001
20
50.2866736
10
54.762393400000001
20
50.2866736
10
54.762393400000001
20
64.288773599999999
0
LWPOLYLINE
5
435
100
AcDbEntity
8
0
100
AcDbPolyline
90
4
70
1
43
0.0
10
73.812393400000005
20
50.2866736
10
73.812393400000005
20
64.288773599999999
10
59.8130934
20
64.288773599999999
10
59.8130934
20
50.2866736
0
LWPOLYLINE
5
436
100
AcDbEntity
8
0
100
AcDbPolyline
90
4
70
1
43
0.0
10
316.7012934
20
50.2866736
10
316.7012934
20
64.288773599999999
10
302.70029340000002
20
64.288773599999999
10
302.70029340000002
20
50.2866736
0
LWPOLYLINE
5
437
100
AcDbEntity
8
0
100
AcDbPolyline
90
4
70
1
43
0.0
10
174.11329340000003
20
64.288773599999999
10
174.11329340000003
20
50.2866736
10
188.1122934
20
50.2866736
10
188.1122934
20
64.288773599999999
0
LWPOLYLINE
5
438
100
AcDbEntity
8
0
100
AcDbPolyline
90
4
70
1
43
0.0
10
97.913093400000008
20
50.2866736
10
111.91229340000001
20
50.2866736
10
111.91229340000001
20
64.288773599999999
10
97.913093400000008
20
64.288773599999999
0
LWPOLYLINE
5
439
100
AcDbEntity
8
0
100
AcDbPolyline
90
4
70
1
43
0.0
10
136.01329340000001
20
50.2866736
10
150.01229340000003
20
50.2866736
10
150.01229340000003
20
64.288773599999999
10
136.01329340000001
20
64.288773599999999
0
LWPOLYLINE
5
440
100
AcDbEntity
8
0
100
AcDbPolyline
90
4
70
1
43
0.0
10
193.16329340000004
20
64.288773599999999
10
193.16329340000004
20
50.2866736
10
207.16229340000001
20
50.2866736
10
207.16229340000001
20
64.288773599999999
0
LWPOLYLINE
5
441
100
AcDbEntity
8
0
100
AcDbPolyline
90
4
70
1
43
0.0
10
340.80029340000004
20
64.288773599999999
10
340.80029340000004
20
50.2866736
10
354.80329339999997
20
50.2866736
10
354.80329339999997
20
64.288773599999999
0
LWPOLYLINE
5
442
100
AcDbEntity
8
0
100
AcDbPolyline
90
4
70
1
43
0.0
10
359.85129340000003
20
64.288773599999999
10
359.85129340000003
20
50.2866736
10
373.85329339999998
20
50.2866736
10
373.85329339999998
20
64.288773599999999
0
LWPOLYLINE
5
443
100
AcDbEntity
8
0
100
AcDbPolyline
90
4
70
1
43
0.0
10
231.26329340000001
20
64.288773599999999
10
231.26329340000001
20
50.2866736
10
245.2622934
20
50.2866736
10
245.2622934
20
64.288773599999999
0
LWPOLYLINE
5
444
100
AcDbEntity
8
0
100
AcDbPolyline
90
4
70
1
43
0.0
10
335.75129340000001
20
102.38907360000002
10
321.75029340000003
20
102.38907360000002
10
321.75029340000003
20
88.386673600000009
10
335.75129340000001
20
88.386673600000009
0
LWPOLYLINE
5
445
100
AcDbEntity
8
0
100
AcDbPolyline
90
4
70
1
43
0.0
10
159.82529340000002
20
88.386673600000009
10
173.8262934
20
88.386673600000009
10
173.8262934
20
102.38907360000002
10
159.82529340000002
20
102.38907360000002
0
LWPOLYLINE
5
446
100
AcDbEntity
8
0
100
AcDbPolyline
90
4
70
1
43
0.0
10
40.476293400000003
20
126.20107360000003
10
26.475493400000008
20
126.20107360000003
10
26.475493400000008
20
112.20107360000002
10
40.476293400000003
20
112.20107360000002
0
LWPOLYLINE
5
447
100
AcDbEntity
8
0
100
AcDbPolyline
90
4
70
1
43
0.0
10
297.93829340000002
20
112.20107360000002
10
311.93729339999999
20
112.20107360000002
10
311.93729339999999
20
126.20107360000003
10
297.93829340000002
20
126.20107360000003
0
LWPOLYLINE
5
448
100
AcDbEntity
8
0
100
AcDbPolyline
90
4
70
1
43
0.0
10
316.98829340000003
20
112.20107360000002
10
330.9872934
20
112.20107360000002
10
330.9872934
20
126.20107360000003
10
316.98829340000003
20
126.20107360000003
0
LWPOLYLINE
5
449
100
AcDbEntity
8
0
100
AcDbPolyline
90
4
70
1
43
0.0
10
123.34329340000002
20
112.20107360000002
10
123.34329340000002
20
126.20107360000003
10
109.34229340000002
20
126.20107360000003
10
109.34229340000002
20
112.20107360000002
0
LWPOLYLINE
5
450
100
AcDbEntity
8
0
100
AcDbPolyline
90
4
70
1
43
0.0
10
187.16129339999998
20
112.20107360000002
10
187.16129339999998
20
126.20107360000003
10
173.16029340000003
20
126.20107360000003
10
173.16029340000003
20
112.20107360000002
0
LWPOLYLINE
5
451
100
AcDbEntity
8
0
100
AcDbPolyline
90
4
70
1
43
0.0
10
225.26129340000006
20
112.20107360000002
10
225.26129340000006
20
126.20107360000003
10
211.26029340000002
20
126.20107360000003
10
211.26029340000002
20
112.20107360000002
0
LWPOLYLINE
5
452
100
AcDbEntity
8
0
100
AcDbPolyline
90
4
70
1
43
0.0
10
192.21029340000004
20
126.20107360000003
10
192.21029340000004
20
112.20107360000002
10
206.21129340000005
20
112.20107360000002
10
206.21129340000005
20
126.20107360000003
0
LWPOLYLINE
5
453
100
AcDbEntity
8
0
100
AcDbPolyline
90
4
70
1
43
0.0
10
59.526293400000007
20
126.20107360000003
10
45.525593400000005
20
126.20107360000003
10
45.525593400000005
20
112.20107360000002
10
59.526293400000007
20
112.20107360000002
0
LWPOLYLINE
5
454
100
AcDbEntity
8
0
100
AcDbPolyline
90
4
70
1
43
0.0
10
340.80029340000004
20
126.20107360000003
10
340.80029340000004
20
112.20107360000002
10
354.80329339999997
20
112.20107360000002
10
354.80329339999997
20
126.20107360000003
0
LWPOLYLINE
5
455
100
AcDbEntity
8
0
100
AcDbPolyline
90
4
70
1
43
0.0
10
142.39329340000003
20
112.20107360000002
10
142.39329340000003
20
126.20107360000003
10
128.39229340000003
20
126.20107360000003
10
128.39229340000003
20
112.20107360000002
0
LWPOLYLINE
5
456
100
AcDbEntity
8
0
100
AcDbPolyline
90
4
70
1
43
0.0
10
90.292393400000009
20
112.20107360000002
10
104.29329340000002
20
112.20107360000002
10
104.29329340000002
20
126.20107360000003
10
90.292393400000009
20
126.20107360000003
0
LWPOLYLINE
5
457
100
AcDbEntity
8
0
100
AcDbPolyline
90
4
70
1
43
0.0
10
161.44329340000002
20
112.20107360000002
10
161.44329340000002
20
126.20107360000003
10
147.44229340000001
20
126.20107360000003
10
147.44229340000001
20
112.20107360000002
0
LWPOLYLINE
5
458
100
AcDbEntity
8
0
100
AcDbPolyline
90
4
70
1
43
0.0
10
78.576293399999997
20
126.20107360000003
10
64.575593400000002
20
126.20107360000003
10
64.575593400000002
20
112.20107360000002
10
78.576293399999997
20
112.20107360000002
0
LWPOLYLINE
5
459
100
AcDbEntity
8
0
100
AcDbPolyline
90
4
70
1
43
0.0
10
244.31129340000001
20
112.20107360000002
10
244.31129340000001
20
126.20107360000003
10
230.31029340000003
20
126.20107360000003
10
230.31029340000003
20
112.20107360000002
0
LWPOLYLINE
5
460
100
AcDbEntity
8
0
100
AcDbPolyline
90
4
70
1
43
0.0
10
269.0762934
20
126.20107360000003
10
255.07529340000002
20
126.20107360000003
10
255.07529340000002
20
112.20107360000002
10
269.0762934
20
112.20107360000002
0
LWPOLYLINE
5
461
100
AcDbEntity
8
0
100
AcDbPolyline
90
4
70
1
43
0.0
10
292.88729339999998
20
112.20107360000002
10
292.88729339999998
20
126.20107360000003
10
278.88829340000001
20
126.20107360000003
10
278.88829340000001
20
112.20107360000002
0
LWPOLYLINE
5
462
100
AcDbEntity
8
0
100
AcDbPolyline
90
4
70
1
43
0.0
10
50.001293400000009
20
69.336673599999997
10
50.001293400000009
20
83.33877360000001
10
36.000593400000007
20
83.33877360000001
10
36.000593400000007
20
69.336673599999997
0
LWPOLYLINE
5
463
100
AcDbEntity
8
0
100
AcDbPolyline
90
4
70
1
43
0.0
10
55.050593400000011
20
69.336673599999997
10
69.051293400000006
20
69.336673599999997
10
69.051293400000006
20
83.33877360000001
10
55.050593400000011
20
83.33877360000001
0
LINE
5
464
100
AcDbEntity
8
0
100
AcDbLine
10
1.1512634000000366
20
-0.10000000000000003
30
0
11
-0.89370658435377615
21
-0.10000000000000003
31
0
0
LINE
5
465
100
AcDbEntity
8
0
100
AcDbLine
10
-0.89370658435377615
20
-0.10000000000000003
30
0
11
-0.99370658211860197
21
-0.10000000000000003
31
0
0
LINE
5
466
100
AcDbEntity
8
0
100
AcDbLine
10
-0.099999999999995454
20
1.1498836000000001
30
0
11
-0.10000000000000002
21
-0.10000000000000002
31
0
0
LINE
5
467
100
AcDbEntity
8
0
100
AcDbLine
10
1.1498834000000047
20
2.3997636000000004
30
0
11
3.6496334000000048
21
2.3997636000000004
31
0
0
LINE
5
468
100
AcDbEntity
8
0
100
AcDbLine
10
126.64329340000002
20
2.3997636000000004
30
0
11
129.1432934
21
2.3997636000000004
31
0
0
LINE
5
469
100
AcDbEntity
8
0
100
AcDbLine
10
254.63429340000005
20
2.3997636000000009
30
0
11
252.13329340000001
21
2.3997636000000004
31
0
0
LINE
5
470
100
AcDbEntity
8
0
100
AcDbLine
10
380.12529340000003
20
2.3997636000000186
30
0
11
377.62729339999999
21
2.3997636000000004
31
0
0
LINE
5
471
100
AcDbEntity
8
0
100
AcDbLine
10
1.1498834000000047
20
155.03807359999999
30
0
11
3.6496334000000048
21
155.03807359999999
31
0
0
LINE
5
472
100
AcDbEntity
8
0
100
AcDbLine
10
129.1432934
20
155.03807359999999
30
0
11
126.64329340000002
21
155.03807359999999
31
0
0
LINE
5
473
100
AcDbEntity
8
0
100
AcDbLine
10
252.13329340000001
20
155.03807359999999
30
0
11
254.63429340000002
21
155.03807359999999
31
0
0
LINE
5
474
100
AcDbEntity
8
0
100
AcDbLine
10
380.12529340000003
20
155.03807359999999
30
0
11
377.62729339999999
21
155.03807359999999
31
0
0
LINE
5
475
100
AcDbEntity
8
0
100
AcDbLine
10
381.37729339999999
20
156.28807359999999
30
0
11
381.37729339999999
21
157.94999646954238
31
0
0
LINE
5
476
100
AcDbEntity
8
0
100
AcDbLine
10
380.12529340000003
20
157.53807359999999
30
0
11
381.37729339999999
21
157.53848970928317
31
0
0
ENDSEC
0
SECTION
2
OBJECTS
0
DICTIONARY
5
C
100
AcDbDictionary
3
ACAD_GROUP
350
D
3
ACAD_MLINESTYLE
350
17
0
DICTIONARY
5
D
100
AcDbDictionary
0
DICTIONARY
5
1A
330
C
100
AcDbDictionary
0
DICTIONARY
5
17
100
AcDbDictionary
0
ENDSEC
0
EOF
