G04 #@! TF.GenerationSoftware,KiCad,Pcbnew,(5.0.2)-1*
G04 #@! TF.CreationDate,2019-01-03T01:23:23-08:00*
G04 #@! TF.ProjectId,usb breakouts,75736220-6272-4656-916b-6f7574732e6b,rev?*
G04 #@! TF.SameCoordinates,Original*
G04 #@! TF.FileFunction,Copper,L2,Bot*
G04 #@! TF.FilePolarity,Positive*
%FSLAX46Y46*%
G04 Gerber Fmt 4.6, Leading zero omitted, Abs format (unit mm)*
G04 Created by KiCad (PCBNEW (5.0.2)-1) date 1/3/2019 1:23:23 AM*
%MOMM*%
%LPD*%
G01*
G04 APERTURE LIST*
G04 #@! TA.AperFunction,ComponentPad*
%ADD10O,1.700000X1.700000*%
G04 #@! TD*
G04 #@! TA.AperFunction,ComponentPad*
%ADD11R,1.700000X1.700000*%
G04 #@! TD*
G04 #@! TA.AperFunction,ComponentPad*
%ADD12O,1.000000X1.600000*%
G04 #@! TD*
G04 #@! TA.AperFunction,ComponentPad*
%ADD13O,1.000000X2.100000*%
G04 #@! TD*
G04 #@! TA.AperFunction,ViaPad*
%ADD14C,0.800000*%
G04 #@! TD*
G04 #@! TA.AperFunction,Conductor*
%ADD15C,0.250000*%
G04 #@! TD*
G04 #@! TA.AperFunction,Conductor*
%ADD16C,0.254000*%
G04 #@! TD*
G04 APERTURE END LIST*
D10*
G04 #@! TO.P,J1,4*
G04 #@! TO.N,VCC*
X10180000Y-15000000D03*
G04 #@! TO.P,J1,3*
G04 #@! TO.N,Net-(J1-Pad3)*
X12720000Y-15000000D03*
G04 #@! TO.P,J1,2*
G04 #@! TO.N,Net-(J1-Pad2)*
X15260000Y-15000000D03*
D11*
G04 #@! TO.P,J1,1*
G04 #@! TO.N,GND*
X17800000Y-15000000D03*
G04 #@! TD*
D12*
G04 #@! TO.P,USB1,13*
G04 #@! TO.N,Net-(C_SHIELD1-Pad1)*
X9680000Y-1100000D03*
X18320000Y-1100000D03*
D13*
X9680000Y-5280000D03*
X18320000Y-5280000D03*
G04 #@! TD*
D14*
G04 #@! TO.N,Net-(J1-Pad2)*
X14500000Y-4500000D03*
G04 #@! TO.N,Net-(R_USB1-Pad2)*
X14000000Y-3500000D03*
X11000000Y-3500000D03*
G04 #@! TO.N,Net-(R_USB2-Pad2)*
X12500000Y-10500000D03*
X10500000Y-10500000D03*
G04 #@! TD*
D15*
G04 #@! TO.N,Net-(C_SHIELD1-Pad1)*
X9680000Y-5280000D02*
X9680000Y-1100000D01*
X10430000Y-1100000D02*
X18320000Y-1100000D01*
X9680000Y-1100000D02*
X10430000Y-1100000D01*
X18320000Y-1100000D02*
X18320000Y-5280000D01*
G04 #@! TO.N,Net-(J1-Pad2)*
X14500000Y-4500000D02*
X14500000Y-13000000D01*
X15260000Y-13760000D02*
X15260000Y-15000000D01*
X14500000Y-13000000D02*
X15260000Y-13760000D01*
G04 #@! TO.N,Net-(R_USB1-Pad2)*
X14000000Y-3500000D02*
X11000000Y-3500000D01*
G04 #@! TO.N,Net-(R_USB2-Pad2)*
X12500000Y-10500000D02*
X10500000Y-10500000D01*
G04 #@! TD*
D16*
G04 #@! TO.N,GND*
G36*
X8545000Y-1511782D02*
X8610854Y-1842854D01*
X8861711Y-2218289D01*
X8920001Y-2257237D01*
X8920000Y-3872764D01*
X8861712Y-3911711D01*
X8610854Y-4287145D01*
X8545000Y-4618217D01*
X8545000Y-5941782D01*
X8610854Y-6272854D01*
X8861711Y-6648289D01*
X9237145Y-6899146D01*
X9680000Y-6987235D01*
X10122854Y-6899146D01*
X10498289Y-6648289D01*
X10749146Y-6272855D01*
X10815000Y-5941783D01*
X10815000Y-5666904D01*
X10919044Y-5710000D01*
X11300956Y-5710000D01*
X11653797Y-5563849D01*
X11923849Y-5293797D01*
X12070000Y-4940956D01*
X12070000Y-4559044D01*
X11946132Y-4260000D01*
X13296289Y-4260000D01*
X13413720Y-4377431D01*
X13465000Y-4398672D01*
X13465000Y-4705874D01*
X13622569Y-5086280D01*
X13740000Y-5203711D01*
X13740001Y-12925148D01*
X13725112Y-13000000D01*
X13784097Y-13296537D01*
X13895634Y-13463463D01*
X13952072Y-13547929D01*
X14015527Y-13590329D01*
X14288404Y-13863206D01*
X14189375Y-13929375D01*
X13990000Y-14227761D01*
X13790625Y-13929375D01*
X13299418Y-13601161D01*
X12866256Y-13515000D01*
X12573744Y-13515000D01*
X12140582Y-13601161D01*
X11649375Y-13929375D01*
X11450000Y-14227761D01*
X11250625Y-13929375D01*
X10759418Y-13601161D01*
X10326256Y-13515000D01*
X10033744Y-13515000D01*
X9600582Y-13601161D01*
X9109375Y-13929375D01*
X8781161Y-14420582D01*
X8665908Y-15000000D01*
X8781161Y-15579418D01*
X9109375Y-16070625D01*
X9600582Y-16398839D01*
X10033744Y-16485000D01*
X10326256Y-16485000D01*
X10759418Y-16398839D01*
X11250625Y-16070625D01*
X11450000Y-15772239D01*
X11649375Y-16070625D01*
X12140582Y-16398839D01*
X12573744Y-16485000D01*
X12866256Y-16485000D01*
X13299418Y-16398839D01*
X13790625Y-16070625D01*
X13990000Y-15772239D01*
X14189375Y-16070625D01*
X14680582Y-16398839D01*
X15113744Y-16485000D01*
X15406256Y-16485000D01*
X15839418Y-16398839D01*
X16330625Y-16070625D01*
X16345096Y-16048967D01*
X16411673Y-16209698D01*
X16590301Y-16388327D01*
X16823690Y-16485000D01*
X17514250Y-16485000D01*
X17673000Y-16326250D01*
X17673000Y-15127000D01*
X17927000Y-15127000D01*
X17927000Y-16326250D01*
X18085750Y-16485000D01*
X18776310Y-16485000D01*
X19009699Y-16388327D01*
X19188327Y-16209698D01*
X19285000Y-15976309D01*
X19285000Y-15285750D01*
X19126250Y-15127000D01*
X17927000Y-15127000D01*
X17673000Y-15127000D01*
X17653000Y-15127000D01*
X17653000Y-14873000D01*
X17673000Y-14873000D01*
X17673000Y-13673750D01*
X17927000Y-13673750D01*
X17927000Y-14873000D01*
X19126250Y-14873000D01*
X19285000Y-14714250D01*
X19285000Y-14023691D01*
X19188327Y-13790302D01*
X19009699Y-13611673D01*
X18776310Y-13515000D01*
X18085750Y-13515000D01*
X17927000Y-13673750D01*
X17673000Y-13673750D01*
X17514250Y-13515000D01*
X16823690Y-13515000D01*
X16590301Y-13611673D01*
X16411673Y-13790302D01*
X16345096Y-13951033D01*
X16330625Y-13929375D01*
X16028412Y-13727443D01*
X16020000Y-13685152D01*
X16020000Y-13685148D01*
X15975904Y-13463463D01*
X15934102Y-13400902D01*
X15850329Y-13275526D01*
X15850327Y-13275524D01*
X15807929Y-13212071D01*
X15744476Y-13169673D01*
X15260000Y-12685198D01*
X15260000Y-5203711D01*
X15377431Y-5086280D01*
X15535000Y-4705874D01*
X15535000Y-4294126D01*
X15377431Y-3913720D01*
X15086280Y-3622569D01*
X15035000Y-3601328D01*
X15035000Y-3294126D01*
X14877431Y-2913720D01*
X14586280Y-2622569D01*
X14205874Y-2465000D01*
X13794126Y-2465000D01*
X13413720Y-2622569D01*
X13296289Y-2740000D01*
X11703711Y-2740000D01*
X11586280Y-2622569D01*
X11205874Y-2465000D01*
X10794126Y-2465000D01*
X10440000Y-2611683D01*
X10440000Y-2257236D01*
X10498289Y-2218289D01*
X10737690Y-1860000D01*
X17262311Y-1860000D01*
X17501711Y-2218289D01*
X17560000Y-2257237D01*
X17560001Y-3872764D01*
X17501712Y-3911711D01*
X17464720Y-3967074D01*
X17433797Y-3936151D01*
X17080956Y-3790000D01*
X16699044Y-3790000D01*
X16346203Y-3936151D01*
X16076151Y-4206203D01*
X15930000Y-4559044D01*
X15930000Y-4940956D01*
X16076151Y-5293797D01*
X16346203Y-5563849D01*
X16699044Y-5710000D01*
X17080956Y-5710000D01*
X17185000Y-5666904D01*
X17185000Y-5941782D01*
X17250854Y-6272854D01*
X17501711Y-6648289D01*
X17877145Y-6899146D01*
X18320000Y-6987235D01*
X18762854Y-6899146D01*
X19138289Y-6648289D01*
X19389146Y-6272855D01*
X19455000Y-5941783D01*
X19455000Y-4618217D01*
X19389146Y-4287145D01*
X19138289Y-3911711D01*
X19080000Y-3872764D01*
X19080000Y-2257236D01*
X19138289Y-2218289D01*
X19180652Y-2154887D01*
X23765000Y-2154887D01*
X23765000Y-2845113D01*
X24029138Y-3482799D01*
X24517201Y-3970862D01*
X25154887Y-4235000D01*
X25845113Y-4235000D01*
X26482799Y-3970862D01*
X26970862Y-3482799D01*
X27235000Y-2845113D01*
X27235000Y-2154887D01*
X26970862Y-1517201D01*
X26482799Y-1029138D01*
X25845113Y-765000D01*
X25154887Y-765000D01*
X24517201Y-1029138D01*
X24029138Y-1517201D01*
X23765000Y-2154887D01*
X19180652Y-2154887D01*
X19389146Y-1842855D01*
X19455000Y-1511783D01*
X19455000Y-710000D01*
X25455335Y-710000D01*
X25943752Y-771701D01*
X26359620Y-936355D01*
X26721476Y-1199259D01*
X27006581Y-1543891D01*
X27197024Y-1948604D01*
X27287172Y-2421175D01*
X27290000Y-2511163D01*
X27290001Y-22955320D01*
X27228299Y-23443751D01*
X27063646Y-23859618D01*
X26800741Y-24221477D01*
X26456105Y-24506583D01*
X26051395Y-24697024D01*
X25578825Y-24787172D01*
X25488837Y-24790000D01*
X2544673Y-24790000D01*
X2056249Y-24728299D01*
X1640382Y-24563646D01*
X1278523Y-24300741D01*
X993417Y-23956105D01*
X802976Y-23551395D01*
X712828Y-23078825D01*
X710000Y-22988837D01*
X710000Y-22654887D01*
X765000Y-22654887D01*
X765000Y-23345113D01*
X1029138Y-23982799D01*
X1517201Y-24470862D01*
X2154887Y-24735000D01*
X2845113Y-24735000D01*
X3482799Y-24470862D01*
X3970862Y-23982799D01*
X4235000Y-23345113D01*
X4235000Y-22654887D01*
X23765000Y-22654887D01*
X23765000Y-23345113D01*
X24029138Y-23982799D01*
X24517201Y-24470862D01*
X25154887Y-24735000D01*
X25845113Y-24735000D01*
X26482799Y-24470862D01*
X26970862Y-23982799D01*
X27235000Y-23345113D01*
X27235000Y-22654887D01*
X26970862Y-22017201D01*
X26482799Y-21529138D01*
X25845113Y-21265000D01*
X25154887Y-21265000D01*
X24517201Y-21529138D01*
X24029138Y-22017201D01*
X23765000Y-22654887D01*
X4235000Y-22654887D01*
X3970862Y-22017201D01*
X3482799Y-21529138D01*
X2845113Y-21265000D01*
X2154887Y-21265000D01*
X1517201Y-21529138D01*
X1029138Y-22017201D01*
X765000Y-22654887D01*
X710000Y-22654887D01*
X710000Y-10294126D01*
X9465000Y-10294126D01*
X9465000Y-10705874D01*
X9622569Y-11086280D01*
X9913720Y-11377431D01*
X10294126Y-11535000D01*
X10705874Y-11535000D01*
X11086280Y-11377431D01*
X11203711Y-11260000D01*
X11796289Y-11260000D01*
X11913720Y-11377431D01*
X12294126Y-11535000D01*
X12705874Y-11535000D01*
X13086280Y-11377431D01*
X13377431Y-11086280D01*
X13535000Y-10705874D01*
X13535000Y-10294126D01*
X13377431Y-9913720D01*
X13086280Y-9622569D01*
X12705874Y-9465000D01*
X12294126Y-9465000D01*
X11913720Y-9622569D01*
X11796289Y-9740000D01*
X11203711Y-9740000D01*
X11086280Y-9622569D01*
X10705874Y-9465000D01*
X10294126Y-9465000D01*
X9913720Y-9622569D01*
X9622569Y-9913720D01*
X9465000Y-10294126D01*
X710000Y-10294126D01*
X710000Y-2544665D01*
X759240Y-2154887D01*
X765000Y-2154887D01*
X765000Y-2845113D01*
X1029138Y-3482799D01*
X1517201Y-3970862D01*
X2154887Y-4235000D01*
X2845113Y-4235000D01*
X3482799Y-3970862D01*
X3970862Y-3482799D01*
X4235000Y-2845113D01*
X4235000Y-2154887D01*
X3970862Y-1517201D01*
X3482799Y-1029138D01*
X2845113Y-765000D01*
X2154887Y-765000D01*
X1517201Y-1029138D01*
X1029138Y-1517201D01*
X765000Y-2154887D01*
X759240Y-2154887D01*
X771701Y-2056248D01*
X936355Y-1640380D01*
X1199259Y-1278524D01*
X1543891Y-993419D01*
X1948604Y-802976D01*
X2421175Y-712828D01*
X2511163Y-710000D01*
X8545000Y-710000D01*
X8545000Y-1511782D01*
X8545000Y-1511782D01*
G37*
X8545000Y-1511782D02*
X8610854Y-1842854D01*
X8861711Y-2218289D01*
X8920001Y-2257237D01*
X8920000Y-3872764D01*
X8861712Y-3911711D01*
X8610854Y-4287145D01*
X8545000Y-4618217D01*
X8545000Y-5941782D01*
X8610854Y-6272854D01*
X8861711Y-6648289D01*
X9237145Y-6899146D01*
X9680000Y-6987235D01*
X10122854Y-6899146D01*
X10498289Y-6648289D01*
X10749146Y-6272855D01*
X10815000Y-5941783D01*
X10815000Y-5666904D01*
X10919044Y-5710000D01*
X11300956Y-5710000D01*
X11653797Y-5563849D01*
X11923849Y-5293797D01*
X12070000Y-4940956D01*
X12070000Y-4559044D01*
X11946132Y-4260000D01*
X13296289Y-4260000D01*
X13413720Y-4377431D01*
X13465000Y-4398672D01*
X13465000Y-4705874D01*
X13622569Y-5086280D01*
X13740000Y-5203711D01*
X13740001Y-12925148D01*
X13725112Y-13000000D01*
X13784097Y-13296537D01*
X13895634Y-13463463D01*
X13952072Y-13547929D01*
X14015527Y-13590329D01*
X14288404Y-13863206D01*
X14189375Y-13929375D01*
X13990000Y-14227761D01*
X13790625Y-13929375D01*
X13299418Y-13601161D01*
X12866256Y-13515000D01*
X12573744Y-13515000D01*
X12140582Y-13601161D01*
X11649375Y-13929375D01*
X11450000Y-14227761D01*
X11250625Y-13929375D01*
X10759418Y-13601161D01*
X10326256Y-13515000D01*
X10033744Y-13515000D01*
X9600582Y-13601161D01*
X9109375Y-13929375D01*
X8781161Y-14420582D01*
X8665908Y-15000000D01*
X8781161Y-15579418D01*
X9109375Y-16070625D01*
X9600582Y-16398839D01*
X10033744Y-16485000D01*
X10326256Y-16485000D01*
X10759418Y-16398839D01*
X11250625Y-16070625D01*
X11450000Y-15772239D01*
X11649375Y-16070625D01*
X12140582Y-16398839D01*
X12573744Y-16485000D01*
X12866256Y-16485000D01*
X13299418Y-16398839D01*
X13790625Y-16070625D01*
X13990000Y-15772239D01*
X14189375Y-16070625D01*
X14680582Y-16398839D01*
X15113744Y-16485000D01*
X15406256Y-16485000D01*
X15839418Y-16398839D01*
X16330625Y-16070625D01*
X16345096Y-16048967D01*
X16411673Y-16209698D01*
X16590301Y-16388327D01*
X16823690Y-16485000D01*
X17514250Y-16485000D01*
X17673000Y-16326250D01*
X17673000Y-15127000D01*
X17927000Y-15127000D01*
X17927000Y-16326250D01*
X18085750Y-16485000D01*
X18776310Y-16485000D01*
X19009699Y-16388327D01*
X19188327Y-16209698D01*
X19285000Y-15976309D01*
X19285000Y-15285750D01*
X19126250Y-15127000D01*
X17927000Y-15127000D01*
X17673000Y-15127000D01*
X17653000Y-15127000D01*
X17653000Y-14873000D01*
X17673000Y-14873000D01*
X17673000Y-13673750D01*
X17927000Y-13673750D01*
X17927000Y-14873000D01*
X19126250Y-14873000D01*
X19285000Y-14714250D01*
X19285000Y-14023691D01*
X19188327Y-13790302D01*
X19009699Y-13611673D01*
X18776310Y-13515000D01*
X18085750Y-13515000D01*
X17927000Y-13673750D01*
X17673000Y-13673750D01*
X17514250Y-13515000D01*
X16823690Y-13515000D01*
X16590301Y-13611673D01*
X16411673Y-13790302D01*
X16345096Y-13951033D01*
X16330625Y-13929375D01*
X16028412Y-13727443D01*
X16020000Y-13685152D01*
X16020000Y-13685148D01*
X15975904Y-13463463D01*
X15934102Y-13400902D01*
X15850329Y-13275526D01*
X15850327Y-13275524D01*
X15807929Y-13212071D01*
X15744476Y-13169673D01*
X15260000Y-12685198D01*
X15260000Y-5203711D01*
X15377431Y-5086280D01*
X15535000Y-4705874D01*
X15535000Y-4294126D01*
X15377431Y-3913720D01*
X15086280Y-3622569D01*
X15035000Y-3601328D01*
X15035000Y-3294126D01*
X14877431Y-2913720D01*
X14586280Y-2622569D01*
X14205874Y-2465000D01*
X13794126Y-2465000D01*
X13413720Y-2622569D01*
X13296289Y-2740000D01*
X11703711Y-2740000D01*
X11586280Y-2622569D01*
X11205874Y-2465000D01*
X10794126Y-2465000D01*
X10440000Y-2611683D01*
X10440000Y-2257236D01*
X10498289Y-2218289D01*
X10737690Y-1860000D01*
X17262311Y-1860000D01*
X17501711Y-2218289D01*
X17560000Y-2257237D01*
X17560001Y-3872764D01*
X17501712Y-3911711D01*
X17464720Y-3967074D01*
X17433797Y-3936151D01*
X17080956Y-3790000D01*
X16699044Y-3790000D01*
X16346203Y-3936151D01*
X16076151Y-4206203D01*
X15930000Y-4559044D01*
X15930000Y-4940956D01*
X16076151Y-5293797D01*
X16346203Y-5563849D01*
X16699044Y-5710000D01*
X17080956Y-5710000D01*
X17185000Y-5666904D01*
X17185000Y-5941782D01*
X17250854Y-6272854D01*
X17501711Y-6648289D01*
X17877145Y-6899146D01*
X18320000Y-6987235D01*
X18762854Y-6899146D01*
X19138289Y-6648289D01*
X19389146Y-6272855D01*
X19455000Y-5941783D01*
X19455000Y-4618217D01*
X19389146Y-4287145D01*
X19138289Y-3911711D01*
X19080000Y-3872764D01*
X19080000Y-2257236D01*
X19138289Y-2218289D01*
X19180652Y-2154887D01*
X23765000Y-2154887D01*
X23765000Y-2845113D01*
X24029138Y-3482799D01*
X24517201Y-3970862D01*
X25154887Y-4235000D01*
X25845113Y-4235000D01*
X26482799Y-3970862D01*
X26970862Y-3482799D01*
X27235000Y-2845113D01*
X27235000Y-2154887D01*
X26970862Y-1517201D01*
X26482799Y-1029138D01*
X25845113Y-765000D01*
X25154887Y-765000D01*
X24517201Y-1029138D01*
X24029138Y-1517201D01*
X23765000Y-2154887D01*
X19180652Y-2154887D01*
X19389146Y-1842855D01*
X19455000Y-1511783D01*
X19455000Y-710000D01*
X25455335Y-710000D01*
X25943752Y-771701D01*
X26359620Y-936355D01*
X26721476Y-1199259D01*
X27006581Y-1543891D01*
X27197024Y-1948604D01*
X27287172Y-2421175D01*
X27290000Y-2511163D01*
X27290001Y-22955320D01*
X27228299Y-23443751D01*
X27063646Y-23859618D01*
X26800741Y-24221477D01*
X26456105Y-24506583D01*
X26051395Y-24697024D01*
X25578825Y-24787172D01*
X25488837Y-24790000D01*
X2544673Y-24790000D01*
X2056249Y-24728299D01*
X1640382Y-24563646D01*
X1278523Y-24300741D01*
X993417Y-23956105D01*
X802976Y-23551395D01*
X712828Y-23078825D01*
X710000Y-22988837D01*
X710000Y-22654887D01*
X765000Y-22654887D01*
X765000Y-23345113D01*
X1029138Y-23982799D01*
X1517201Y-24470862D01*
X2154887Y-24735000D01*
X2845113Y-24735000D01*
X3482799Y-24470862D01*
X3970862Y-23982799D01*
X4235000Y-23345113D01*
X4235000Y-22654887D01*
X23765000Y-22654887D01*
X23765000Y-23345113D01*
X24029138Y-23982799D01*
X24517201Y-24470862D01*
X25154887Y-24735000D01*
X25845113Y-24735000D01*
X26482799Y-24470862D01*
X26970862Y-23982799D01*
X27235000Y-23345113D01*
X27235000Y-22654887D01*
X26970862Y-22017201D01*
X26482799Y-21529138D01*
X25845113Y-21265000D01*
X25154887Y-21265000D01*
X24517201Y-21529138D01*
X24029138Y-22017201D01*
X23765000Y-22654887D01*
X4235000Y-22654887D01*
X3970862Y-22017201D01*
X3482799Y-21529138D01*
X2845113Y-21265000D01*
X2154887Y-21265000D01*
X1517201Y-21529138D01*
X1029138Y-22017201D01*
X765000Y-22654887D01*
X710000Y-22654887D01*
X710000Y-10294126D01*
X9465000Y-10294126D01*
X9465000Y-10705874D01*
X9622569Y-11086280D01*
X9913720Y-11377431D01*
X10294126Y-11535000D01*
X10705874Y-11535000D01*
X11086280Y-11377431D01*
X11203711Y-11260000D01*
X11796289Y-11260000D01*
X11913720Y-11377431D01*
X12294126Y-11535000D01*
X12705874Y-11535000D01*
X13086280Y-11377431D01*
X13377431Y-11086280D01*
X13535000Y-10705874D01*
X13535000Y-10294126D01*
X13377431Y-9913720D01*
X13086280Y-9622569D01*
X12705874Y-9465000D01*
X12294126Y-9465000D01*
X11913720Y-9622569D01*
X11796289Y-9740000D01*
X11203711Y-9740000D01*
X11086280Y-9622569D01*
X10705874Y-9465000D01*
X10294126Y-9465000D01*
X9913720Y-9622569D01*
X9622569Y-9913720D01*
X9465000Y-10294126D01*
X710000Y-10294126D01*
X710000Y-2544665D01*
X759240Y-2154887D01*
X765000Y-2154887D01*
X765000Y-2845113D01*
X1029138Y-3482799D01*
X1517201Y-3970862D01*
X2154887Y-4235000D01*
X2845113Y-4235000D01*
X3482799Y-3970862D01*
X3970862Y-3482799D01*
X4235000Y-2845113D01*
X4235000Y-2154887D01*
X3970862Y-1517201D01*
X3482799Y-1029138D01*
X2845113Y-765000D01*
X2154887Y-765000D01*
X1517201Y-1029138D01*
X1029138Y-1517201D01*
X765000Y-2154887D01*
X759240Y-2154887D01*
X771701Y-2056248D01*
X936355Y-1640380D01*
X1199259Y-1278524D01*
X1543891Y-993419D01*
X1948604Y-802976D01*
X2421175Y-712828D01*
X2511163Y-710000D01*
X8545000Y-710000D01*
X8545000Y-1511782D01*
G04 #@! TD*
M02*
