M48
;DRILL file {KiCad (5.0.1)-4} date 12/8/2018 5:27:04 AM
;FORMAT={-:-/ absolute / inch / decimal}
FMAT,2
INCH,TZ
T1C0.0157
T2C0.0394
T3C0.0591
%
G90
G05
M72
T1
X5.4724Y-6.3976
X5.7283Y-6.3671
X5.8071Y-6.378
X6.0039Y-1.4961
X6.063Y-6.2996
X6.122Y-2.4409
X6.3189Y-6.2584
X6.378Y-6.0433
X6.4308Y-6.2143
X6.437Y-5.9449
X6.437Y-6.3386
X6.4764Y-5.9843
X6.4879Y-6.4682
X6.5157Y-6.4173
X6.5157Y-6.5069
X6.5354Y-6.378
X6.54Y-6.2946
X6.5551Y-6.1811
X6.5551Y-6.5157
X6.5748Y-5.9843
X6.6096Y-6.225
X6.6142Y-6.4961
X6.6797Y-6.4237
X6.6929Y-3.5433
X6.719Y-6.3844
X6.7558Y-6.3984
X6.7913Y-6.063
X6.8025Y-6.5458
X6.811Y-6.378
X6.8307Y-6.5743
X6.8504Y-5.6102
X6.9094Y-5.6102
X6.9094Y-6.2992
X7.0669Y-4.1929
X7.0866Y-5.8465
X7.0866Y-6.2402
X7.1654Y-6.4567
X7.2638Y-5.4724
X7.2835Y-5.5118
X7.2835Y-5.5709
X7.3228Y-5.8071
X7.3425Y-6.5354
X7.3541Y-6.3467
X7.3615Y-6.4973
X7.3617Y-6.4572
X7.3622Y-6.4173
X7.3819Y-4.9016
X7.3819Y-6.3189
X7.3819Y-6.378
X7.4016Y-5.689
X7.4409Y-5.8268
X7.4409Y-6.2402
X7.4803Y-5.5906
X7.4803Y-5.7677
X7.4803Y-5.8465
X7.4803Y-5.9055
X7.5197Y-5.6191
X7.5202Y-5.906
X7.5204Y-5.9461
X7.6575Y-6.1811
X7.7357Y-5.7879
X7.815Y-5.7087
X8.3268Y-5.748
X8.4646Y-5.6211
X8.563Y-5.8858
X8.622Y-5.4724
X8.7205Y-5.7283
X8.8976Y-6.1024
X10.2559Y-5.6693
X10.5118Y-5.6299
X11.3583Y-4.8031
X11.5354Y-5.7874
X11.5551Y-4.626
X12.1063Y-4.0748
X12.126Y-4.3898
X12.126Y-5.
X12.185Y-3.7992
X12.3228Y-3.6417
X12.3228Y-4.2126
X12.3228Y-4.7638
X12.3622Y-4.0748
X14.9601Y-1.1412
X15.0295Y-1.2205
X15.374Y-1.8307
T2
X4.7394Y-6.4961
X4.8394Y-6.4961
X4.9394Y-6.4961
X5.0394Y-6.4961
X14.7618Y-1.064
X14.7618Y-1.2608
X15.3327Y-1.064
X15.3327Y-1.1624
X15.3327Y-1.2608
T3
X5.2771Y-5.4114
X5.3263Y-5.1634
X10.1521Y-6.1614
X10.2013Y-5.9134
X13.7146Y-6.1614
X13.7638Y-5.9134
X10.8083Y-5.4114
X10.8575Y-5.1634
X9.5896Y-1.2864
X9.6388Y-1.0384
X11.6521Y-3.9114
X11.7013Y-3.6634
X3.7771Y-1.2864
X3.8263Y-1.0384
X15.2146Y-3.9114
X15.2638Y-3.6634
X11.0896Y-1.2864
X11.1388Y-1.0384
X3.2146Y-3.9114
X3.2638Y-3.6634
X7.7146Y-3.9114
X7.7638Y-3.6634
X3.4021Y-4.6614
X3.4513Y-4.4134
X5.0896Y-3.1614
X5.1388Y-2.9134
X6.1021Y-2.2239
X6.1513Y-1.9759
X11.0896Y-2.2239
X11.1388Y-1.9759
X12.7771Y-2.2239
X12.8263Y-1.9759
X14.4646Y-5.4114
X14.5138Y-5.1634
X13.7146Y-3.1614
X13.7638Y-2.9134
X15.2146Y-4.6614
X15.2638Y-4.4134
X6.0271Y-5.4114
X6.0763Y-5.1634
X9.7771Y-5.4114
X9.8263Y-5.1634
X1.4333Y-6.1614
X1.4825Y-5.9134
X9.9646Y-3.9114
X10.0138Y-3.6634
X8.6521Y-1.2864
X8.7013Y-1.0384
X11.4646Y-3.1614
X11.5138Y-2.9134
X4.7146Y-3.9114
X4.7638Y-3.6634
X3.0271Y-1.2864
X3.0763Y-1.0384
X3.9646Y-3.9114
X4.0138Y-3.6634
X1.5271Y-3.9114
X1.5763Y-3.6634
X14.4646Y-4.6614
X14.5138Y-4.4134
X9.2146Y-3.9114
X9.2638Y-3.6634
X12.7771Y-1.2864
X12.8263Y-1.0384
X7.3396Y-3.1614
X7.3888Y-2.9134
X6.8521Y-2.2239
X6.9013Y-1.9759
X3.5896Y-3.1614
X3.6388Y-2.9134
X12.9646Y-5.4114
X13.0138Y-5.1634
X1.3396Y-2.2239
X1.3888Y-1.9759
X13.7146Y-5.4114
X13.7638Y-5.1634
X9.0271Y-6.1614
X9.0763Y-5.9134
X12.7771Y-6.3489
X12.8263Y-6.1009
X7.1521Y-4.6614
X7.2013Y-4.4134
X12.9646Y-4.6614
X13.0138Y-4.4134
X4.1521Y-4.6614
X4.2013Y-4.4134
X2.4646Y-3.9114
X2.5138Y-3.6634
X10.1521Y-4.6614
X10.2013Y-4.4134
X1.3396Y-3.1614
X1.3888Y-2.9134
X5.8396Y-3.1614
X5.8888Y-2.9134
X5.3521Y-2.2239
X5.4013Y-1.9759
X2.0896Y-3.1614
X2.1388Y-2.9134
X12.0271Y-5.5989
X12.0763Y-5.3509
X6.5896Y-3.1614
X6.6388Y-2.9134
X11.2771Y-6.3489
X11.3263Y-6.1009
X9.0271Y-5.4114
X9.0763Y-5.1634
X8.2771Y-5.4114
X8.3263Y-5.1634
X10.7146Y-3.9114
X10.7638Y-3.6634
X7.9021Y-4.6614
X7.9513Y-4.4134
X1.3396Y-1.2864
X1.3888Y-1.0384
X12.9646Y-3.9114
X13.0138Y-3.6634
X6.9646Y-3.9114
X7.0138Y-3.6634
X9.4021Y-4.6614
X9.4513Y-4.4134
X10.3396Y-3.1614
X10.3888Y-2.9134
X9.3646Y-2.2239
X9.4138Y-1.9759
X2.8396Y-3.1614
X2.8888Y-2.9134
X14.2771Y-1.2864
X14.3263Y-1.0384
X12.0271Y-2.2239
X12.0763Y-1.9759
X3.7771Y-5.4114
X3.8263Y-5.1634
X12.7771Y-2.9739
X12.8263Y-2.7259
X14.9134Y-5.8396
X15.1614Y-5.8888
X12.0271Y-6.3489
X12.0763Y-6.1009
X10.3396Y-1.2864
X10.3888Y-1.0384
X13.7146Y-4.6614
X13.7638Y-4.4134
X7.9021Y-1.2864
X7.9513Y-1.0384
X6.1208Y-6.1614
X6.17Y-5.9134
X11.3708Y-4.6614
X11.42Y-4.4134
X2.2771Y-1.2864
X2.3263Y-1.0384
X15.2146Y-3.1614
X15.2638Y-2.9134
X6.4021Y-4.6614
X6.4513Y-4.4134
X8.6521Y-4.6614
X8.7013Y-4.4134
X9.5896Y-3.1614
X9.6388Y-2.9134
X10.1146Y-2.2239
X10.1638Y-1.9759
X15.2146Y-2.2239
X15.2638Y-1.9759
X2.8396Y-2.2239
X2.8888Y-1.9759
X7.8646Y-2.2239
X7.9138Y-1.9759
X1.8083Y-5.4114
X1.8575Y-5.1634
X6.7771Y-5.4114
X6.8263Y-5.1634
X3.3083Y-6.1614
X3.3575Y-5.9134
X7.1521Y-1.2864
X7.2013Y-1.0384
X5.6521Y-4.6614
X5.7013Y-4.4134
X6.2146Y-1.2864
X6.2638Y-1.0384
X4.9021Y-4.6614
X4.9513Y-4.4134
X12.0271Y-1.2864
X12.0763Y-1.0384
X13.7146Y-3.9114
X13.7638Y-3.6634
X14.4646Y-3.9114
X14.5138Y-3.6634
X2.6521Y-4.6614
X2.7013Y-4.4134
X8.8396Y-3.1614
X8.8888Y-2.9134
X13.5271Y-2.2239
X13.5763Y-1.9759
X4.6021Y-2.2239
X4.6513Y-1.9759
X14.4646Y-2.2239
X14.5138Y-1.9759
X13.5271Y-1.2864
X13.5763Y-1.0384
X7.5271Y-5.4114
X7.5763Y-5.1634
X14.4646Y-6.1614
X14.5138Y-5.9134
X4.5271Y-5.4114
X4.5763Y-5.1634
X2.3708Y-6.1614
X2.42Y-5.9134
X4.7146Y-1.2864
X4.7638Y-1.0384
X5.4646Y-3.9114
X5.5138Y-3.6634
X5.4646Y-1.2864
X5.5138Y-1.0384
X14.4646Y-3.1614
X14.5138Y-2.9134
X8.4646Y-3.9114
X8.5138Y-3.6634
X1.6208Y-4.6614
X1.67Y-4.4134
X6.2146Y-3.9114
X6.2638Y-3.6634
X3.5896Y-2.2239
X3.6388Y-1.9759
X8.6146Y-2.2239
X8.6638Y-1.9759
X2.0896Y-2.2239
X2.1388Y-1.9759
X4.3396Y-3.1614
X4.3888Y-2.9134
X8.0896Y-3.1614
X8.1388Y-2.9134
X3.0271Y-5.4114
X3.0763Y-5.1634
T3
X15.063Y-0.9419G85X15.0118Y-0.9419
G05
X15.063Y-1.3829G85X15.0118Y-1.3829
G05
T0
M30
