G04 #@! TF.GenerationSoftware,KiCad,Pcbnew,(5.0.1)-4*
G04 #@! TF.CreationDate,2018-12-08T05:26:55-08:00*
G04 #@! TF.ProjectId,cbc1,636263312E6B696361645F7063620000,rev?*
G04 #@! TF.SameCoordinates,Original*
G04 #@! TF.FileFunction,Legend,Top*
G04 #@! TF.FilePolarity,Positive*
%FSLAX46Y46*%
G04 Gerber Fmt 4.6, Leading zero omitted, Abs format (unit mm)*
G04 Created by KiCad (PCBNEW (5.0.1)-4) date 12/8/2018 5:26:55 AM*
%MOMM*%
%LPD*%
G01*
G04 APERTURE LIST*
%ADD10C,0.381000*%
%ADD11C,0.120000*%
%ADD12C,0.150000*%
G04 APERTURE END LIST*
D10*
G04 #@! TO.C,K6:5*
X155540750Y-147000000D02*
X157318750Y-147000000D01*
X144618750Y-147000000D02*
X146396750Y-147000000D01*
X144618750Y-148778000D02*
X144618750Y-147000000D01*
X144618750Y-159700000D02*
X144618750Y-157922000D01*
X146396750Y-159700000D02*
X144618750Y-159700000D01*
X157318750Y-159700000D02*
X155540750Y-159700000D01*
X157318750Y-157922000D02*
X157318750Y-159700000D01*
X157318750Y-147000000D02*
X157318750Y-148778000D01*
G04 #@! TO.C,K2:13*
X293050000Y-70800000D02*
X293050000Y-72578000D01*
X293050000Y-81722000D02*
X293050000Y-83500000D01*
X293050000Y-83500000D02*
X291272000Y-83500000D01*
X282128000Y-83500000D02*
X280350000Y-83500000D01*
X280350000Y-83500000D02*
X280350000Y-81722000D01*
X280350000Y-72578000D02*
X280350000Y-70800000D01*
X280350000Y-70800000D02*
X282128000Y-70800000D01*
X291272000Y-70800000D02*
X293050000Y-70800000D01*
G04 #@! TO.C,K0:0*
X35875000Y-23175000D02*
X35875000Y-24953000D01*
X35875000Y-34097000D02*
X35875000Y-35875000D01*
X35875000Y-35875000D02*
X34097000Y-35875000D01*
X24953000Y-35875000D02*
X23175000Y-35875000D01*
X23175000Y-35875000D02*
X23175000Y-34097000D01*
X23175000Y-24953000D02*
X23175000Y-23175000D01*
X23175000Y-23175000D02*
X24953000Y-23175000D01*
X34097000Y-23175000D02*
X35875000Y-23175000D01*
G04 #@! TO.C,K0:1*
X59687500Y-23175000D02*
X59687500Y-24953000D01*
X59687500Y-34097000D02*
X59687500Y-35875000D01*
X59687500Y-35875000D02*
X57909500Y-35875000D01*
X48765500Y-35875000D02*
X46987500Y-35875000D01*
X46987500Y-35875000D02*
X46987500Y-34097000D01*
X46987500Y-24953000D02*
X46987500Y-23175000D01*
X46987500Y-23175000D02*
X48765500Y-23175000D01*
X57909500Y-23175000D02*
X59687500Y-23175000D01*
G04 #@! TO.C,K0:2*
X76959500Y-23175000D02*
X78737500Y-23175000D01*
X66037500Y-23175000D02*
X67815500Y-23175000D01*
X66037500Y-24953000D02*
X66037500Y-23175000D01*
X66037500Y-35875000D02*
X66037500Y-34097000D01*
X67815500Y-35875000D02*
X66037500Y-35875000D01*
X78737500Y-35875000D02*
X76959500Y-35875000D01*
X78737500Y-34097000D02*
X78737500Y-35875000D01*
X78737500Y-23175000D02*
X78737500Y-24953000D01*
G04 #@! TO.C,K0:3*
X96009500Y-23175000D02*
X97787500Y-23175000D01*
X85087500Y-23175000D02*
X86865500Y-23175000D01*
X85087500Y-24953000D02*
X85087500Y-23175000D01*
X85087500Y-35875000D02*
X85087500Y-34097000D01*
X86865500Y-35875000D02*
X85087500Y-35875000D01*
X97787500Y-35875000D02*
X96009500Y-35875000D01*
X97787500Y-34097000D02*
X97787500Y-35875000D01*
X97787500Y-23175000D02*
X97787500Y-24953000D01*
G04 #@! TO.C,K0:4*
X119822000Y-23175000D02*
X121600000Y-23175000D01*
X108900000Y-23175000D02*
X110678000Y-23175000D01*
X108900000Y-24953000D02*
X108900000Y-23175000D01*
X108900000Y-35875000D02*
X108900000Y-34097000D01*
X110678000Y-35875000D02*
X108900000Y-35875000D01*
X121600000Y-35875000D02*
X119822000Y-35875000D01*
X121600000Y-34097000D02*
X121600000Y-35875000D01*
X121600000Y-23175000D02*
X121600000Y-24953000D01*
G04 #@! TO.C,K0:5*
X138872000Y-23175000D02*
X140650000Y-23175000D01*
X127950000Y-23175000D02*
X129728000Y-23175000D01*
X127950000Y-24953000D02*
X127950000Y-23175000D01*
X127950000Y-35875000D02*
X127950000Y-34097000D01*
X129728000Y-35875000D02*
X127950000Y-35875000D01*
X140650000Y-35875000D02*
X138872000Y-35875000D01*
X140650000Y-34097000D02*
X140650000Y-35875000D01*
X140650000Y-23175000D02*
X140650000Y-24953000D01*
G04 #@! TO.C,K0:6*
X159700000Y-23175000D02*
X159700000Y-24953000D01*
X159700000Y-34097000D02*
X159700000Y-35875000D01*
X159700000Y-35875000D02*
X157922000Y-35875000D01*
X148778000Y-35875000D02*
X147000000Y-35875000D01*
X147000000Y-35875000D02*
X147000000Y-34097000D01*
X147000000Y-24953000D02*
X147000000Y-23175000D01*
X147000000Y-23175000D02*
X148778000Y-23175000D01*
X157922000Y-23175000D02*
X159700000Y-23175000D01*
G04 #@! TO.C,K0:7*
X181734500Y-23175000D02*
X183512500Y-23175000D01*
X170812500Y-23175000D02*
X172590500Y-23175000D01*
X170812500Y-24953000D02*
X170812500Y-23175000D01*
X170812500Y-35875000D02*
X170812500Y-34097000D01*
X172590500Y-35875000D02*
X170812500Y-35875000D01*
X183512500Y-35875000D02*
X181734500Y-35875000D01*
X183512500Y-34097000D02*
X183512500Y-35875000D01*
X183512500Y-23175000D02*
X183512500Y-24953000D01*
G04 #@! TO.C,K0:8*
X200784500Y-23175000D02*
X202562500Y-23175000D01*
X189862500Y-23175000D02*
X191640500Y-23175000D01*
X189862500Y-24953000D02*
X189862500Y-23175000D01*
X189862500Y-35875000D02*
X189862500Y-34097000D01*
X191640500Y-35875000D02*
X189862500Y-35875000D01*
X202562500Y-35875000D02*
X200784500Y-35875000D01*
X202562500Y-34097000D02*
X202562500Y-35875000D01*
X202562500Y-23175000D02*
X202562500Y-24953000D01*
G04 #@! TO.C,K0:9*
X221612500Y-23175000D02*
X221612500Y-24953000D01*
X221612500Y-34097000D02*
X221612500Y-35875000D01*
X221612500Y-35875000D02*
X219834500Y-35875000D01*
X210690500Y-35875000D02*
X208912500Y-35875000D01*
X208912500Y-35875000D02*
X208912500Y-34097000D01*
X208912500Y-24953000D02*
X208912500Y-23175000D01*
X208912500Y-23175000D02*
X210690500Y-23175000D01*
X219834500Y-23175000D02*
X221612500Y-23175000D01*
G04 #@! TO.C,K0:10*
X245425000Y-23175000D02*
X245425000Y-24953000D01*
X245425000Y-34097000D02*
X245425000Y-35875000D01*
X245425000Y-35875000D02*
X243647000Y-35875000D01*
X234503000Y-35875000D02*
X232725000Y-35875000D01*
X232725000Y-35875000D02*
X232725000Y-34097000D01*
X232725000Y-24953000D02*
X232725000Y-23175000D01*
X232725000Y-23175000D02*
X234503000Y-23175000D01*
X243647000Y-23175000D02*
X245425000Y-23175000D01*
G04 #@! TO.C,K0:11*
X262697000Y-23175000D02*
X264475000Y-23175000D01*
X251775000Y-23175000D02*
X253553000Y-23175000D01*
X251775000Y-24953000D02*
X251775000Y-23175000D01*
X251775000Y-35875000D02*
X251775000Y-34097000D01*
X253553000Y-35875000D02*
X251775000Y-35875000D01*
X264475000Y-35875000D02*
X262697000Y-35875000D01*
X264475000Y-34097000D02*
X264475000Y-35875000D01*
X264475000Y-23175000D02*
X264475000Y-24953000D01*
G04 #@! TO.C,K0:12*
X281747000Y-23175000D02*
X283525000Y-23175000D01*
X270825000Y-23175000D02*
X272603000Y-23175000D01*
X270825000Y-24953000D02*
X270825000Y-23175000D01*
X270825000Y-35875000D02*
X270825000Y-34097000D01*
X272603000Y-35875000D02*
X270825000Y-35875000D01*
X283525000Y-35875000D02*
X281747000Y-35875000D01*
X283525000Y-34097000D02*
X283525000Y-35875000D01*
X283525000Y-23175000D02*
X283525000Y-24953000D01*
G04 #@! TO.C,K0:13*
X307337500Y-23175000D02*
X307337500Y-24953000D01*
X307337500Y-34097000D02*
X307337500Y-35875000D01*
X307337500Y-35875000D02*
X305559500Y-35875000D01*
X296415500Y-35875000D02*
X294637500Y-35875000D01*
X294637500Y-35875000D02*
X294637500Y-34097000D01*
X294637500Y-24953000D02*
X294637500Y-23175000D01*
X294637500Y-23175000D02*
X296415500Y-23175000D01*
X305559500Y-23175000D02*
X307337500Y-23175000D01*
G04 #@! TO.C,K0:14*
X326387500Y-23175000D02*
X326387500Y-24953000D01*
X326387500Y-34097000D02*
X326387500Y-35875000D01*
X326387500Y-35875000D02*
X324609500Y-35875000D01*
X315465500Y-35875000D02*
X313687500Y-35875000D01*
X313687500Y-35875000D02*
X313687500Y-34097000D01*
X313687500Y-24953000D02*
X313687500Y-23175000D01*
X313687500Y-23175000D02*
X315465500Y-23175000D01*
X324609500Y-23175000D02*
X326387500Y-23175000D01*
G04 #@! TO.C,K0:15*
X343659500Y-23175000D02*
X345437500Y-23175000D01*
X332737500Y-23175000D02*
X334515500Y-23175000D01*
X332737500Y-24953000D02*
X332737500Y-23175000D01*
X332737500Y-35875000D02*
X332737500Y-34097000D01*
X334515500Y-35875000D02*
X332737500Y-35875000D01*
X345437500Y-35875000D02*
X343659500Y-35875000D01*
X345437500Y-34097000D02*
X345437500Y-35875000D01*
X345437500Y-23175000D02*
X345437500Y-24953000D01*
G04 #@! TO.C,K0:16*
X364487500Y-23175000D02*
X364487500Y-24953000D01*
X364487500Y-34097000D02*
X364487500Y-35875000D01*
X364487500Y-35875000D02*
X362709500Y-35875000D01*
X353565500Y-35875000D02*
X351787500Y-35875000D01*
X351787500Y-35875000D02*
X351787500Y-34097000D01*
X351787500Y-24953000D02*
X351787500Y-23175000D01*
X351787500Y-23175000D02*
X353565500Y-23175000D01*
X362709500Y-23175000D02*
X364487500Y-23175000D01*
G04 #@! TO.C,K1:0*
X34097000Y-46987500D02*
X35875000Y-46987500D01*
X23175000Y-46987500D02*
X24953000Y-46987500D01*
X23175000Y-48765500D02*
X23175000Y-46987500D01*
X23175000Y-59687500D02*
X23175000Y-57909500D01*
X24953000Y-59687500D02*
X23175000Y-59687500D01*
X35875000Y-59687500D02*
X34097000Y-59687500D01*
X35875000Y-57909500D02*
X35875000Y-59687500D01*
X35875000Y-46987500D02*
X35875000Y-48765500D01*
G04 #@! TO.C,K1:1*
X54925000Y-46987500D02*
X54925000Y-48765500D01*
X54925000Y-57909500D02*
X54925000Y-59687500D01*
X54925000Y-59687500D02*
X53147000Y-59687500D01*
X44003000Y-59687500D02*
X42225000Y-59687500D01*
X42225000Y-59687500D02*
X42225000Y-57909500D01*
X42225000Y-48765500D02*
X42225000Y-46987500D01*
X42225000Y-46987500D02*
X44003000Y-46987500D01*
X53147000Y-46987500D02*
X54925000Y-46987500D01*
G04 #@! TO.C,K1:2*
X72197000Y-46987500D02*
X73975000Y-46987500D01*
X61275000Y-46987500D02*
X63053000Y-46987500D01*
X61275000Y-48765500D02*
X61275000Y-46987500D01*
X61275000Y-59687500D02*
X61275000Y-57909500D01*
X63053000Y-59687500D02*
X61275000Y-59687500D01*
X73975000Y-59687500D02*
X72197000Y-59687500D01*
X73975000Y-57909500D02*
X73975000Y-59687500D01*
X73975000Y-46987500D02*
X73975000Y-48765500D01*
G04 #@! TO.C,K1:3*
X91247000Y-46987500D02*
X93025000Y-46987500D01*
X80325000Y-46987500D02*
X82103000Y-46987500D01*
X80325000Y-48765500D02*
X80325000Y-46987500D01*
X80325000Y-59687500D02*
X80325000Y-57909500D01*
X82103000Y-59687500D02*
X80325000Y-59687500D01*
X93025000Y-59687500D02*
X91247000Y-59687500D01*
X93025000Y-57909500D02*
X93025000Y-59687500D01*
X93025000Y-46987500D02*
X93025000Y-48765500D01*
G04 #@! TO.C,K1:4*
X118742500Y-46987500D02*
X118742500Y-48765500D01*
X118742500Y-57909500D02*
X118742500Y-59687500D01*
X118742500Y-59687500D02*
X116964500Y-59687500D01*
X107820500Y-59687500D02*
X106042500Y-59687500D01*
X106042500Y-59687500D02*
X106042500Y-57909500D01*
X106042500Y-48765500D02*
X106042500Y-46987500D01*
X106042500Y-46987500D02*
X107820500Y-46987500D01*
X116964500Y-46987500D02*
X118742500Y-46987500D01*
G04 #@! TO.C,K1:5*
X137792500Y-46987500D02*
X137792500Y-48765500D01*
X137792500Y-57909500D02*
X137792500Y-59687500D01*
X137792500Y-59687500D02*
X136014500Y-59687500D01*
X126870500Y-59687500D02*
X125092500Y-59687500D01*
X125092500Y-59687500D02*
X125092500Y-57909500D01*
X125092500Y-48765500D02*
X125092500Y-46987500D01*
X125092500Y-46987500D02*
X126870500Y-46987500D01*
X136014500Y-46987500D02*
X137792500Y-46987500D01*
G04 #@! TO.C,K1:6*
X155064500Y-46987500D02*
X156842500Y-46987500D01*
X144142500Y-46987500D02*
X145920500Y-46987500D01*
X144142500Y-48765500D02*
X144142500Y-46987500D01*
X144142500Y-59687500D02*
X144142500Y-57909500D01*
X145920500Y-59687500D02*
X144142500Y-59687500D01*
X156842500Y-59687500D02*
X155064500Y-59687500D01*
X156842500Y-57909500D02*
X156842500Y-59687500D01*
X156842500Y-46987500D02*
X156842500Y-48765500D01*
G04 #@! TO.C,K1:7*
X175892500Y-46987500D02*
X175892500Y-48765500D01*
X175892500Y-57909500D02*
X175892500Y-59687500D01*
X175892500Y-59687500D02*
X174114500Y-59687500D01*
X164970500Y-59687500D02*
X163192500Y-59687500D01*
X163192500Y-59687500D02*
X163192500Y-57909500D01*
X163192500Y-48765500D02*
X163192500Y-46987500D01*
X163192500Y-46987500D02*
X164970500Y-46987500D01*
X174114500Y-46987500D02*
X175892500Y-46987500D01*
G04 #@! TO.C,K1:8*
X199832000Y-46987500D02*
X201610000Y-46987500D01*
X188910000Y-46987500D02*
X190688000Y-46987500D01*
X188910000Y-48765500D02*
X188910000Y-46987500D01*
X188910000Y-59687500D02*
X188910000Y-57909500D01*
X190688000Y-59687500D02*
X188910000Y-59687500D01*
X201610000Y-59687500D02*
X199832000Y-59687500D01*
X201610000Y-57909500D02*
X201610000Y-59687500D01*
X201610000Y-46987500D02*
X201610000Y-48765500D01*
G04 #@! TO.C,K1:9*
X218882000Y-46987500D02*
X220660000Y-46987500D01*
X207960000Y-46987500D02*
X209738000Y-46987500D01*
X207960000Y-48765500D02*
X207960000Y-46987500D01*
X207960000Y-59687500D02*
X207960000Y-57909500D01*
X209738000Y-59687500D02*
X207960000Y-59687500D01*
X220660000Y-59687500D02*
X218882000Y-59687500D01*
X220660000Y-57909500D02*
X220660000Y-59687500D01*
X220660000Y-46987500D02*
X220660000Y-48765500D01*
G04 #@! TO.C,K1:10*
X237932000Y-46987500D02*
X239710000Y-46987500D01*
X227010000Y-46987500D02*
X228788000Y-46987500D01*
X227010000Y-48765500D02*
X227010000Y-46987500D01*
X227010000Y-59687500D02*
X227010000Y-57909500D01*
X228788000Y-59687500D02*
X227010000Y-59687500D01*
X239710000Y-59687500D02*
X237932000Y-59687500D01*
X239710000Y-57909500D02*
X239710000Y-59687500D01*
X239710000Y-46987500D02*
X239710000Y-48765500D01*
G04 #@! TO.C,K1:11*
X258760000Y-46987500D02*
X258760000Y-48765500D01*
X258760000Y-57909500D02*
X258760000Y-59687500D01*
X258760000Y-59687500D02*
X256982000Y-59687500D01*
X247838000Y-59687500D02*
X246060000Y-59687500D01*
X246060000Y-59687500D02*
X246060000Y-57909500D01*
X246060000Y-48765500D02*
X246060000Y-46987500D01*
X246060000Y-46987500D02*
X247838000Y-46987500D01*
X256982000Y-46987500D02*
X258760000Y-46987500D01*
G04 #@! TO.C,K1:12*
X283525000Y-46987500D02*
X283525000Y-48765500D01*
X283525000Y-57909500D02*
X283525000Y-59687500D01*
X283525000Y-59687500D02*
X281747000Y-59687500D01*
X272603000Y-59687500D02*
X270825000Y-59687500D01*
X270825000Y-59687500D02*
X270825000Y-57909500D01*
X270825000Y-48765500D02*
X270825000Y-46987500D01*
X270825000Y-46987500D02*
X272603000Y-46987500D01*
X281747000Y-46987500D02*
X283525000Y-46987500D01*
G04 #@! TO.C,K1:13*
X307337500Y-46987500D02*
X307337500Y-48765500D01*
X307337500Y-57909500D02*
X307337500Y-59687500D01*
X307337500Y-59687500D02*
X305559500Y-59687500D01*
X296415500Y-59687500D02*
X294637500Y-59687500D01*
X294637500Y-59687500D02*
X294637500Y-57909500D01*
X294637500Y-48765500D02*
X294637500Y-46987500D01*
X294637500Y-46987500D02*
X296415500Y-46987500D01*
X305559500Y-46987500D02*
X307337500Y-46987500D01*
G04 #@! TO.C,K1:14*
X324609500Y-46987500D02*
X326387500Y-46987500D01*
X313687500Y-46987500D02*
X315465500Y-46987500D01*
X313687500Y-48765500D02*
X313687500Y-46987500D01*
X313687500Y-59687500D02*
X313687500Y-57909500D01*
X315465500Y-59687500D02*
X313687500Y-59687500D01*
X326387500Y-59687500D02*
X324609500Y-59687500D01*
X326387500Y-57909500D02*
X326387500Y-59687500D01*
X326387500Y-46987500D02*
X326387500Y-48765500D01*
G04 #@! TO.C,K1:15*
X345437500Y-46987500D02*
X345437500Y-48765500D01*
X345437500Y-57909500D02*
X345437500Y-59687500D01*
X345437500Y-59687500D02*
X343659500Y-59687500D01*
X334515500Y-59687500D02*
X332737500Y-59687500D01*
X332737500Y-59687500D02*
X332737500Y-57909500D01*
X332737500Y-48765500D02*
X332737500Y-46987500D01*
X332737500Y-46987500D02*
X334515500Y-46987500D01*
X343659500Y-46987500D02*
X345437500Y-46987500D01*
G04 #@! TO.C,K1:16*
X367472000Y-46987500D02*
X369250000Y-46987500D01*
X356550000Y-46987500D02*
X358328000Y-46987500D01*
X356550000Y-48765500D02*
X356550000Y-46987500D01*
X356550000Y-59687500D02*
X356550000Y-57909500D01*
X358328000Y-59687500D02*
X356550000Y-59687500D01*
X369250000Y-59687500D02*
X367472000Y-59687500D01*
X369250000Y-57909500D02*
X369250000Y-59687500D01*
X369250000Y-46987500D02*
X369250000Y-48765500D01*
G04 #@! TO.C,K1:17*
X388300000Y-46987500D02*
X388300000Y-48765500D01*
X388300000Y-57909500D02*
X388300000Y-59687500D01*
X388300000Y-59687500D02*
X386522000Y-59687500D01*
X377378000Y-59687500D02*
X375600000Y-59687500D01*
X375600000Y-59687500D02*
X375600000Y-57909500D01*
X375600000Y-48765500D02*
X375600000Y-46987500D01*
X375600000Y-46987500D02*
X377378000Y-46987500D01*
X386522000Y-46987500D02*
X388300000Y-46987500D01*
G04 #@! TO.C,K2:0*
X35875000Y-70800000D02*
X35875000Y-72578000D01*
X35875000Y-81722000D02*
X35875000Y-83500000D01*
X35875000Y-83500000D02*
X34097000Y-83500000D01*
X24953000Y-83500000D02*
X23175000Y-83500000D01*
X23175000Y-83500000D02*
X23175000Y-81722000D01*
X23175000Y-72578000D02*
X23175000Y-70800000D01*
X23175000Y-70800000D02*
X24953000Y-70800000D01*
X34097000Y-70800000D02*
X35875000Y-70800000D01*
G04 #@! TO.C,K2:1*
X53147000Y-70800000D02*
X54925000Y-70800000D01*
X42225000Y-70800000D02*
X44003000Y-70800000D01*
X42225000Y-72578000D02*
X42225000Y-70800000D01*
X42225000Y-83500000D02*
X42225000Y-81722000D01*
X44003000Y-83500000D02*
X42225000Y-83500000D01*
X54925000Y-83500000D02*
X53147000Y-83500000D01*
X54925000Y-81722000D02*
X54925000Y-83500000D01*
X54925000Y-70800000D02*
X54925000Y-72578000D01*
G04 #@! TO.C,K2:2*
X72197000Y-70800000D02*
X73975000Y-70800000D01*
X61275000Y-70800000D02*
X63053000Y-70800000D01*
X61275000Y-72578000D02*
X61275000Y-70800000D01*
X61275000Y-83500000D02*
X61275000Y-81722000D01*
X63053000Y-83500000D02*
X61275000Y-83500000D01*
X73975000Y-83500000D02*
X72197000Y-83500000D01*
X73975000Y-81722000D02*
X73975000Y-83500000D01*
X73975000Y-70800000D02*
X73975000Y-72578000D01*
G04 #@! TO.C,K2:3*
X91247000Y-70800000D02*
X93025000Y-70800000D01*
X80325000Y-70800000D02*
X82103000Y-70800000D01*
X80325000Y-72578000D02*
X80325000Y-70800000D01*
X80325000Y-83500000D02*
X80325000Y-81722000D01*
X82103000Y-83500000D02*
X80325000Y-83500000D01*
X93025000Y-83500000D02*
X91247000Y-83500000D01*
X93025000Y-81722000D02*
X93025000Y-83500000D01*
X93025000Y-70800000D02*
X93025000Y-72578000D01*
G04 #@! TO.C,K2:4*
X112075000Y-70800000D02*
X112075000Y-72578000D01*
X112075000Y-81722000D02*
X112075000Y-83500000D01*
X112075000Y-83500000D02*
X110297000Y-83500000D01*
X101153000Y-83500000D02*
X99375000Y-83500000D01*
X99375000Y-83500000D02*
X99375000Y-81722000D01*
X99375000Y-72578000D02*
X99375000Y-70800000D01*
X99375000Y-70800000D02*
X101153000Y-70800000D01*
X110297000Y-70800000D02*
X112075000Y-70800000D01*
G04 #@! TO.C,K2:5*
X129347000Y-70800000D02*
X131125000Y-70800000D01*
X118425000Y-70800000D02*
X120203000Y-70800000D01*
X118425000Y-72578000D02*
X118425000Y-70800000D01*
X118425000Y-83500000D02*
X118425000Y-81722000D01*
X120203000Y-83500000D02*
X118425000Y-83500000D01*
X131125000Y-83500000D02*
X129347000Y-83500000D01*
X131125000Y-81722000D02*
X131125000Y-83500000D01*
X131125000Y-70800000D02*
X131125000Y-72578000D01*
G04 #@! TO.C,K2:6*
X148397000Y-70800000D02*
X150175000Y-70800000D01*
X137475000Y-70800000D02*
X139253000Y-70800000D01*
X137475000Y-72578000D02*
X137475000Y-70800000D01*
X137475000Y-83500000D02*
X137475000Y-81722000D01*
X139253000Y-83500000D02*
X137475000Y-83500000D01*
X150175000Y-83500000D02*
X148397000Y-83500000D01*
X150175000Y-81722000D02*
X150175000Y-83500000D01*
X150175000Y-70800000D02*
X150175000Y-72578000D01*
G04 #@! TO.C,K2:7*
X169225000Y-70800000D02*
X169225000Y-72578000D01*
X169225000Y-81722000D02*
X169225000Y-83500000D01*
X169225000Y-83500000D02*
X167447000Y-83500000D01*
X158303000Y-83500000D02*
X156525000Y-83500000D01*
X156525000Y-83500000D02*
X156525000Y-81722000D01*
X156525000Y-72578000D02*
X156525000Y-70800000D01*
X156525000Y-70800000D02*
X158303000Y-70800000D01*
X167447000Y-70800000D02*
X169225000Y-70800000D01*
G04 #@! TO.C,K2:8*
X188275000Y-70800000D02*
X188275000Y-72578000D01*
X188275000Y-81722000D02*
X188275000Y-83500000D01*
X188275000Y-83500000D02*
X186497000Y-83500000D01*
X177353000Y-83500000D02*
X175575000Y-83500000D01*
X175575000Y-83500000D02*
X175575000Y-81722000D01*
X175575000Y-72578000D02*
X175575000Y-70800000D01*
X175575000Y-70800000D02*
X177353000Y-70800000D01*
X186497000Y-70800000D02*
X188275000Y-70800000D01*
G04 #@! TO.C,K2:9*
X205547000Y-70800000D02*
X207325000Y-70800000D01*
X194625000Y-70800000D02*
X196403000Y-70800000D01*
X194625000Y-72578000D02*
X194625000Y-70800000D01*
X194625000Y-83500000D02*
X194625000Y-81722000D01*
X196403000Y-83500000D02*
X194625000Y-83500000D01*
X207325000Y-83500000D02*
X205547000Y-83500000D01*
X207325000Y-81722000D02*
X207325000Y-83500000D01*
X207325000Y-70800000D02*
X207325000Y-72578000D01*
G04 #@! TO.C,K2:10*
X224597000Y-70800000D02*
X226375000Y-70800000D01*
X213675000Y-70800000D02*
X215453000Y-70800000D01*
X213675000Y-72578000D02*
X213675000Y-70800000D01*
X213675000Y-83500000D02*
X213675000Y-81722000D01*
X215453000Y-83500000D02*
X213675000Y-83500000D01*
X226375000Y-83500000D02*
X224597000Y-83500000D01*
X226375000Y-81722000D02*
X226375000Y-83500000D01*
X226375000Y-70800000D02*
X226375000Y-72578000D01*
G04 #@! TO.C,K2:11*
X243647000Y-70800000D02*
X245425000Y-70800000D01*
X232725000Y-70800000D02*
X234503000Y-70800000D01*
X232725000Y-72578000D02*
X232725000Y-70800000D01*
X232725000Y-83500000D02*
X232725000Y-81722000D01*
X234503000Y-83500000D02*
X232725000Y-83500000D01*
X245425000Y-83500000D02*
X243647000Y-83500000D01*
X245425000Y-81722000D02*
X245425000Y-83500000D01*
X245425000Y-70800000D02*
X245425000Y-72578000D01*
G04 #@! TO.C,K2:12*
X264475000Y-70800000D02*
X264475000Y-72578000D01*
X264475000Y-81722000D02*
X264475000Y-83500000D01*
X264475000Y-83500000D02*
X262697000Y-83500000D01*
X253553000Y-83500000D02*
X251775000Y-83500000D01*
X251775000Y-83500000D02*
X251775000Y-81722000D01*
X251775000Y-72578000D02*
X251775000Y-70800000D01*
X251775000Y-70800000D02*
X253553000Y-70800000D01*
X262697000Y-70800000D02*
X264475000Y-70800000D01*
G04 #@! TO.C,K2:14*
X326387500Y-66037500D02*
X326387500Y-67815500D01*
X326387500Y-76959500D02*
X326387500Y-78737500D01*
X326387500Y-78737500D02*
X324609500Y-78737500D01*
X315465500Y-78737500D02*
X313687500Y-78737500D01*
X313687500Y-78737500D02*
X313687500Y-76959500D01*
X313687500Y-67815500D02*
X313687500Y-66037500D01*
X313687500Y-66037500D02*
X315465500Y-66037500D01*
X324609500Y-66037500D02*
X326387500Y-66037500D01*
G04 #@! TO.C,K2:15*
X350200000Y-70800000D02*
X350200000Y-72578000D01*
X350200000Y-81722000D02*
X350200000Y-83500000D01*
X350200000Y-83500000D02*
X348422000Y-83500000D01*
X339278000Y-83500000D02*
X337500000Y-83500000D01*
X337500000Y-83500000D02*
X337500000Y-81722000D01*
X337500000Y-72578000D02*
X337500000Y-70800000D01*
X337500000Y-70800000D02*
X339278000Y-70800000D01*
X348422000Y-70800000D02*
X350200000Y-70800000D01*
G04 #@! TO.C,K2:16*
X369250000Y-70800000D02*
X369250000Y-72578000D01*
X369250000Y-81722000D02*
X369250000Y-83500000D01*
X369250000Y-83500000D02*
X367472000Y-83500000D01*
X358328000Y-83500000D02*
X356550000Y-83500000D01*
X356550000Y-83500000D02*
X356550000Y-81722000D01*
X356550000Y-72578000D02*
X356550000Y-70800000D01*
X356550000Y-70800000D02*
X358328000Y-70800000D01*
X367472000Y-70800000D02*
X369250000Y-70800000D01*
G04 #@! TO.C,K2:17*
X386522000Y-70800000D02*
X388300000Y-70800000D01*
X375600000Y-70800000D02*
X377378000Y-70800000D01*
X375600000Y-72578000D02*
X375600000Y-70800000D01*
X375600000Y-83500000D02*
X375600000Y-81722000D01*
X377378000Y-83500000D02*
X375600000Y-83500000D01*
X388300000Y-83500000D02*
X386522000Y-83500000D01*
X388300000Y-81722000D02*
X388300000Y-83500000D01*
X388300000Y-70800000D02*
X388300000Y-72578000D01*
G04 #@! TO.C,K3:0*
X38859500Y-89850000D02*
X40637500Y-89850000D01*
X27937500Y-89850000D02*
X29715500Y-89850000D01*
X27937500Y-91628000D02*
X27937500Y-89850000D01*
X27937500Y-102550000D02*
X27937500Y-100772000D01*
X29715500Y-102550000D02*
X27937500Y-102550000D01*
X40637500Y-102550000D02*
X38859500Y-102550000D01*
X40637500Y-100772000D02*
X40637500Y-102550000D01*
X40637500Y-89850000D02*
X40637500Y-91628000D01*
G04 #@! TO.C,K3:1*
X64450000Y-89850000D02*
X64450000Y-91628000D01*
X64450000Y-100772000D02*
X64450000Y-102550000D01*
X64450000Y-102550000D02*
X62672000Y-102550000D01*
X53528000Y-102550000D02*
X51750000Y-102550000D01*
X51750000Y-102550000D02*
X51750000Y-100772000D01*
X51750000Y-91628000D02*
X51750000Y-89850000D01*
X51750000Y-89850000D02*
X53528000Y-89850000D01*
X62672000Y-89850000D02*
X64450000Y-89850000D01*
G04 #@! TO.C,K3:2*
X83500000Y-89850000D02*
X83500000Y-91628000D01*
X83500000Y-100772000D02*
X83500000Y-102550000D01*
X83500000Y-102550000D02*
X81722000Y-102550000D01*
X72578000Y-102550000D02*
X70800000Y-102550000D01*
X70800000Y-102550000D02*
X70800000Y-100772000D01*
X70800000Y-91628000D02*
X70800000Y-89850000D01*
X70800000Y-89850000D02*
X72578000Y-89850000D01*
X81722000Y-89850000D02*
X83500000Y-89850000D01*
G04 #@! TO.C,K3:3*
X100772000Y-89850000D02*
X102550000Y-89850000D01*
X89850000Y-89850000D02*
X91628000Y-89850000D01*
X89850000Y-91628000D02*
X89850000Y-89850000D01*
X89850000Y-102550000D02*
X89850000Y-100772000D01*
X91628000Y-102550000D02*
X89850000Y-102550000D01*
X102550000Y-102550000D02*
X100772000Y-102550000D01*
X102550000Y-100772000D02*
X102550000Y-102550000D01*
X102550000Y-89850000D02*
X102550000Y-91628000D01*
G04 #@! TO.C,K3:4*
X121600000Y-89850000D02*
X121600000Y-91628000D01*
X121600000Y-100772000D02*
X121600000Y-102550000D01*
X121600000Y-102550000D02*
X119822000Y-102550000D01*
X110678000Y-102550000D02*
X108900000Y-102550000D01*
X108900000Y-102550000D02*
X108900000Y-100772000D01*
X108900000Y-91628000D02*
X108900000Y-89850000D01*
X108900000Y-89850000D02*
X110678000Y-89850000D01*
X119822000Y-89850000D02*
X121600000Y-89850000D01*
G04 #@! TO.C,K3:5*
X138872000Y-89850000D02*
X140650000Y-89850000D01*
X127950000Y-89850000D02*
X129728000Y-89850000D01*
X127950000Y-91628000D02*
X127950000Y-89850000D01*
X127950000Y-102550000D02*
X127950000Y-100772000D01*
X129728000Y-102550000D02*
X127950000Y-102550000D01*
X140650000Y-102550000D02*
X138872000Y-102550000D01*
X140650000Y-100772000D02*
X140650000Y-102550000D01*
X140650000Y-89850000D02*
X140650000Y-91628000D01*
G04 #@! TO.C,K3:6*
X157922000Y-89850000D02*
X159700000Y-89850000D01*
X147000000Y-89850000D02*
X148778000Y-89850000D01*
X147000000Y-91628000D02*
X147000000Y-89850000D01*
X147000000Y-102550000D02*
X147000000Y-100772000D01*
X148778000Y-102550000D02*
X147000000Y-102550000D01*
X159700000Y-102550000D02*
X157922000Y-102550000D01*
X159700000Y-100772000D02*
X159700000Y-102550000D01*
X159700000Y-89850000D02*
X159700000Y-91628000D01*
G04 #@! TO.C,K3:7*
X178750000Y-89850000D02*
X178750000Y-91628000D01*
X178750000Y-100772000D02*
X178750000Y-102550000D01*
X178750000Y-102550000D02*
X176972000Y-102550000D01*
X167828000Y-102550000D02*
X166050000Y-102550000D01*
X166050000Y-102550000D02*
X166050000Y-100772000D01*
X166050000Y-91628000D02*
X166050000Y-89850000D01*
X166050000Y-89850000D02*
X167828000Y-89850000D01*
X176972000Y-89850000D02*
X178750000Y-89850000D01*
G04 #@! TO.C,K3:8*
X197800000Y-89850000D02*
X197800000Y-91628000D01*
X197800000Y-100772000D02*
X197800000Y-102550000D01*
X197800000Y-102550000D02*
X196022000Y-102550000D01*
X186878000Y-102550000D02*
X185100000Y-102550000D01*
X185100000Y-102550000D02*
X185100000Y-100772000D01*
X185100000Y-91628000D02*
X185100000Y-89850000D01*
X185100000Y-89850000D02*
X186878000Y-89850000D01*
X196022000Y-89850000D02*
X197800000Y-89850000D01*
G04 #@! TO.C,K3:9*
X215072000Y-89850000D02*
X216850000Y-89850000D01*
X204150000Y-89850000D02*
X205928000Y-89850000D01*
X204150000Y-91628000D02*
X204150000Y-89850000D01*
X204150000Y-102550000D02*
X204150000Y-100772000D01*
X205928000Y-102550000D02*
X204150000Y-102550000D01*
X216850000Y-102550000D02*
X215072000Y-102550000D01*
X216850000Y-100772000D02*
X216850000Y-102550000D01*
X216850000Y-89850000D02*
X216850000Y-91628000D01*
G04 #@! TO.C,K3:10*
X235900000Y-89850000D02*
X235900000Y-91628000D01*
X235900000Y-100772000D02*
X235900000Y-102550000D01*
X235900000Y-102550000D02*
X234122000Y-102550000D01*
X224978000Y-102550000D02*
X223200000Y-102550000D01*
X223200000Y-102550000D02*
X223200000Y-100772000D01*
X223200000Y-91628000D02*
X223200000Y-89850000D01*
X223200000Y-89850000D02*
X224978000Y-89850000D01*
X234122000Y-89850000D02*
X235900000Y-89850000D01*
G04 #@! TO.C,K3:11*
X254950000Y-89850000D02*
X254950000Y-91628000D01*
X254950000Y-100772000D02*
X254950000Y-102550000D01*
X254950000Y-102550000D02*
X253172000Y-102550000D01*
X244028000Y-102550000D02*
X242250000Y-102550000D01*
X242250000Y-102550000D02*
X242250000Y-100772000D01*
X242250000Y-91628000D02*
X242250000Y-89850000D01*
X242250000Y-89850000D02*
X244028000Y-89850000D01*
X253172000Y-89850000D02*
X254950000Y-89850000D01*
G04 #@! TO.C,K3:12*
X274000000Y-89850000D02*
X274000000Y-91628000D01*
X274000000Y-100772000D02*
X274000000Y-102550000D01*
X274000000Y-102550000D02*
X272222000Y-102550000D01*
X263078000Y-102550000D02*
X261300000Y-102550000D01*
X261300000Y-102550000D02*
X261300000Y-100772000D01*
X261300000Y-91628000D02*
X261300000Y-89850000D01*
X261300000Y-89850000D02*
X263078000Y-89850000D01*
X272222000Y-89850000D02*
X274000000Y-89850000D01*
G04 #@! TO.C,K3:13*
X296034500Y-89850000D02*
X297812500Y-89850000D01*
X285112500Y-89850000D02*
X286890500Y-89850000D01*
X285112500Y-91628000D02*
X285112500Y-89850000D01*
X285112500Y-102550000D02*
X285112500Y-100772000D01*
X286890500Y-102550000D02*
X285112500Y-102550000D01*
X297812500Y-102550000D02*
X296034500Y-102550000D01*
X297812500Y-100772000D02*
X297812500Y-102550000D01*
X297812500Y-89850000D02*
X297812500Y-91628000D01*
G04 #@! TO.C,K3:14*
X331150000Y-89850000D02*
X331150000Y-91628000D01*
X331150000Y-100772000D02*
X331150000Y-102550000D01*
X331150000Y-102550000D02*
X329372000Y-102550000D01*
X320228000Y-102550000D02*
X318450000Y-102550000D01*
X318450000Y-102550000D02*
X318450000Y-100772000D01*
X318450000Y-91628000D02*
X318450000Y-89850000D01*
X318450000Y-89850000D02*
X320228000Y-89850000D01*
X329372000Y-89850000D02*
X331150000Y-89850000D01*
G04 #@! TO.C,K3:15*
X348422000Y-89850000D02*
X350200000Y-89850000D01*
X337500000Y-89850000D02*
X339278000Y-89850000D01*
X337500000Y-91628000D02*
X337500000Y-89850000D01*
X337500000Y-102550000D02*
X337500000Y-100772000D01*
X339278000Y-102550000D02*
X337500000Y-102550000D01*
X350200000Y-102550000D02*
X348422000Y-102550000D01*
X350200000Y-100772000D02*
X350200000Y-102550000D01*
X350200000Y-89850000D02*
X350200000Y-91628000D01*
G04 #@! TO.C,K3:16*
X367472000Y-89850000D02*
X369250000Y-89850000D01*
X356550000Y-89850000D02*
X358328000Y-89850000D01*
X356550000Y-91628000D02*
X356550000Y-89850000D01*
X356550000Y-102550000D02*
X356550000Y-100772000D01*
X358328000Y-102550000D02*
X356550000Y-102550000D01*
X369250000Y-102550000D02*
X367472000Y-102550000D01*
X369250000Y-100772000D02*
X369250000Y-102550000D01*
X369250000Y-89850000D02*
X369250000Y-91628000D01*
G04 #@! TO.C,K3:17*
X388300000Y-89850000D02*
X388300000Y-91628000D01*
X388300000Y-100772000D02*
X388300000Y-102550000D01*
X388300000Y-102550000D02*
X386522000Y-102550000D01*
X377378000Y-102550000D02*
X375600000Y-102550000D01*
X375600000Y-102550000D02*
X375600000Y-100772000D01*
X375600000Y-91628000D02*
X375600000Y-89850000D01*
X375600000Y-89850000D02*
X377378000Y-89850000D01*
X386522000Y-89850000D02*
X388300000Y-89850000D01*
G04 #@! TO.C,K4:0*
X43018750Y-108900000D02*
X43018750Y-110678000D01*
X43018750Y-119822000D02*
X43018750Y-121600000D01*
X43018750Y-121600000D02*
X41240750Y-121600000D01*
X32096750Y-121600000D02*
X30318750Y-121600000D01*
X30318750Y-121600000D02*
X30318750Y-119822000D01*
X30318750Y-110678000D02*
X30318750Y-108900000D01*
X30318750Y-108900000D02*
X32096750Y-108900000D01*
X41240750Y-108900000D02*
X43018750Y-108900000D01*
G04 #@! TO.C,K4:1*
X69212500Y-108900000D02*
X69212500Y-110678000D01*
X69212500Y-119822000D02*
X69212500Y-121600000D01*
X69212500Y-121600000D02*
X67434500Y-121600000D01*
X58290500Y-121600000D02*
X56512500Y-121600000D01*
X56512500Y-121600000D02*
X56512500Y-119822000D01*
X56512500Y-110678000D02*
X56512500Y-108900000D01*
X56512500Y-108900000D02*
X58290500Y-108900000D01*
X67434500Y-108900000D02*
X69212500Y-108900000D01*
G04 #@! TO.C,K4:2*
X88262500Y-108900000D02*
X88262500Y-110678000D01*
X88262500Y-119822000D02*
X88262500Y-121600000D01*
X88262500Y-121600000D02*
X86484500Y-121600000D01*
X77340500Y-121600000D02*
X75562500Y-121600000D01*
X75562500Y-121600000D02*
X75562500Y-119822000D01*
X75562500Y-110678000D02*
X75562500Y-108900000D01*
X75562500Y-108900000D02*
X77340500Y-108900000D01*
X86484500Y-108900000D02*
X88262500Y-108900000D01*
G04 #@! TO.C,K4:3*
X105534500Y-108900000D02*
X107312500Y-108900000D01*
X94612500Y-108900000D02*
X96390500Y-108900000D01*
X94612500Y-110678000D02*
X94612500Y-108900000D01*
X94612500Y-121600000D02*
X94612500Y-119822000D01*
X96390500Y-121600000D02*
X94612500Y-121600000D01*
X107312500Y-121600000D02*
X105534500Y-121600000D01*
X107312500Y-119822000D02*
X107312500Y-121600000D01*
X107312500Y-108900000D02*
X107312500Y-110678000D01*
G04 #@! TO.C,K4:4*
X124584500Y-108900000D02*
X126362500Y-108900000D01*
X113662500Y-108900000D02*
X115440500Y-108900000D01*
X113662500Y-110678000D02*
X113662500Y-108900000D01*
X113662500Y-121600000D02*
X113662500Y-119822000D01*
X115440500Y-121600000D02*
X113662500Y-121600000D01*
X126362500Y-121600000D02*
X124584500Y-121600000D01*
X126362500Y-119822000D02*
X126362500Y-121600000D01*
X126362500Y-108900000D02*
X126362500Y-110678000D01*
G04 #@! TO.C,K4:5*
X143634500Y-108900000D02*
X145412500Y-108900000D01*
X132712500Y-108900000D02*
X134490500Y-108900000D01*
X132712500Y-110678000D02*
X132712500Y-108900000D01*
X132712500Y-121600000D02*
X132712500Y-119822000D01*
X134490500Y-121600000D02*
X132712500Y-121600000D01*
X145412500Y-121600000D02*
X143634500Y-121600000D01*
X145412500Y-119822000D02*
X145412500Y-121600000D01*
X145412500Y-108900000D02*
X145412500Y-110678000D01*
G04 #@! TO.C,K4:6*
X164462500Y-108900000D02*
X164462500Y-110678000D01*
X164462500Y-119822000D02*
X164462500Y-121600000D01*
X164462500Y-121600000D02*
X162684500Y-121600000D01*
X153540500Y-121600000D02*
X151762500Y-121600000D01*
X151762500Y-121600000D02*
X151762500Y-119822000D01*
X151762500Y-110678000D02*
X151762500Y-108900000D01*
X151762500Y-108900000D02*
X153540500Y-108900000D01*
X162684500Y-108900000D02*
X164462500Y-108900000D01*
G04 #@! TO.C,K4:7*
X181734500Y-108900000D02*
X183512500Y-108900000D01*
X170812500Y-108900000D02*
X172590500Y-108900000D01*
X170812500Y-110678000D02*
X170812500Y-108900000D01*
X170812500Y-121600000D02*
X170812500Y-119822000D01*
X172590500Y-121600000D02*
X170812500Y-121600000D01*
X183512500Y-121600000D02*
X181734500Y-121600000D01*
X183512500Y-119822000D02*
X183512500Y-121600000D01*
X183512500Y-108900000D02*
X183512500Y-110678000D01*
G04 #@! TO.C,K4:8*
X200784500Y-108900000D02*
X202562500Y-108900000D01*
X189862500Y-108900000D02*
X191640500Y-108900000D01*
X189862500Y-110678000D02*
X189862500Y-108900000D01*
X189862500Y-121600000D02*
X189862500Y-119822000D01*
X191640500Y-121600000D02*
X189862500Y-121600000D01*
X202562500Y-121600000D02*
X200784500Y-121600000D01*
X202562500Y-119822000D02*
X202562500Y-121600000D01*
X202562500Y-108900000D02*
X202562500Y-110678000D01*
G04 #@! TO.C,K4:9*
X221612500Y-108900000D02*
X221612500Y-110678000D01*
X221612500Y-119822000D02*
X221612500Y-121600000D01*
X221612500Y-121600000D02*
X219834500Y-121600000D01*
X210690500Y-121600000D02*
X208912500Y-121600000D01*
X208912500Y-121600000D02*
X208912500Y-119822000D01*
X208912500Y-110678000D02*
X208912500Y-108900000D01*
X208912500Y-108900000D02*
X210690500Y-108900000D01*
X219834500Y-108900000D02*
X221612500Y-108900000D01*
G04 #@! TO.C,K4:10*
X238884500Y-108900000D02*
X240662500Y-108900000D01*
X227962500Y-108900000D02*
X229740500Y-108900000D01*
X227962500Y-110678000D02*
X227962500Y-108900000D01*
X227962500Y-121600000D02*
X227962500Y-119822000D01*
X229740500Y-121600000D02*
X227962500Y-121600000D01*
X240662500Y-121600000D02*
X238884500Y-121600000D01*
X240662500Y-119822000D02*
X240662500Y-121600000D01*
X240662500Y-108900000D02*
X240662500Y-110678000D01*
G04 #@! TO.C,K4:11*
X259712500Y-108900000D02*
X259712500Y-110678000D01*
X259712500Y-119822000D02*
X259712500Y-121600000D01*
X259712500Y-121600000D02*
X257934500Y-121600000D01*
X248790500Y-121600000D02*
X247012500Y-121600000D01*
X247012500Y-121600000D02*
X247012500Y-119822000D01*
X247012500Y-110678000D02*
X247012500Y-108900000D01*
X247012500Y-108900000D02*
X248790500Y-108900000D01*
X257934500Y-108900000D02*
X259712500Y-108900000D01*
G04 #@! TO.C,K4:12*
X290668750Y-108900000D02*
X290668750Y-110678000D01*
X290668750Y-119822000D02*
X290668750Y-121600000D01*
X290668750Y-121600000D02*
X288890750Y-121600000D01*
X279746750Y-121600000D02*
X277968750Y-121600000D01*
X277968750Y-121600000D02*
X277968750Y-119822000D01*
X277968750Y-110678000D02*
X277968750Y-108900000D01*
X277968750Y-108900000D02*
X279746750Y-108900000D01*
X288890750Y-108900000D02*
X290668750Y-108900000D01*
G04 #@! TO.C,K4:14*
X329372000Y-108900000D02*
X331150000Y-108900000D01*
X318450000Y-108900000D02*
X320228000Y-108900000D01*
X318450000Y-110678000D02*
X318450000Y-108900000D01*
X318450000Y-121600000D02*
X318450000Y-119822000D01*
X320228000Y-121600000D02*
X318450000Y-121600000D01*
X331150000Y-121600000D02*
X329372000Y-121600000D01*
X331150000Y-119822000D02*
X331150000Y-121600000D01*
X331150000Y-108900000D02*
X331150000Y-110678000D01*
G04 #@! TO.C,K4:15*
X348422000Y-108900000D02*
X350200000Y-108900000D01*
X337500000Y-108900000D02*
X339278000Y-108900000D01*
X337500000Y-110678000D02*
X337500000Y-108900000D01*
X337500000Y-121600000D02*
X337500000Y-119822000D01*
X339278000Y-121600000D02*
X337500000Y-121600000D01*
X350200000Y-121600000D02*
X348422000Y-121600000D01*
X350200000Y-119822000D02*
X350200000Y-121600000D01*
X350200000Y-108900000D02*
X350200000Y-110678000D01*
G04 #@! TO.C,K4:16*
X369250000Y-108900000D02*
X369250000Y-110678000D01*
X369250000Y-119822000D02*
X369250000Y-121600000D01*
X369250000Y-121600000D02*
X367472000Y-121600000D01*
X358328000Y-121600000D02*
X356550000Y-121600000D01*
X356550000Y-121600000D02*
X356550000Y-119822000D01*
X356550000Y-110678000D02*
X356550000Y-108900000D01*
X356550000Y-108900000D02*
X358328000Y-108900000D01*
X367472000Y-108900000D02*
X369250000Y-108900000D01*
G04 #@! TO.C,K4:17*
X386522000Y-108900000D02*
X388300000Y-108900000D01*
X375600000Y-108900000D02*
X377378000Y-108900000D01*
X375600000Y-110678000D02*
X375600000Y-108900000D01*
X375600000Y-121600000D02*
X375600000Y-119822000D01*
X377378000Y-121600000D02*
X375600000Y-121600000D01*
X388300000Y-121600000D02*
X386522000Y-121600000D01*
X388300000Y-119822000D02*
X388300000Y-121600000D01*
X388300000Y-108900000D02*
X388300000Y-110678000D01*
G04 #@! TO.C,K5:0*
X46003250Y-127950000D02*
X47781250Y-127950000D01*
X35081250Y-127950000D02*
X36859250Y-127950000D01*
X35081250Y-129728000D02*
X35081250Y-127950000D01*
X35081250Y-140650000D02*
X35081250Y-138872000D01*
X36859250Y-140650000D02*
X35081250Y-140650000D01*
X47781250Y-140650000D02*
X46003250Y-140650000D01*
X47781250Y-138872000D02*
X47781250Y-140650000D01*
X47781250Y-127950000D02*
X47781250Y-129728000D01*
G04 #@! TO.C,K5:1*
X78737500Y-127950000D02*
X78737500Y-129728000D01*
X78737500Y-138872000D02*
X78737500Y-140650000D01*
X78737500Y-140650000D02*
X76959500Y-140650000D01*
X67815500Y-140650000D02*
X66037500Y-140650000D01*
X66037500Y-140650000D02*
X66037500Y-138872000D01*
X66037500Y-129728000D02*
X66037500Y-127950000D01*
X66037500Y-127950000D02*
X67815500Y-127950000D01*
X76959500Y-127950000D02*
X78737500Y-127950000D01*
G04 #@! TO.C,K5:2*
X96009500Y-127950000D02*
X97787500Y-127950000D01*
X85087500Y-127950000D02*
X86865500Y-127950000D01*
X85087500Y-129728000D02*
X85087500Y-127950000D01*
X85087500Y-140650000D02*
X85087500Y-138872000D01*
X86865500Y-140650000D02*
X85087500Y-140650000D01*
X97787500Y-140650000D02*
X96009500Y-140650000D01*
X97787500Y-138872000D02*
X97787500Y-140650000D01*
X97787500Y-127950000D02*
X97787500Y-129728000D01*
G04 #@! TO.C,K5:3*
X116837500Y-127950000D02*
X116837500Y-129728000D01*
X116837500Y-138872000D02*
X116837500Y-140650000D01*
X116837500Y-140650000D02*
X115059500Y-140650000D01*
X105915500Y-140650000D02*
X104137500Y-140650000D01*
X104137500Y-140650000D02*
X104137500Y-138872000D01*
X104137500Y-129728000D02*
X104137500Y-127950000D01*
X104137500Y-127950000D02*
X105915500Y-127950000D01*
X115059500Y-127950000D02*
X116837500Y-127950000D01*
G04 #@! TO.C,K5:4*
X134109500Y-127950000D02*
X135887500Y-127950000D01*
X123187500Y-127950000D02*
X124965500Y-127950000D01*
X123187500Y-129728000D02*
X123187500Y-127950000D01*
X123187500Y-140650000D02*
X123187500Y-138872000D01*
X124965500Y-140650000D02*
X123187500Y-140650000D01*
X135887500Y-140650000D02*
X134109500Y-140650000D01*
X135887500Y-138872000D02*
X135887500Y-140650000D01*
X135887500Y-127950000D02*
X135887500Y-129728000D01*
G04 #@! TO.C,K5:5*
X154937500Y-127950000D02*
X154937500Y-129728000D01*
X154937500Y-138872000D02*
X154937500Y-140650000D01*
X154937500Y-140650000D02*
X153159500Y-140650000D01*
X144015500Y-140650000D02*
X142237500Y-140650000D01*
X142237500Y-140650000D02*
X142237500Y-138872000D01*
X142237500Y-129728000D02*
X142237500Y-127950000D01*
X142237500Y-127950000D02*
X144015500Y-127950000D01*
X153159500Y-127950000D02*
X154937500Y-127950000D01*
G04 #@! TO.C,K5:6*
X172209500Y-127950000D02*
X173987500Y-127950000D01*
X161287500Y-127950000D02*
X163065500Y-127950000D01*
X161287500Y-129728000D02*
X161287500Y-127950000D01*
X161287500Y-140650000D02*
X161287500Y-138872000D01*
X163065500Y-140650000D02*
X161287500Y-140650000D01*
X173987500Y-140650000D02*
X172209500Y-140650000D01*
X173987500Y-138872000D02*
X173987500Y-140650000D01*
X173987500Y-127950000D02*
X173987500Y-129728000D01*
G04 #@! TO.C,K5:7*
X191259500Y-127950000D02*
X193037500Y-127950000D01*
X180337500Y-127950000D02*
X182115500Y-127950000D01*
X180337500Y-129728000D02*
X180337500Y-127950000D01*
X180337500Y-140650000D02*
X180337500Y-138872000D01*
X182115500Y-140650000D02*
X180337500Y-140650000D01*
X193037500Y-140650000D02*
X191259500Y-140650000D01*
X193037500Y-138872000D02*
X193037500Y-140650000D01*
X193037500Y-127950000D02*
X193037500Y-129728000D01*
G04 #@! TO.C,K5:8*
X210309500Y-127950000D02*
X212087500Y-127950000D01*
X199387500Y-127950000D02*
X201165500Y-127950000D01*
X199387500Y-129728000D02*
X199387500Y-127950000D01*
X199387500Y-140650000D02*
X199387500Y-138872000D01*
X201165500Y-140650000D02*
X199387500Y-140650000D01*
X212087500Y-140650000D02*
X210309500Y-140650000D01*
X212087500Y-138872000D02*
X212087500Y-140650000D01*
X212087500Y-127950000D02*
X212087500Y-129728000D01*
G04 #@! TO.C,K5:9*
X231137500Y-127950000D02*
X231137500Y-129728000D01*
X231137500Y-138872000D02*
X231137500Y-140650000D01*
X231137500Y-140650000D02*
X229359500Y-140650000D01*
X220215500Y-140650000D02*
X218437500Y-140650000D01*
X218437500Y-140650000D02*
X218437500Y-138872000D01*
X218437500Y-129728000D02*
X218437500Y-127950000D01*
X218437500Y-127950000D02*
X220215500Y-127950000D01*
X229359500Y-127950000D02*
X231137500Y-127950000D01*
G04 #@! TO.C,K5:10*
X250187500Y-127950000D02*
X250187500Y-129728000D01*
X250187500Y-138872000D02*
X250187500Y-140650000D01*
X250187500Y-140650000D02*
X248409500Y-140650000D01*
X239265500Y-140650000D02*
X237487500Y-140650000D01*
X237487500Y-140650000D02*
X237487500Y-138872000D01*
X237487500Y-129728000D02*
X237487500Y-127950000D01*
X237487500Y-127950000D02*
X239265500Y-127950000D01*
X248409500Y-127950000D02*
X250187500Y-127950000D01*
G04 #@! TO.C,K5:11*
X274603250Y-127950000D02*
X276381250Y-127950000D01*
X263681250Y-127950000D02*
X265459250Y-127950000D01*
X263681250Y-129728000D02*
X263681250Y-127950000D01*
X263681250Y-140650000D02*
X263681250Y-138872000D01*
X265459250Y-140650000D02*
X263681250Y-140650000D01*
X276381250Y-140650000D02*
X274603250Y-140650000D01*
X276381250Y-138872000D02*
X276381250Y-140650000D01*
X276381250Y-127950000D02*
X276381250Y-129728000D01*
G04 #@! TO.C,K5:13*
X305559500Y-132712500D02*
X307337500Y-132712500D01*
X294637500Y-132712500D02*
X296415500Y-132712500D01*
X294637500Y-134490500D02*
X294637500Y-132712500D01*
X294637500Y-145412500D02*
X294637500Y-143634500D01*
X296415500Y-145412500D02*
X294637500Y-145412500D01*
X307337500Y-145412500D02*
X305559500Y-145412500D01*
X307337500Y-143634500D02*
X307337500Y-145412500D01*
X307337500Y-132712500D02*
X307337500Y-134490500D01*
G04 #@! TO.C,K5:14*
X329372000Y-127950000D02*
X331150000Y-127950000D01*
X318450000Y-127950000D02*
X320228000Y-127950000D01*
X318450000Y-129728000D02*
X318450000Y-127950000D01*
X318450000Y-140650000D02*
X318450000Y-138872000D01*
X320228000Y-140650000D02*
X318450000Y-140650000D01*
X331150000Y-140650000D02*
X329372000Y-140650000D01*
X331150000Y-138872000D02*
X331150000Y-140650000D01*
X331150000Y-127950000D02*
X331150000Y-129728000D01*
G04 #@! TO.C,K5:15*
X348422000Y-127950000D02*
X350200000Y-127950000D01*
X337500000Y-127950000D02*
X339278000Y-127950000D01*
X337500000Y-129728000D02*
X337500000Y-127950000D01*
X337500000Y-140650000D02*
X337500000Y-138872000D01*
X339278000Y-140650000D02*
X337500000Y-140650000D01*
X350200000Y-140650000D02*
X348422000Y-140650000D01*
X350200000Y-138872000D02*
X350200000Y-140650000D01*
X350200000Y-127950000D02*
X350200000Y-129728000D01*
G04 #@! TO.C,K5:16*
X369250000Y-127950000D02*
X369250000Y-129728000D01*
X369250000Y-138872000D02*
X369250000Y-140650000D01*
X369250000Y-140650000D02*
X367472000Y-140650000D01*
X358328000Y-140650000D02*
X356550000Y-140650000D01*
X356550000Y-140650000D02*
X356550000Y-138872000D01*
X356550000Y-129728000D02*
X356550000Y-127950000D01*
X356550000Y-127950000D02*
X358328000Y-127950000D01*
X367472000Y-127950000D02*
X369250000Y-127950000D01*
G04 #@! TO.C,K5:17*
X388300000Y-148397000D02*
X388300000Y-150175000D01*
X388300000Y-137475000D02*
X388300000Y-139253000D01*
X386522000Y-137475000D02*
X388300000Y-137475000D01*
X375600000Y-137475000D02*
X377378000Y-137475000D01*
X375600000Y-139253000D02*
X375600000Y-137475000D01*
X375600000Y-150175000D02*
X375600000Y-148397000D01*
X377378000Y-150175000D02*
X375600000Y-150175000D01*
X388300000Y-150175000D02*
X386522000Y-150175000D01*
G04 #@! TO.C,K6:0*
X36478250Y-147000000D02*
X38256250Y-147000000D01*
X25556250Y-147000000D02*
X27334250Y-147000000D01*
X25556250Y-148778000D02*
X25556250Y-147000000D01*
X25556250Y-159700000D02*
X25556250Y-157922000D01*
X27334250Y-159700000D02*
X25556250Y-159700000D01*
X38256250Y-159700000D02*
X36478250Y-159700000D01*
X38256250Y-157922000D02*
X38256250Y-159700000D01*
X38256250Y-147000000D02*
X38256250Y-148778000D01*
G04 #@! TO.C,K6:1*
X62068750Y-147000000D02*
X62068750Y-148778000D01*
X62068750Y-157922000D02*
X62068750Y-159700000D01*
X62068750Y-159700000D02*
X60290750Y-159700000D01*
X51146750Y-159700000D02*
X49368750Y-159700000D01*
X49368750Y-159700000D02*
X49368750Y-157922000D01*
X49368750Y-148778000D02*
X49368750Y-147000000D01*
X49368750Y-147000000D02*
X51146750Y-147000000D01*
X60290750Y-147000000D02*
X62068750Y-147000000D01*
G04 #@! TO.C,K6:2*
X84103250Y-147000000D02*
X85881250Y-147000000D01*
X73181250Y-147000000D02*
X74959250Y-147000000D01*
X73181250Y-148778000D02*
X73181250Y-147000000D01*
X73181250Y-159700000D02*
X73181250Y-157922000D01*
X74959250Y-159700000D02*
X73181250Y-159700000D01*
X85881250Y-159700000D02*
X84103250Y-159700000D01*
X85881250Y-157922000D02*
X85881250Y-159700000D01*
X85881250Y-147000000D02*
X85881250Y-148778000D01*
G04 #@! TO.C,K6:9*
X231137500Y-147000000D02*
X231137500Y-148778000D01*
X231137500Y-157922000D02*
X231137500Y-159700000D01*
X231137500Y-159700000D02*
X229359500Y-159700000D01*
X220215500Y-159700000D02*
X218437500Y-159700000D01*
X218437500Y-159700000D02*
X218437500Y-157922000D01*
X218437500Y-148778000D02*
X218437500Y-147000000D01*
X218437500Y-147000000D02*
X220215500Y-147000000D01*
X229359500Y-147000000D02*
X231137500Y-147000000D01*
G04 #@! TO.C,K6:10*
X259712500Y-147000000D02*
X259712500Y-148778000D01*
X259712500Y-157922000D02*
X259712500Y-159700000D01*
X259712500Y-159700000D02*
X257934500Y-159700000D01*
X248790500Y-159700000D02*
X247012500Y-159700000D01*
X247012500Y-159700000D02*
X247012500Y-157922000D01*
X247012500Y-148778000D02*
X247012500Y-147000000D01*
X247012500Y-147000000D02*
X248790500Y-147000000D01*
X257934500Y-147000000D02*
X259712500Y-147000000D01*
G04 #@! TO.C,K6:12*
X288287500Y-151762500D02*
X288287500Y-153540500D01*
X288287500Y-162684500D02*
X288287500Y-164462500D01*
X288287500Y-164462500D02*
X286509500Y-164462500D01*
X277365500Y-164462500D02*
X275587500Y-164462500D01*
X275587500Y-164462500D02*
X275587500Y-162684500D01*
X275587500Y-153540500D02*
X275587500Y-151762500D01*
X275587500Y-151762500D02*
X277365500Y-151762500D01*
X286509500Y-151762500D02*
X288287500Y-151762500D01*
G04 #@! TO.C,K6:13*
X305559500Y-151762500D02*
X307337500Y-151762500D01*
X294637500Y-151762500D02*
X296415500Y-151762500D01*
X294637500Y-153540500D02*
X294637500Y-151762500D01*
X294637500Y-164462500D02*
X294637500Y-162684500D01*
X296415500Y-164462500D02*
X294637500Y-164462500D01*
X307337500Y-164462500D02*
X305559500Y-164462500D01*
X307337500Y-162684500D02*
X307337500Y-164462500D01*
X307337500Y-151762500D02*
X307337500Y-153540500D01*
G04 #@! TO.C,K6:14*
X326387500Y-151762500D02*
X326387500Y-153540500D01*
X326387500Y-162684500D02*
X326387500Y-164462500D01*
X326387500Y-164462500D02*
X324609500Y-164462500D01*
X315465500Y-164462500D02*
X313687500Y-164462500D01*
X313687500Y-164462500D02*
X313687500Y-162684500D01*
X313687500Y-153540500D02*
X313687500Y-151762500D01*
X313687500Y-151762500D02*
X315465500Y-151762500D01*
X324609500Y-151762500D02*
X326387500Y-151762500D01*
G04 #@! TO.C,K6:15*
X348422000Y-147000000D02*
X350200000Y-147000000D01*
X337500000Y-147000000D02*
X339278000Y-147000000D01*
X337500000Y-148778000D02*
X337500000Y-147000000D01*
X337500000Y-159700000D02*
X337500000Y-157922000D01*
X339278000Y-159700000D02*
X337500000Y-159700000D01*
X350200000Y-159700000D02*
X348422000Y-159700000D01*
X350200000Y-157922000D02*
X350200000Y-159700000D01*
X350200000Y-147000000D02*
X350200000Y-148778000D01*
G04 #@! TO.C,K6:16*
X367472000Y-147000000D02*
X369250000Y-147000000D01*
X356550000Y-147000000D02*
X358328000Y-147000000D01*
X356550000Y-148778000D02*
X356550000Y-147000000D01*
X356550000Y-159700000D02*
X356550000Y-157922000D01*
X358328000Y-159700000D02*
X356550000Y-159700000D01*
X369250000Y-159700000D02*
X367472000Y-159700000D01*
X369250000Y-157922000D02*
X369250000Y-159700000D01*
X369250000Y-147000000D02*
X369250000Y-148778000D01*
D11*
G04 #@! TO.C,ENC1*
X384950000Y-29525000D02*
G75*
G03X384950000Y-29525000I-3000000J0D01*
G01*
X379950000Y-35425000D02*
X375850000Y-35425000D01*
X375850000Y-23625000D02*
X379950000Y-23625000D01*
X383950000Y-23625000D02*
X388050000Y-23625000D01*
X383950000Y-35425000D02*
X388050000Y-35425000D01*
X388050000Y-35425000D02*
X388050000Y-23625000D01*
X389450000Y-33325000D02*
X389750000Y-33625000D01*
X389750000Y-33625000D02*
X389150000Y-33625000D01*
X389150000Y-33625000D02*
X389450000Y-33325000D01*
X375850000Y-35425000D02*
X375850000Y-33025000D01*
X375850000Y-30825000D02*
X375850000Y-28225000D01*
X375850000Y-26025000D02*
X375850000Y-23625000D01*
X381950000Y-30025000D02*
X381950000Y-29025000D01*
X382450000Y-29525000D02*
X381450000Y-29525000D01*
G04 #@! TO.C,LED1*
X312712500Y-92187500D02*
X312712500Y-90687500D01*
X312712500Y-92187500D02*
X309512500Y-92187500D01*
X309512500Y-90687500D02*
X312712500Y-90687500D01*
G04 #@! TO.C,LED2*
X309512500Y-104975000D02*
X312712500Y-104975000D01*
X312712500Y-106475000D02*
X309512500Y-106475000D01*
X312712500Y-106475000D02*
X312712500Y-104975000D01*
G04 #@! TO.C,LED3*
X312712500Y-120762500D02*
X312712500Y-119262500D01*
X312712500Y-120762500D02*
X309512500Y-120762500D01*
X309512500Y-119262500D02*
X312712500Y-119262500D01*
G04 #@! TO.C,Hole*
D12*
X370571428Y-38752380D02*
X370571428Y-37752380D01*
X370571428Y-38228571D02*
X371142857Y-38228571D01*
X371142857Y-38752380D02*
X371142857Y-37752380D01*
X371761904Y-38752380D02*
X371666666Y-38704761D01*
X371619047Y-38657142D01*
X371571428Y-38561904D01*
X371571428Y-38276190D01*
X371619047Y-38180952D01*
X371666666Y-38133333D01*
X371761904Y-38085714D01*
X371904761Y-38085714D01*
X372000000Y-38133333D01*
X372047619Y-38180952D01*
X372095238Y-38276190D01*
X372095238Y-38561904D01*
X372047619Y-38657142D01*
X372000000Y-38704761D01*
X371904761Y-38752380D01*
X371761904Y-38752380D01*
X372666666Y-38752380D02*
X372571428Y-38704761D01*
X372523809Y-38609523D01*
X372523809Y-37752380D01*
X373428571Y-38704761D02*
X373333333Y-38752380D01*
X373142857Y-38752380D01*
X373047619Y-38704761D01*
X373000000Y-38609523D01*
X373000000Y-38228571D01*
X373047619Y-38133333D01*
X373142857Y-38085714D01*
X373333333Y-38085714D01*
X373428571Y-38133333D01*
X373476190Y-38228571D01*
X373476190Y-38323809D01*
X373000000Y-38419047D01*
X372571428Y-159752380D02*
X372571428Y-158752380D01*
X372571428Y-159228571D02*
X373142857Y-159228571D01*
X373142857Y-159752380D02*
X373142857Y-158752380D01*
X373761904Y-159752380D02*
X373666666Y-159704761D01*
X373619047Y-159657142D01*
X373571428Y-159561904D01*
X373571428Y-159276190D01*
X373619047Y-159180952D01*
X373666666Y-159133333D01*
X373761904Y-159085714D01*
X373904761Y-159085714D01*
X374000000Y-159133333D01*
X374047619Y-159180952D01*
X374095238Y-159276190D01*
X374095238Y-159561904D01*
X374047619Y-159657142D01*
X374000000Y-159704761D01*
X373904761Y-159752380D01*
X373761904Y-159752380D01*
X374666666Y-159752380D02*
X374571428Y-159704761D01*
X374523809Y-159609523D01*
X374523809Y-158752380D01*
X375428571Y-159704761D02*
X375333333Y-159752380D01*
X375142857Y-159752380D01*
X375047619Y-159704761D01*
X375000000Y-159609523D01*
X375000000Y-159228571D01*
X375047619Y-159133333D01*
X375142857Y-159085714D01*
X375333333Y-159085714D01*
X375428571Y-159133333D01*
X375476190Y-159228571D01*
X375476190Y-159323809D01*
X375000000Y-159419047D01*
X181571428Y-61752380D02*
X181571428Y-60752380D01*
X181571428Y-61228571D02*
X182142857Y-61228571D01*
X182142857Y-61752380D02*
X182142857Y-60752380D01*
X182761904Y-61752380D02*
X182666666Y-61704761D01*
X182619047Y-61657142D01*
X182571428Y-61561904D01*
X182571428Y-61276190D01*
X182619047Y-61180952D01*
X182666666Y-61133333D01*
X182761904Y-61085714D01*
X182904761Y-61085714D01*
X183000000Y-61133333D01*
X183047619Y-61180952D01*
X183095238Y-61276190D01*
X183095238Y-61561904D01*
X183047619Y-61657142D01*
X183000000Y-61704761D01*
X182904761Y-61752380D01*
X182761904Y-61752380D01*
X183666666Y-61752380D02*
X183571428Y-61704761D01*
X183523809Y-61609523D01*
X183523809Y-60752380D01*
X184428571Y-61704761D02*
X184333333Y-61752380D01*
X184142857Y-61752380D01*
X184047619Y-61704761D01*
X184000000Y-61609523D01*
X184000000Y-61228571D01*
X184047619Y-61133333D01*
X184142857Y-61085714D01*
X184333333Y-61085714D01*
X184428571Y-61133333D01*
X184476190Y-61228571D01*
X184476190Y-61323809D01*
X184000000Y-61419047D01*
X305571428Y-63752380D02*
X305571428Y-62752380D01*
X305571428Y-63228571D02*
X306142857Y-63228571D01*
X306142857Y-63752380D02*
X306142857Y-62752380D01*
X306761904Y-63752380D02*
X306666666Y-63704761D01*
X306619047Y-63657142D01*
X306571428Y-63561904D01*
X306571428Y-63276190D01*
X306619047Y-63180952D01*
X306666666Y-63133333D01*
X306761904Y-63085714D01*
X306904761Y-63085714D01*
X307000000Y-63133333D01*
X307047619Y-63180952D01*
X307095238Y-63276190D01*
X307095238Y-63561904D01*
X307047619Y-63657142D01*
X307000000Y-63704761D01*
X306904761Y-63752380D01*
X306761904Y-63752380D01*
X307666666Y-63752380D02*
X307571428Y-63704761D01*
X307523809Y-63609523D01*
X307523809Y-62752380D01*
X308428571Y-63704761D02*
X308333333Y-63752380D01*
X308142857Y-63752380D01*
X308047619Y-63704761D01*
X308000000Y-63609523D01*
X308000000Y-63228571D01*
X308047619Y-63133333D01*
X308142857Y-63085714D01*
X308333333Y-63085714D01*
X308428571Y-63133333D01*
X308476190Y-63228571D01*
X308476190Y-63323809D01*
X308000000Y-63419047D01*
X264571428Y-143752380D02*
X264571428Y-142752380D01*
X264571428Y-143228571D02*
X265142857Y-143228571D01*
X265142857Y-143752380D02*
X265142857Y-142752380D01*
X265761904Y-143752380D02*
X265666666Y-143704761D01*
X265619047Y-143657142D01*
X265571428Y-143561904D01*
X265571428Y-143276190D01*
X265619047Y-143180952D01*
X265666666Y-143133333D01*
X265761904Y-143085714D01*
X265904761Y-143085714D01*
X266000000Y-143133333D01*
X266047619Y-143180952D01*
X266095238Y-143276190D01*
X266095238Y-143561904D01*
X266047619Y-143657142D01*
X266000000Y-143704761D01*
X265904761Y-143752380D01*
X265761904Y-143752380D01*
X266666666Y-143752380D02*
X266571428Y-143704761D01*
X266523809Y-143609523D01*
X266523809Y-142752380D01*
X267428571Y-143704761D02*
X267333333Y-143752380D01*
X267142857Y-143752380D01*
X267047619Y-143704761D01*
X267000000Y-143609523D01*
X267000000Y-143228571D01*
X267047619Y-143133333D01*
X267142857Y-143085714D01*
X267333333Y-143085714D01*
X267428571Y-143133333D01*
X267476190Y-143228571D01*
X267476190Y-143323809D01*
X267000000Y-143419047D01*
X42571428Y-144752380D02*
X42571428Y-143752380D01*
X42571428Y-144228571D02*
X43142857Y-144228571D01*
X43142857Y-144752380D02*
X43142857Y-143752380D01*
X43761904Y-144752380D02*
X43666666Y-144704761D01*
X43619047Y-144657142D01*
X43571428Y-144561904D01*
X43571428Y-144276190D01*
X43619047Y-144180952D01*
X43666666Y-144133333D01*
X43761904Y-144085714D01*
X43904761Y-144085714D01*
X44000000Y-144133333D01*
X44047619Y-144180952D01*
X44095238Y-144276190D01*
X44095238Y-144561904D01*
X44047619Y-144657142D01*
X44000000Y-144704761D01*
X43904761Y-144752380D01*
X43761904Y-144752380D01*
X44666666Y-144752380D02*
X44571428Y-144704761D01*
X44523809Y-144609523D01*
X44523809Y-143752380D01*
X45428571Y-144704761D02*
X45333333Y-144752380D01*
X45142857Y-144752380D01*
X45047619Y-144704761D01*
X45000000Y-144609523D01*
X45000000Y-144228571D01*
X45047619Y-144133333D01*
X45142857Y-144085714D01*
X45333333Y-144085714D01*
X45428571Y-144133333D01*
X45476190Y-144228571D01*
X45476190Y-144323809D01*
X45000000Y-144419047D01*
X40571428Y-37752380D02*
X40571428Y-36752380D01*
X40571428Y-37228571D02*
X41142857Y-37228571D01*
X41142857Y-37752380D02*
X41142857Y-36752380D01*
X41761904Y-37752380D02*
X41666666Y-37704761D01*
X41619047Y-37657142D01*
X41571428Y-37561904D01*
X41571428Y-37276190D01*
X41619047Y-37180952D01*
X41666666Y-37133333D01*
X41761904Y-37085714D01*
X41904761Y-37085714D01*
X42000000Y-37133333D01*
X42047619Y-37180952D01*
X42095238Y-37276190D01*
X42095238Y-37561904D01*
X42047619Y-37657142D01*
X42000000Y-37704761D01*
X41904761Y-37752380D01*
X41761904Y-37752380D01*
X42666666Y-37752380D02*
X42571428Y-37704761D01*
X42523809Y-37609523D01*
X42523809Y-36752380D01*
X43428571Y-37704761D02*
X43333333Y-37752380D01*
X43142857Y-37752380D01*
X43047619Y-37704761D01*
X43000000Y-37609523D01*
X43000000Y-37228571D01*
X43047619Y-37133333D01*
X43142857Y-37085714D01*
X43333333Y-37085714D01*
X43428571Y-37133333D01*
X43476190Y-37228571D01*
X43476190Y-37323809D01*
X43000000Y-37419047D01*
G04 #@! TO.C,ENC1*
X384935714Y-36653571D02*
X385269047Y-36653571D01*
X385411904Y-37177380D02*
X384935714Y-37177380D01*
X384935714Y-36177380D01*
X385411904Y-36177380D01*
X385840476Y-37177380D02*
X385840476Y-36177380D01*
X386411904Y-37177380D01*
X386411904Y-36177380D01*
X387459523Y-37082142D02*
X387411904Y-37129761D01*
X387269047Y-37177380D01*
X387173809Y-37177380D01*
X387030952Y-37129761D01*
X386935714Y-37034523D01*
X386888095Y-36939285D01*
X386840476Y-36748809D01*
X386840476Y-36605952D01*
X386888095Y-36415476D01*
X386935714Y-36320238D01*
X387030952Y-36225000D01*
X387173809Y-36177380D01*
X387269047Y-36177380D01*
X387411904Y-36225000D01*
X387459523Y-36272619D01*
X388411904Y-37177380D02*
X387840476Y-37177380D01*
X388126190Y-37177380D02*
X388126190Y-36177380D01*
X388030952Y-36320238D01*
X387935714Y-36415476D01*
X387840476Y-36463095D01*
G04 #@! TO.C,LED1*
X309393452Y-93589880D02*
X308917261Y-93589880D01*
X308917261Y-92589880D01*
X309726785Y-93066071D02*
X310060119Y-93066071D01*
X310202976Y-93589880D02*
X309726785Y-93589880D01*
X309726785Y-92589880D01*
X310202976Y-92589880D01*
X310631547Y-93589880D02*
X310631547Y-92589880D01*
X310869642Y-92589880D01*
X311012500Y-92637500D01*
X311107738Y-92732738D01*
X311155357Y-92827976D01*
X311202976Y-93018452D01*
X311202976Y-93161309D01*
X311155357Y-93351785D01*
X311107738Y-93447023D01*
X311012500Y-93542261D01*
X310869642Y-93589880D01*
X310631547Y-93589880D01*
X312155357Y-93589880D02*
X311583928Y-93589880D01*
X311869642Y-93589880D02*
X311869642Y-92589880D01*
X311774404Y-92732738D01*
X311679166Y-92827976D01*
X311583928Y-92875595D01*
G04 #@! TO.C,LED2*
X309393452Y-107877380D02*
X308917261Y-107877380D01*
X308917261Y-106877380D01*
X309726785Y-107353571D02*
X310060119Y-107353571D01*
X310202976Y-107877380D02*
X309726785Y-107877380D01*
X309726785Y-106877380D01*
X310202976Y-106877380D01*
X310631547Y-107877380D02*
X310631547Y-106877380D01*
X310869642Y-106877380D01*
X311012500Y-106925000D01*
X311107738Y-107020238D01*
X311155357Y-107115476D01*
X311202976Y-107305952D01*
X311202976Y-107448809D01*
X311155357Y-107639285D01*
X311107738Y-107734523D01*
X311012500Y-107829761D01*
X310869642Y-107877380D01*
X310631547Y-107877380D01*
X311583928Y-106972619D02*
X311631547Y-106925000D01*
X311726785Y-106877380D01*
X311964880Y-106877380D01*
X312060119Y-106925000D01*
X312107738Y-106972619D01*
X312155357Y-107067857D01*
X312155357Y-107163095D01*
X312107738Y-107305952D01*
X311536309Y-107877380D01*
X312155357Y-107877380D01*
G04 #@! TO.C,LED3*
X309393452Y-122164880D02*
X308917261Y-122164880D01*
X308917261Y-121164880D01*
X309726785Y-121641071D02*
X310060119Y-121641071D01*
X310202976Y-122164880D02*
X309726785Y-122164880D01*
X309726785Y-121164880D01*
X310202976Y-121164880D01*
X310631547Y-122164880D02*
X310631547Y-121164880D01*
X310869642Y-121164880D01*
X311012500Y-121212500D01*
X311107738Y-121307738D01*
X311155357Y-121402976D01*
X311202976Y-121593452D01*
X311202976Y-121736309D01*
X311155357Y-121926785D01*
X311107738Y-122022023D01*
X311012500Y-122117261D01*
X310869642Y-122164880D01*
X310631547Y-122164880D01*
X311536309Y-121164880D02*
X312155357Y-121164880D01*
X311822023Y-121545833D01*
X311964880Y-121545833D01*
X312060119Y-121593452D01*
X312107738Y-121641071D01*
X312155357Y-121736309D01*
X312155357Y-121974404D01*
X312107738Y-122069642D01*
X312060119Y-122117261D01*
X311964880Y-122164880D01*
X311679166Y-122164880D01*
X311583928Y-122117261D01*
X311536309Y-122069642D01*
G04 #@! TD*
M02*
