M48
;DRILL file {KiCad (5.0.1)-4} date 12/8/2018 5:27:04 AM
;FORMAT={-:-/ absolute / inch / decimal}
FMAT,2
INCH,TZ
T1C0.0591
T2C0.1063
T3C0.1200
T4C0.1570
%
G90
G05
M72
T1
X1.9124Y-2.8602
X1.9124Y-3.2146
X11.8499Y-5.2977
X11.8499Y-5.6521
X6.4124Y-2.8602
X6.4124Y-3.2146
X11.0999Y-6.0477
X11.0999Y-6.4021
X8.8499Y-5.1102
X8.8499Y-5.4646
X8.0999Y-5.1102
X8.0999Y-5.4646
X10.5374Y-3.6102
X10.5374Y-3.9646
X7.7249Y-4.3602
X7.7249Y-4.7146
X1.1624Y-0.9852
X1.1624Y-1.3396
X12.7874Y-3.6102
X12.7874Y-3.9646
X6.7874Y-3.6102
X6.7874Y-3.9646
X9.2249Y-4.3602
X9.2249Y-4.7146
X10.1624Y-2.8602
X10.1624Y-3.2146
X9.1874Y-1.9227
X9.1874Y-2.2771
X2.6624Y-2.8602
X2.6624Y-3.2146
X14.0999Y-0.9852
X14.0999Y-1.3396
X11.8499Y-1.9227
X11.8499Y-2.2771
X3.5999Y-5.1102
X3.5999Y-5.4646
X12.5999Y-2.6727
X12.5999Y-3.0271
X14.8602Y-5.6624
X15.2146Y-5.6624
X11.8499Y-6.0477
X11.8499Y-6.4021
X10.1624Y-0.9852
X10.1624Y-1.3396
X13.5374Y-4.3602
X13.5374Y-4.7146
X7.7249Y-0.9852
X7.7249Y-1.3396
X5.9437Y-5.8602
X5.9437Y-6.2146
X11.1937Y-4.3602
X11.1937Y-4.7146
X2.0999Y-0.9852
X2.0999Y-1.3396
X15.0374Y-2.8602
X15.0374Y-3.2146
X6.2249Y-4.3602
X6.2249Y-4.7146
X8.4749Y-4.3602
X8.4749Y-4.7146
X9.4124Y-2.8602
X9.4124Y-3.2146
X9.9374Y-1.9227
X9.9374Y-2.2771
X15.0374Y-1.9227
X15.0374Y-2.2771
X2.6624Y-1.9227
X2.6624Y-2.2771
X7.6874Y-1.9227
X7.6874Y-2.2771
X1.6312Y-5.1102
X1.6312Y-5.4646
X6.5999Y-5.1102
X6.5999Y-5.4646
X3.1312Y-5.8602
X3.1312Y-6.2146
X6.9749Y-0.9852
X6.9749Y-1.3396
X5.4749Y-4.3602
X5.4749Y-4.7146
X6.0374Y-0.9852
X6.0374Y-1.3396
X4.7249Y-4.3602
X4.7249Y-4.7146
X11.8499Y-0.9852
X11.8499Y-1.3396
X13.5374Y-3.6102
X13.5374Y-3.9646
X14.2874Y-3.6102
X14.2874Y-3.9646
X2.4749Y-4.3602
X2.4749Y-4.7146
X8.6624Y-2.8602
X8.6624Y-3.2146
X13.3499Y-1.9227
X13.3499Y-2.2771
X4.4249Y-1.9227
X4.4249Y-2.2771
X14.2874Y-1.9227
X14.2874Y-2.2771
X13.3499Y-0.9852
X13.3499Y-1.3396
X7.3499Y-5.1102
X7.3499Y-5.4646
X14.2874Y-5.8602
X14.2874Y-6.2146
X4.3499Y-5.1102
X4.3499Y-5.4646
X2.1937Y-5.8602
X2.1937Y-6.2146
X4.5374Y-0.9852
X4.5374Y-1.3396
X5.2874Y-3.6102
X5.2874Y-3.9646
X5.2874Y-0.9852
X5.2874Y-1.3396
X14.2874Y-2.8602
X14.2874Y-3.2146
X8.2874Y-3.6102
X8.2874Y-3.9646
X1.4437Y-4.3602
X1.4437Y-4.7146
X6.0374Y-3.6102
X6.0374Y-3.9646
X3.4124Y-1.9227
X3.4124Y-2.2771
X8.4374Y-1.9227
X8.4374Y-2.2771
X1.9124Y-1.9227
X1.9124Y-2.2771
X4.1624Y-2.8602
X4.1624Y-3.2146
X7.9124Y-2.8602
X7.9124Y-3.2146
X2.8499Y-5.1102
X2.8499Y-5.4646
X5.0999Y-5.1102
X5.0999Y-5.4646
X9.9749Y-5.8602
X9.9749Y-6.2146
X13.5374Y-5.8602
X13.5374Y-6.2146
X10.6312Y-5.1102
X10.6312Y-5.4646
X9.4124Y-0.9852
X9.4124Y-1.3396
X11.4749Y-3.6102
X11.4749Y-3.9646
X3.5999Y-0.9852
X3.5999Y-1.3396
X15.0374Y-3.6102
X15.0374Y-3.9646
X10.9124Y-0.9852
X10.9124Y-1.3396
X3.0374Y-3.6102
X3.0374Y-3.9646
X7.5374Y-3.6102
X7.5374Y-3.9646
X3.2249Y-4.3602
X3.2249Y-4.7146
X4.9124Y-2.8602
X4.9124Y-3.2146
X5.9249Y-1.9227
X5.9249Y-2.2771
X10.9124Y-1.9227
X10.9124Y-2.2771
X12.5999Y-1.9227
X12.5999Y-2.2771
X14.2874Y-5.1102
X14.2874Y-5.4646
X13.5374Y-2.8602
X13.5374Y-3.2146
X15.0374Y-4.3602
X15.0374Y-4.7146
X5.8499Y-5.1102
X5.8499Y-5.4646
X9.5999Y-5.1102
X9.5999Y-5.4646
X1.2562Y-5.8602
X1.2562Y-6.2146
X9.7874Y-3.6102
X9.7874Y-3.9646
X8.4749Y-0.9852
X8.4749Y-1.3396
X11.2874Y-2.8602
X11.2874Y-3.2146
X4.5374Y-3.6102
X4.5374Y-3.9646
X2.8499Y-0.9852
X2.8499Y-1.3396
X3.7874Y-3.6102
X3.7874Y-3.9646
X1.3499Y-3.6102
X1.3499Y-3.9646
X14.2874Y-4.3602
X14.2874Y-4.7146
X9.0374Y-3.6102
X9.0374Y-3.9646
X12.5999Y-0.9852
X12.5999Y-1.3396
X7.1624Y-2.8602
X7.1624Y-3.2146
X6.6749Y-1.9227
X6.6749Y-2.2771
X3.4124Y-2.8602
X3.4124Y-3.2146
X12.7874Y-5.1102
X12.7874Y-5.4646
X1.1624Y-1.9227
X1.1624Y-2.2771
X13.5374Y-5.1102
X13.5374Y-5.4646
X8.8499Y-5.8602
X8.8499Y-6.2146
X12.5999Y-6.0477
X12.5999Y-6.4021
X6.9749Y-4.3602
X6.9749Y-4.7146
X12.7874Y-4.3602
X12.7874Y-4.7146
X3.9749Y-4.3602
X3.9749Y-4.7146
X2.2874Y-3.6102
X2.2874Y-3.9646
X9.9749Y-4.3602
X9.9749Y-4.7146
X1.1624Y-2.8602
X1.1624Y-3.2146
X5.6624Y-2.8602
X5.6624Y-3.2146
X5.1749Y-1.9227
X5.1749Y-2.2771
T2
X1.7323Y-5.8268
X12.0866Y-2.6378
X7.2047Y-2.5591
X1.6535Y-1.6142
X14.7244Y-6.4173
X10.4724Y-5.7874
X14.6457Y-1.6535
T3
X10.8174Y-2.7624
X11.7574Y-2.7624
X15.3124Y-5.1924
X15.3124Y-6.1324
X3.9737Y-5.7624
X7.9137Y-5.7624
X10.7237Y-4.2624
X11.6637Y-4.2624
X1.1612Y-5.0124
X2.1012Y-5.0124
T4
X1.1612Y-5.6124
X10.8174Y-3.3624
X11.7574Y-3.3624
X14.7124Y-5.1924
X14.7124Y-6.1324
X3.9737Y-6.3624
X7.9137Y-6.3624
X10.7237Y-4.8624
X11.6637Y-4.8624
X2.1012Y-5.6124
T0
M30
